<?xml version="1.0" standalone="no"?>
<!DOCTYPE svg PUBLIC "-//W3C//DTD SVG 20010904//EN"
 "http://www.w3.org/TR/2001/REC-SVG-20010904/DTD/svg10.dtd">
<svg version="1.0" xmlns="http://www.w3.org/2000/svg"
 width="1040.000000pt" height="1040.000000pt" viewBox="0 0 1040.000000 1040.000000"
 preserveAspectRatio="xMidYMid meet">
<metadata>
Created by potrace 1.14, written by Peter Selinger 2001-2017
</metadata>
<g transform="translate(0.000000,1040.000000) scale(0.100000,-0.100000)"
fill="#000000" stroke="none">
<path d="M5867 9494 c-1 -2 -43 -5 -92 -8 -105 -7 -174 -13 -230 -21 -22 -3
-58 -8 -80 -11 -81 -10 -101 -13 -125 -19 -22 -4 -65 -12 -110 -20 -8 -2 -33
-8 -55 -13 -37 -10 -52 -13 -122 -27 -16 -3 -37 -9 -48 -12 -11 -4 -24 -8 -30
-9 -5 -1 -30 -7 -55 -14 -25 -7 -47 -12 -50 -13 -3 0 -57 -18 -120 -39 -63
-22 -119 -40 -125 -42 -5 -1 -16 -5 -22 -9 -7 -5 -21 -10 -30 -12 -84 -18
-450 -190 -653 -308 -118 -67 -374 -239 -440 -294 -8 -7 -55 -45 -105 -85 -49
-39 -99 -80 -110 -90 -175 -157 -328 -312 -440 -442 -27 -32 -56 -64 -62 -71
-7 -8 -13 -17 -13 -21 0 -4 -6 -12 -14 -18 -8 -6 -39 -45 -70 -86 -31 -41 -60
-79 -64 -85 -4 -5 -23 -32 -42 -60 -19 -27 -38 -54 -42 -60 -28 -35 -163 -257
-212 -350 -21 -38 -42 -77 -47 -85 -9 -15 -100 -210 -131 -280 -9 -19 -30 -73
-48 -120 -18 -47 -39 -99 -46 -117 -8 -17 -14 -37 -14 -45 0 -8 -3 -18 -8 -22
-4 -4 -7 -11 -8 -14 0 -4 -7 -27 -14 -52 -17 -58 -16 -53 -22 -70 -8 -19 -48
-168 -53 -195 -3 -11 -14 -60 -26 -110 -12 -49 -23 -101 -24 -115 -1 -14 -3
-25 -5 -25 -1 0 -4 -13 -6 -30 -4 -26 -13 -80 -19 -110 -2 -9 -8 -54 -21 -155
-17 -145 -27 -325 -28 -505 0 -139 10 -352 18 -410 3 -16 7 -57 11 -90 14
-132 16 -151 21 -175 3 -14 12 -63 21 -110 8 -47 16 -89 17 -95 6 -23 18 -71
22 -92 6 -30 15 -29 52 5 42 37 72 60 105 80 15 9 27 20 27 24 0 4 5 8 12 8 6
0 19 7 28 15 62 56 356 183 460 199 8 1 25 6 37 10 12 4 37 9 55 10 18 2 56 8
83 12 98 16 383 9 475 -12 14 -3 39 -7 55 -10 17 -3 62 -15 100 -26 39 -11 75
-21 80 -23 17 -4 47 -15 110 -42 101 -44 130 -58 137 -68 4 -5 8 -7 8 -2 0 9
174 -102 178 -114 2 -5 10 -9 18 -9 8 0 14 -4 14 -10 0 -5 4 -10 10 -10 21 0
189 -165 264 -260 146 -184 268 -454 301 -665 4 -27 16 -115 20 -143 3 -30 10
-36 70 -58 58 -21 173 -80 196 -100 8 -8 20 -14 25 -14 5 0 24 -14 43 -30 18
-17 37 -30 40 -30 3 0 35 -28 70 -62 187 -182 303 -398 347 -643 13 -71 10
-366 -4 -425 -41 -167 -133 -385 -176 -412 -6 -4 -7 -8 -1 -8 7 0 7 -3 0 -8
-6 -4 -23 -25 -40 -47 -16 -21 -61 -71 -100 -110 -61 -61 -91 -88 -164 -142
-18 -13 -22 -10 54 -34 22 -7 45 -14 50 -15 6 -1 30 -7 55 -14 70 -18 360 -79
410 -86 25 -3 54 -7 65 -9 11 -2 45 -6 75 -10 30 -3 69 -8 85 -11 97 -15 715
-28 715 -15 0 3 21 6 48 6 55 1 223 15 231 19 3 2 35 7 70 10 36 4 67 9 71 11
4 2 23 5 43 7 21 1 37 5 37 8 0 3 10 5 23 6 33 1 110 15 121 21 5 4 21 7 35 9
14 1 26 3 26 4 0 1 11 4 25 6 35 6 236 62 290 80 25 9 52 17 60 19 27 6 204
72 285 106 44 18 82 34 85 34 3 1 26 11 52 23 27 12 58 27 70 32 13 6 30 14
38 19 8 5 38 20 65 33 74 37 180 95 252 139 35 22 66 39 69 39 2 0 10 5 17 11
7 5 41 29 77 52 36 22 67 43 70 47 3 3 12 10 21 15 37 22 117 81 160 117 26
21 51 38 57 38 6 0 12 4 14 9 2 7 93 86 162 141 10 8 49 44 87 80 37 36 76 72
86 81 42 37 221 232 283 308 19 24 40 48 45 55 6 6 36 45 68 86 31 41 61 80
65 85 5 6 33 46 62 90 30 44 58 82 62 83 5 2 8 8 8 14 0 5 10 24 23 41 12 18
27 41 33 52 6 11 42 74 80 140 57 99 144 265 149 285 1 3 14 32 30 65 33 72
85 196 88 210 2 6 5 15 8 20 4 6 17 42 29 80 12 39 27 76 33 83 5 6 7 12 4 12
-3 0 5 33 19 72 14 40 27 80 29 88 2 8 17 69 34 135 16 66 32 131 35 145 3 14
7 36 10 50 3 14 9 41 12 60 4 19 9 44 11 55 2 11 6 31 7 45 5 37 18 133 21
150 11 61 21 161 30 320 15 233 1 578 -31 795 -3 22 -8 56 -10 75 -2 19 -8 58
-13 85 -5 28 -13 68 -16 90 -3 22 -11 58 -17 80 -6 22 -12 49 -13 60 -2 11 -6
29 -8 40 -3 11 -11 43 -17 70 -7 28 -18 69 -26 92 -7 23 -15 52 -18 65 -7 39
-88 272 -98 286 -6 6 -8 12 -5 12 10 0 -42 115 -54 119 -7 2 -9 -1 -4 -9 8
-13 11 -37 17 -122 2 -27 6 -48 10 -48 4 0 3 -11 -2 -25 -5 -13 -6 -26 -2 -29
8 -4 6 -302 -2 -401 -11 -122 -25 -217 -62 -392 -2 -12 -20 -75 -39 -140 -20
-65 -37 -125 -39 -133 -3 -8 -5 -16 -6 -17 -2 -2 -3 -6 -4 -10 -1 -5 -10 -25
-19 -47 -9 -21 -17 -42 -17 -47 0 -5 -4 -17 -9 -27 -6 -9 -22 -46 -38 -82 -15
-36 -31 -66 -35 -68 -4 -2 -8 -10 -8 -17 0 -18 -59 -127 -138 -253 -12 -21
-28 -47 -34 -60 -6 -12 -15 -22 -20 -22 -4 0 -8 -5 -8 -10 0 -6 -5 -16 -10
-23 -9 -10 -42 -54 -77 -102 -78 -105 -244 -283 -364 -388 -117 -103 -212
-177 -226 -177 -6 0 -13 -4 -15 -9 -5 -15 -199 -136 -299 -188 -52 -26 -95
-51 -97 -55 -2 -5 -10 -8 -17 -8 -7 0 -48 -16 -89 -35 -42 -19 -82 -35 -89
-35 -7 0 -17 -4 -23 -8 -14 -13 -262 -92 -334 -106 -14 -3 -38 -8 -55 -12 -16
-4 -42 -8 -57 -8 -16 -1 -28 -4 -28 -7 0 -4 -28 -10 -62 -14 -35 -4 -72 -9
-83 -11 -95 -17 -500 -25 -627 -11 -98 10 -222 28 -238 34 -8 4 -19 5 -23 4
-4 0 -38 6 -75 15 -88 21 -81 19 -132 33 -25 7 -52 15 -60 16 -8 2 -34 10 -57
19 -24 8 -43 12 -43 8 0 -4 -4 -2 -8 3 -4 6 -32 19 -62 29 -30 10 -71 25 -90
33 -69 29 -336 164 -380 193 -25 16 -52 33 -60 37 -24 11 -184 126 -192 137
-4 6 -8 7 -8 3 0 -4 -10 2 -22 15 -13 13 -40 36 -62 52 -40 30 -277 263 -334
328 -17 21 -32 42 -32 48 0 5 -4 10 -8 10 -14 0 -171 220 -235 330 -132 226
-247 502 -297 710 -16 64 -38 167 -44 196 -3 16 -7 40 -10 54 -5 25 -11 77
-24 200 -14 138 -5 577 13 633 2 7 6 30 9 52 3 22 8 51 11 65 3 14 8 41 11 60
3 19 7 43 10 52 3 9 7 26 9 37 3 12 8 31 11 44 3 12 7 29 9 37 2 8 4 16 5 18
2 1 3 5 4 10 16 68 67 213 113 322 39 91 128 270 135 270 4 0 8 9 8 19 0 11 4
21 8 23 5 2 23 28 40 58 36 61 53 88 65 104 84 117 110 152 116 156 4 3 18 20
31 39 58 83 257 285 387 391 109 90 191 150 204 150 5 0 9 4 9 8 0 5 10 14 23
21 12 6 36 20 52 31 62 40 180 105 188 102 4 -1 7 2 7 7 0 6 126 66 255 121
55 23 225 81 235 79 3 0 19 5 35 11 17 7 39 14 50 16 11 2 29 6 40 9 59 14
155 34 190 39 23 4 52 9 65 11 26 6 72 11 180 22 134 13 480 6 569 -12 17 -3
21 -1 14 6 -6 6 -17 12 -24 13 -16 3 -46 14 -74 27 -26 12 -227 78 -252 82
-10 2 -25 7 -33 10 -27 10 -134 39 -155 41 -12 1 -26 6 -33 10 -7 4 -12 5 -12
2 0 -2 -15 0 -32 5 -18 6 -44 12 -58 15 -14 2 -47 9 -75 14 -27 6 -61 12 -75
14 -14 3 -25 5 -25 6 0 1 -13 3 -30 5 -65 7 -121 15 -150 19 -43 7 -119 16
-200 22 -73 6 -543 12 -548 8z"/>
<path d="M2814 4161 c-2 -3 -21 -6 -42 -7 -67 -3 -136 -16 -217 -40 -44 -13
-88 -26 -99 -29 -44 -11 -232 -113 -299 -163 -97 -74 -202 -180 -275 -280 -33
-45 -63 -78 -66 -73 -8 12 -139 62 -184 70 -46 8 -227 7 -267 -1 -75 -14 -212
-74 -243 -104 -7 -8 -17 -14 -21 -14 -11 0 -121 -108 -143 -140 -51 -73 -67
-102 -83 -151 -10 -30 -20 -58 -24 -64 -7 -12 -9 -25 -18 -88 -6 -50 -9 -53
-53 -61 -82 -14 -108 -20 -132 -33 -15 -7 -29 -13 -30 -12 -17 5 -141 -58
-215 -110 -264 -188 -407 -471 -398 -786 5 -143 10 -178 40 -270 36 -105 57
-150 120 -245 46 -71 121 -152 195 -211 60 -47 182 -119 203 -119 9 0 17 -4
17 -8 0 -6 93 -39 122 -43 4 0 31 -6 61 -13 29 -7 82 -14 117 -15 36 -2 749
-4 1585 -4 1080 0 1536 3 1575 11 30 7 66 13 80 16 14 2 45 12 70 21 25 9 55
19 68 22 12 3 22 10 22 16 0 6 3 7 7 4 7 -8 99 43 170 95 60 44 140 121 180
175 15 21 31 40 34 43 12 10 76 127 93 170 48 121 65 194 72 312 2 43 4 81 5
85 1 5 1 10 0 13 -2 3 -4 23 -6 45 -5 50 -13 110 -15 110 -1 0 -4 11 -6 25 -8
46 -57 175 -81 212 -13 21 -23 40 -23 43 0 16 -87 129 -141 184 -97 98 -268
208 -350 226 -35 8 -35 8 -43 70 -11 86 -15 108 -36 185 -28 103 -28 104 -71
199 -27 59 -95 179 -108 191 -4 3 -19 24 -35 48 -16 24 -34 46 -40 50 -6 4
-28 26 -48 50 -21 23 -38 40 -38 38 0 -2 -23 18 -51 45 -28 27 -55 49 -59 49
-4 0 -20 11 -36 25 -16 14 -35 25 -41 25 -7 0 -13 4 -13 8 0 13 -177 99 -270
131 -97 33 -206 58 -301 67 -82 7 -209 10 -215 5z"/>
</g>
</svg>
