<svg width="90" height="90" viewBox="0 0 90 90" fill="none" xmlns="http://www.w3.org/2000/svg">
<path d="M45 89C69.3005 89 89 69.3005 89 45C89 20.6995 69.3005 1 45 1C20.6995 1 1 20.6995 1 45C1 69.3005 20.6995 89 45 89Z" stroke="white" stroke-width="2"/>
<path d="M44.9992 85.3861C67.3037 85.3861 85.3851 67.3047 85.3851 45.0002C85.3851 22.6956 67.3037 4.61426 44.9992 4.61426C22.6947 4.61426 4.61328 22.6956 4.61328 45.0002C4.61328 67.3047 22.6947 85.3861 44.9992 85.3861Z" stroke="#FFCB77"/>
<path d="M40.1502 55.0632C39.7307 49.8142 32.7748 48.0849 29.9315 52.5796C28.0874 51.5437 25.7355 52.7622 25.588 54.904C23.5663 55.15 22 56.8606 22 58.936C22 61.1805 23.8315 63 26.0902 63H38.9095C41.1682 63 43 61.1805 43 58.936C42.9998 57.1218 41.8026 55.5856 40.1502 55.0632Z" fill="white"/>
<path d="M68 45C68 55.4934 59.4934 64 49 64C47.0496 64 45.1679 63.7061 43.3968 63.1603C44.7861 62.2457 45.7034 60.6722 45.7034 58.8844C45.703 56.6008 44.2059 54.6672 42.1392 54.0096C41.6654 48.0428 34.5242 45.6892 30.5254 49.4562C30.1819 48.0269 30 46.5347 30 45C30 34.5065 38.5066 26 49 26C51.5018 26 53.8906 26.4835 56.0781 27.3622C55.5215 27.2849 54.953 27.245 54.3751 27.245C47.5976 27.245 42.1034 32.7391 42.1034 39.5166C42.1034 46.294 47.5976 51.7882 54.3751 51.7882C61.1525 51.7882 66.6466 46.294 66.6466 39.5166C66.6466 38.8552 66.5942 38.2059 66.4935 37.5729C67.4633 39.8544 68 42.3646 68 45Z" fill="#FFCB77"/>
</svg>
