<svg width="141" height="113" viewBox="0 0 141 113" fill="none" xmlns="http://www.w3.org/2000/svg">
<path d="M125.382 82.7064C137.145 82.1887 141.034 91.7972 140.232 98.0742C139.707 105.981 133.42 111.035 125.092 111.035C116.764 111.035 111.182 105.981 111.182 98.0742C111.182 90.167 116.647 83.0908 125.382 82.7064Z" fill="white"/>
<path d="M139.51 14.7608C140.028 26.524 130.42 30.4132 124.143 29.611C116.236 29.0863 111.182 22.799 111.182 14.4709C111.182 6.14282 116.235 0.560547 124.143 0.560547C132.05 0.560547 139.126 6.02616 139.51 14.7608Z" fill="white"/>
<path d="M38.5035 112.049H33.1392L0.953125 31.2262L15.0625 0.560547H20.4268L51.3162 74.4647L38.5035 112.049Z" fill="white"/>
<path d="M85.3648 112.049H80.0005L47.8145 31.2262L61.9238 0.560547H67.2881L98.1775 74.4647L85.3648 112.049Z" fill="white"/>
</svg>
