<svg width="414" height="82" viewBox="0 0 414 82" fill="none" xmlns="http://www.w3.org/2000/svg">
<path d="M63.0562 22.3791C63.0562 22.866 62.8213 23.1094 62.3515 23.1094L14.4274 23.1094C13.9576 23.1094 13.7227 22.866 13.7227 22.3791L13.7227 16.8291C13.7227 16.3422 13.9576 16.0988 14.4274 16.0988L62.3515 16.0988C62.8213 16.0988 63.0562 16.3422 63.0562 16.8291L63.0562 22.3791Z" fill="white"/>
<path d="M63.0562 63.6643C63.0562 64.1511 62.8213 64.3945 62.3515 64.3945L14.4274 64.3945C13.9576 64.3945 13.7227 64.1511 13.7227 63.6643L13.7227 58.1142C13.7227 57.6274 13.9576 57.384 14.4274 57.384L62.3515 57.384C62.8213 57.384 63.0562 57.6274 63.0562 58.1142L63.0562 63.6643Z" fill="white"/>
<path d="M49.3729 44.1211C49.684 44.1211 50.0091 44.0427 50.2528 43.7983C50.4961 43.5542 50.5739 43.229 50.5739 42.9179L50.5739 37.5734C50.5739 37.2623 50.4961 36.9371 50.2528 36.693C50.0091 36.4486 49.684 36.3702 49.3729 36.3702L1.70106 36.3702C1.38991 36.3702 1.06479 36.4486 0.821166 36.693C0.57782 36.9371 0.5 37.2623 0.5 37.5734L0.5 42.9179C0.5 43.229 0.577821 43.5542 0.821166 43.7983C1.06479 44.0427 1.38991 44.1211 1.70106 44.1211L49.3729 44.1211Z" fill="white" stroke="white" stroke-linecap="round"/>
<path d="M63.0562 22.3791C63.0562 22.866 62.8213 23.1094 62.3515 23.1094L14.4274 23.1094C13.9576 23.1094 13.7227 22.866 13.7227 22.3791L13.7227 16.8291C13.7227 16.3422 13.9576 16.0988 14.4274 16.0988L62.3515 16.0988C62.8213 16.0988 63.0562 16.3422 63.0562 16.8291L63.0562 22.3791Z" fill="white"/>
<path d="M63.0562 63.6643C63.0562 64.1511 62.8213 64.3945 62.3515 64.3945L14.4274 64.3945C13.9576 64.3945 13.7227 64.1511 13.7227 63.6643L13.7227 58.1142C13.7227 57.6274 13.9576 57.384 14.4274 57.384L62.3515 57.384C62.8213 57.384 63.0562 57.6274 63.0562 58.1142L63.0562 63.6643Z" fill="white"/>
<path d="M49.3729 44.1211C49.684 44.1211 50.0091 44.0427 50.2528 43.7983C50.4961 43.5542 50.5739 43.229 50.5739 42.9179L50.5739 37.5734C50.5739 37.2623 50.4961 36.9371 50.2528 36.693C50.0091 36.4486 49.684 36.3702 49.3729 36.3702L1.70106 36.3702C1.38991 36.3702 1.06479 36.4486 0.821166 36.693C0.57782 36.9371 0.5 37.2623 0.5 37.5734L0.5 42.9179C0.5 43.229 0.577821 43.5542 0.821166 43.7983C1.06479 44.0427 1.38991 44.1211 1.70106 44.1211L49.3729 44.1211Z" fill="white" stroke="white" stroke-linecap="round"/>
<path d="M350.487 22.3791C350.487 22.866 350.722 23.1094 351.192 23.1094L399.116 23.1094C399.585 23.1094 399.82 22.866 399.82 22.3791L399.82 16.8291C399.82 16.3422 399.585 16.0988 399.116 16.0988L351.192 16.0988C350.722 16.0988 350.487 16.3422 350.487 16.8291L350.487 22.3791Z" fill="white"/>
<path d="M350.487 63.6643C350.487 64.1511 350.722 64.3945 351.192 64.3945L399.116 64.3945C399.585 64.3945 399.82 64.1511 399.82 63.6643L399.82 58.1142C399.82 57.6274 399.585 57.384 399.116 57.384L351.192 57.384C350.722 57.384 350.487 57.6274 350.487 58.1142L350.487 63.6643Z" fill="white"/>
<path d="M364.17 44.1211C363.859 44.1211 363.534 44.0427 363.29 43.7983C363.047 43.5542 362.969 43.229 362.969 42.9179L362.969 37.5734C362.969 37.2623 363.047 36.9371 363.29 36.693C363.534 36.4486 363.859 36.3702 364.17 36.3702L411.842 36.3702C412.153 36.3702 412.478 36.4486 412.722 36.693C412.965 36.9371 413.043 37.2623 413.043 37.5734L413.043 42.9179C413.043 43.229 412.965 43.5542 412.722 43.7983C412.478 44.0427 412.153 44.1211 411.842 44.1211L364.17 44.1211Z" fill="white" stroke="white" stroke-linecap="round"/>
<path fill-rule="evenodd" clip-rule="evenodd" d="M288.206 44.358C292.056 46.469 296.42 48.2603 301.297 49.732L304.586 50.6353C308.593 51.8396 311.352 52.8558 312.864 53.6838C314.376 54.5118 315.132 55.7538 315.132 57.4098C315.132 58.84 314.527 60.1573 313.317 61.3617C312.108 62.4907 310.104 63.0553 307.307 63.0553C303.603 63.0553 300.617 62.2649 298.349 60.6842C296.157 59.0282 295.06 57.1464 295.06 55.0387V54.3613C295.06 53.8344 294.909 53.4204 294.607 53.1193C294.305 52.8182 293.889 52.6676 293.36 52.6676H275.783C275.254 52.6676 274.838 52.8182 274.536 53.1193C274.233 53.4204 274.082 53.8344 274.082 54.3613V55.942C274.082 60.9853 275.367 65.4264 277.938 69.2653C280.583 73.1042 284.288 76.0775 289.05 78.1851C293.813 80.2175 299.37 81.2337 305.72 81.2337C311.843 81.2337 317.211 80.2551 321.822 78.298C326.434 76.341 330.025 73.5559 332.595 69.9428C335.165 66.2544 336.45 61.8886 336.45 56.8453C336.45 51.6515 334.863 47.248 331.688 43.6349C328.513 39.9465 324.544 37.4249 319.781 36.07C315.094 34.6398 312.448 33.8118 311.843 33.586C307.459 32.231 304.208 31.1396 302.091 30.3116C299.974 29.4083 298.387 28.505 297.328 27.6018C296.346 26.6232 295.854 25.4565 295.854 24.1016C295.854 22.3703 296.535 21.0154 297.895 20.0368C299.332 19.0583 301.26 18.569 303.679 18.569C307.156 18.569 309.916 19.5099 311.957 21.3918C313.998 23.1983 315.018 25.2307 315.018 27.4889V27.6018C315.018 28.1287 315.17 28.5427 315.472 28.8438C315.774 29.1449 316.19 29.2954 316.719 29.2954H334.296C334.825 29.2954 335.241 29.1449 335.543 28.8438C335.846 28.5427 335.997 28.1287 335.997 27.6018V26.5856C335.997 21.467 334.598 16.913 331.801 12.9236C329.08 8.93409 325.3 5.84791 320.461 3.66499C315.699 1.48208 310.369 0.390625 304.472 0.390625C298.878 0.390625 293.813 1.36917 289.277 3.32626C287.975 3.89754 286.754 4.54257 285.613 5.26135C288.186 7.18682 290.268 9.60317 291.859 12.5104C294.158 16.4946 295.307 21.0918 295.307 26.3019C295.307 31.4353 294.12 35.9558 291.744 39.8634C290.737 41.52 289.558 43.0182 288.206 44.358Z" fill="white"/>
<path fill-rule="evenodd" clip-rule="evenodd" d="M139.644 4.7109V2.07098C139.644 1.5397 139.493 1.12226 139.189 0.818668C138.885 0.515077 138.468 0.363281 137.937 0.363281H83.1764C82.6452 0.363281 82.2277 0.515077 81.9241 0.818668C81.6205 1.12226 81.4688 1.5397 81.4688 2.07098V16.9849C81.4688 17.5161 81.6205 17.9336 81.9241 18.2372C82.2277 18.5408 82.6452 18.6926 83.1764 18.6926H115.053C115.281 18.6926 115.433 18.7685 115.509 18.9203C115.585 19.0721 115.547 19.2238 115.395 19.3756L82.2657 59.7911C81.7344 60.3983 81.4688 61.0814 81.4688 61.8404V78.3481C81.4688 78.8794 81.6205 79.2968 81.9241 79.6004C82.2277 79.904 82.6452 80.0558 83.1764 80.0558H137.937C138.468 80.0558 138.885 79.904 139.189 79.6004C139.493 79.2968 139.644 78.8794 139.644 78.3481V76.1706C136.379 74.2465 133.734 71.8153 131.708 68.8769C130.243 66.689 129.196 64.3056 128.566 61.7265H105.832C105.604 61.7265 105.452 61.6506 105.377 61.4988C105.301 61.347 105.339 61.1952 105.49 61.0435L129.815 31.5713C129.036 29.2877 128.647 26.7436 128.647 23.939C128.647 19.1968 129.932 15.0191 132.502 11.406C134.379 8.71277 136.76 6.48105 139.644 4.7109Z" fill="white"/>
<path d="M166.177 81.2376C159.827 81.2376 154.27 80.2214 149.507 78.189C144.745 76.0814 141.04 73.1081 138.395 69.2692C135.824 65.4303 134.539 60.9892 134.539 55.9459V54.3652C134.539 53.8383 134.69 53.4243 134.993 53.1232C135.295 52.8221 135.711 52.6715 136.24 52.6715H153.817C154.346 52.6715 154.762 52.8221 155.064 53.1232C155.366 53.4243 155.518 53.8383 155.518 54.3652V55.0426C155.518 57.1503 156.614 59.0321 158.806 60.6881C161.074 62.2688 164.06 63.0592 167.764 63.0592C170.562 63.0592 172.565 62.4947 173.774 61.3656C174.984 60.1612 175.589 58.8439 175.589 57.4137C175.589 55.7577 174.833 54.5157 173.321 53.6877C171.809 52.8597 169.05 51.8435 165.043 50.6392L161.754 49.7359C154.27 47.4777 147.996 44.4668 142.93 40.7032C137.865 36.9395 135.333 31.4822 135.333 24.3313C135.333 19.5891 136.618 15.4115 139.188 11.7984C141.759 8.11 145.274 5.28727 149.734 3.33017C154.27 1.37308 159.335 0.394531 164.929 0.394531C170.826 0.394531 176.156 1.48599 180.918 3.6689C185.757 5.85181 189.537 8.938 192.258 12.9275C195.055 16.9169 196.454 21.4709 196.454 26.5895V27.6057C196.454 28.1326 196.303 28.5466 196 28.8477C195.698 29.1488 195.282 29.2993 194.753 29.2993H177.176C176.647 29.2993 176.231 29.1488 175.929 28.8477C175.627 28.5466 175.475 28.1326 175.475 27.6057V27.4928C175.475 25.2346 174.455 23.2022 172.414 21.3957C170.373 19.5138 167.613 18.5729 164.136 18.5729C161.717 18.5729 159.789 19.0622 158.352 20.0407C156.992 21.0193 156.311 22.3742 156.311 24.1055C156.311 25.4604 156.803 26.6271 157.785 27.6057C158.844 28.5089 160.431 29.4122 162.548 30.3155C164.665 31.1435 167.916 32.235 172.3 33.5899C172.905 33.8157 175.551 34.6437 180.238 36.0739C185.001 37.4288 188.97 39.9504 192.145 43.6388C195.32 47.2519 196.907 51.6554 196.907 56.8492C196.907 61.8925 195.622 66.2583 193.052 69.9467C190.482 73.5598 186.891 76.3449 182.279 78.302C177.668 80.259 172.3 81.2376 166.177 81.2376Z" fill="white"/>
<path d="M204.943 80.8435C204.686 80.8435 204.484 80.7561 204.337 80.5814C204.191 80.4067 204.117 80.1665 204.117 79.8608V35.9671C204.117 35.6613 204.191 35.4211 204.337 35.2464C204.484 35.0717 204.686 34.9844 204.943 34.9844H218.752C219.009 34.9844 219.211 35.0717 219.358 35.2464C219.505 35.4211 219.578 35.6613 219.578 35.9671V79.8608C219.578 80.1665 219.505 80.4067 219.358 80.5814C219.211 80.7561 219.009 80.8435 218.752 80.8435H204.943Z" fill="white"/>
<path d="M204.943 30.3947C204.686 30.3947 204.484 30.3652 204.337 30.3063C204.191 30.2474 204.117 30.1664 204.117 30.0634V15.2649C204.117 15.1618 204.191 15.0808 204.337 15.0219C204.484 14.963 204.686 14.9336 204.943 14.9336H218.752C219.009 14.9336 219.211 14.963 219.358 15.0219C219.505 15.0808 219.578 15.1618 219.578 15.2649V30.0634C219.578 30.1664 219.505 30.2474 219.358 30.3063C219.211 30.3652 219.009 30.3947 218.752 30.3947H204.943Z" fill="white"/>
<path d="M262.189 0C267.63 0 272.419 1.11098 276.558 3.33293C280.696 5.47827 283.876 8.58134 286.098 12.6421C288.397 16.6263 289.547 21.2235 289.547 26.4336C289.547 31.567 288.359 36.0876 285.983 39.9951C283.608 43.9027 280.274 46.9292 275.983 49.0745C271.691 51.2198 266.749 52.2925 261.155 52.2925H248.97C248.587 52.2925 248.395 52.484 248.395 52.8671V78.7261C248.395 79.2624 248.242 79.6838 247.936 79.9903C247.629 80.2967 247.208 80.45 246.671 80.45H228.509C227.973 80.45 227.551 80.2967 227.245 79.9903C226.938 79.6838 226.785 79.2624 226.785 78.7261V1.72393C226.785 1.1876 226.938 0.766192 227.245 0.459715C227.551 0.153238 227.973 0 228.509 0H262.189ZM258.626 35.0532C261.461 35.0532 263.722 34.3253 265.408 32.8696C267.17 31.3372 268.051 29.3451 268.051 26.8933C268.051 24.3649 267.17 22.3344 265.408 20.8021C263.722 19.2697 261.461 18.5035 258.626 18.5035H248.97C248.587 18.5035 248.395 18.695 248.395 19.0781V34.4786C248.395 34.8617 248.587 35.0532 248.97 35.0532H258.626Z" fill="white"/>
</svg>
