<svg width="36" height="23" viewBox="0 0 36 23" fill="none" xmlns="http://www.w3.org/2000/svg">
<path d="M32.6659 3.76739H22.522V0.869141H32.6659V3.76739ZM35.1671 18.2586C34.5266 20.1381 32.2268 22.606 27.7751 22.606C23.3205 22.606 19.7122 20.1005 19.7122 14.3822C19.7122 8.71615 23.0814 5.80341 27.6331 5.80341C32.0993 5.80341 34.8265 8.38575 35.4221 12.2172C35.5352 12.9505 35.5801 13.9388 35.5598 15.3184H23.9277C24.1161 19.9715 28.975 20.1179 30.5763 18.2586H35.1671ZM24.0291 12.4621H31.224C31.0719 10.2203 29.5778 9.24653 27.6345 9.24653C25.5101 9.24653 24.3349 10.3595 24.0291 12.4621ZM10.1552 22.5886H0.785156V0.899572H10.8609C18.7963 1.01695 18.947 8.78861 14.8025 10.9072C19.818 12.7331 19.9861 22.5886 10.1552 22.5886ZM5.13253 9.56389H10.3262C13.9606 9.56389 14.5373 5.21651 9.87406 5.21651H5.13253V9.56389ZM10.0465 13.9113H5.13253V18.2818H9.97405C14.4011 18.2818 14.1301 13.9113 10.0465 13.9113Z" fill="#FFCB77"/>
</svg>
