<svg width="38" height="561" viewBox="0 0 38 561" fill="none" xmlns="http://www.w3.org/2000/svg">
<path d="M0.142495 416.12C-0.31323 392.372 2.94978 368.702 9.81302 345.961C16.2388 324.824 19.2739 302.799 18.8091 280.714C19.2694 258.657 16.2342 236.668 9.81303 215.568C2.94979 192.841 -0.313221 169.184 0.142507 145.455C-0.313219 121.711 2.94979 98.0409 9.81304 75.3047C16.2342 54.1909 19.2694 32.1884 18.8091 10.1221C18.8091 4.96783 22.9881 0.788818 28.1424 0.788818C33.2966 0.788818 37.4757 4.96783 37.4757 10.1221C37.9314 33.8609 34.6684 57.5314 27.8051 80.263C21.3839 101.381 18.3442 123.384 18.8091 145.455C18.3488 167.507 21.3839 189.496 27.8051 210.601C34.6638 233.323 37.9268 256.98 37.4757 280.714C37.9268 304.462 34.6684 328.137 27.8051 350.878C21.3794 372.015 18.3442 394.036 18.8091 416.12C18.3442 438.191 21.3839 460.198 27.8051 481.321C34.6638 504.053 37.9268 527.714 37.4756 551.453C37.4756 556.607 33.2966 560.786 28.1424 560.786C22.9881 560.786 18.8091 556.607 18.8091 551.453C19.2693 529.382 16.2342 507.375 9.81302 486.252C2.95433 463.52 -0.308674 439.859 0.142495 416.12Z" fill="#FFCB77"/>
</svg>
