<svg width="77" height="119" viewBox="0 0 77 119" fill="none" xmlns="http://www.w3.org/2000/svg">
<path fill-rule="evenodd" clip-rule="evenodd" d="M47.2037 10.5283H66.0435V30.3675C64.1384 22.8848 58.8447 13.8415 47.2037 10.5283ZM27.3929 10.5283H10.1914V28.4866C12.0406 21.4307 16.8984 13.568 27.3929 10.5283ZM10.1914 50.9229V55.2402H15.9297C19.4876 75.1941 34.8657 77.0007 42.11 75.4097C57.5604 71.9617 59.502 57.5085 58.5181 50.9229H42.11V64.7184C29.0616 65.6901 20.8698 61.2258 15.9297 55.2402C14.7952 53.8655 13.8322 52.4106 13.0212 50.9229H10.1914ZM10.1914 63.0308V81.3864H26.7243C16.8594 78.0216 12.0909 70.1342 10.1914 63.0308ZM48.4606 81.3864H66.0435V59.4096C64.6602 72.3069 55.9817 78.7397 48.4606 81.3864ZM66.0435 51.9179V50.9229H65.9056C65.9371 51.0992 65.9675 51.2768 65.9965 51.4557C66.0131 51.6105 66.0287 51.7645 66.0435 51.9179ZM66.0435 41.7702V36.5489H59.2148C60.5803 38.0586 61.8249 39.7899 62.8952 41.7702H66.0435ZM0.191406 0.52832H10.1914H66.0435H76.0435V10.5283V81.3864V91.3864H66.0435H10.1914H0.191406V81.3864V10.5283V0.52832ZM33.8437 50.9229H22.9937C25.1653 53.8566 31.1137 55.7503 33.8437 56.3346V50.9229ZM42.11 41.671V35.2208C46.5581 35.2208 51.5696 39.521 53.5193 41.671H42.11ZM59.2137 36.5478C59.0045 29.9447 54.3209 16.6472 37.2587 16.2723C29.2017 16.8358 13.9267 22.9687 17.478 41.671H33.8437V27.2836C39.5562 26.52 51.3768 27.8848 59.2137 36.5478Z" fill="white"/>
<path d="M12.0332 114.092C11.4375 115.427 10.2049 117.317 8.15074 117.317H5.25429C4.08339 117.317 3.98068 116.578 3.96014 115.057V110.271H6.05544C7.63718 110.271 8.93134 111.319 8.93134 112.716H9.03405V107.744H8.93134C8.93134 109.141 7.63718 110.189 6.05544 110.189H3.96014V105.403C3.98068 103.883 4.08339 103.143 5.25429 103.143H7.55501C9.60923 103.143 10.8418 105.033 11.4375 106.368H11.5196L10.6774 103.04H1.51562V103.143C2.68653 103.143 2.80978 103.883 2.80978 105.403V115.057C2.80978 116.578 2.68653 117.317 1.51562 117.317V117.42H11.2731L12.1359 114.092H12.0332Z" fill="white"/>
<path d="M24.3906 114.092C23.7949 115.427 22.5623 117.317 20.5081 117.317H17.6117C16.4408 117.317 16.3381 116.578 16.3175 115.057V105.403C16.3381 103.883 16.4408 103.143 17.6117 103.143V103.04H13.873V103.143C15.0439 103.143 15.1672 103.883 15.1672 105.403V115.057C15.1672 116.578 15.0439 117.317 13.873 117.317V117.42H23.6305L24.4933 114.092H24.3906Z" fill="white"/>
<path d="M27.5704 105.731C27.5704 103.739 29.2754 102.958 30.6107 102.958C33.0963 102.958 34.5958 105.238 34.5958 107.477H34.6986V102.301H34.5958C34.5958 103.431 34.2877 103.636 33.5482 103.451C32.6443 103.205 31.7199 102.855 30.5696 102.855C28.3716 102.855 26.4817 103.841 26.4817 106.286C26.4817 110.805 34.1028 110.415 34.1028 114.544C34.1028 116.228 32.5416 117.523 30.6723 117.523C28.084 117.523 26.1325 114.893 26.1325 113.003H26.0298V118.159H26.1325C26.1325 116.783 27.1391 117.071 27.7759 117.214C28.4332 117.379 29.5425 117.625 30.6723 117.625C33.4455 117.625 35.3354 116.269 35.3354 113.989C35.3354 109.614 27.5704 109.655 27.5704 105.731Z" fill="white"/>
<path d="M47.5464 114.564C47.0123 113.25 43.1298 103.04 43.1298 103.04H43.0271C43.0271 103.04 39.1036 113.106 38.3846 114.893C37.7889 116.372 37.0083 116.927 35.8579 117.317V117.42H39.8842V117.317C38.3435 117.317 38.1381 115.838 38.7338 114.297C38.816 114.092 39.2268 113.065 39.7404 111.689H45.2867C45.9441 113.394 46.5193 114.852 46.7042 115.386C47.2793 116.886 46.8479 117.317 45.8619 117.317V117.42C45.8825 117.42 49.9498 117.42 49.9498 117.42V117.317C48.6557 117.317 48.101 115.879 47.5464 114.564ZM39.7815 111.606C40.6442 109.408 41.8151 106.389 42.5136 104.581C42.7806 105.238 44.1364 108.73 45.2457 111.606H39.7815Z" fill="white"/>
<path d="M60.448 103.04H51.2862V103.143C52.4571 103.143 52.5598 103.883 52.5803 105.403V115.057C52.5598 116.578 52.4571 117.317 51.2862 117.317V117.42H55.0043V117.317C53.8334 117.317 53.7307 116.578 53.7101 115.057V110.271H55.8054C57.4077 110.271 58.7019 111.319 58.7019 112.716H58.8046V107.744H58.7019C58.7019 109.141 57.4077 110.189 55.8054 110.189H53.7101V105.403C53.7307 103.883 53.8334 103.143 55.0043 103.143H57.305C59.3592 103.143 60.5918 105.033 61.1875 106.368H61.2902L60.448 103.04Z" fill="white"/>
<path d="M73.3386 114.092C72.7429 115.427 71.5104 117.317 69.4562 117.317H66.5597C65.3888 117.317 65.2861 116.578 65.2656 115.057V110.271H67.3609C68.9426 110.271 70.2368 111.319 70.2368 112.716H70.3395V107.744H70.2368C70.2368 109.141 68.9426 110.189 67.3609 110.189H65.2656V105.403C65.2861 103.883 65.3888 103.143 66.5597 103.143H68.8605C70.9147 103.143 72.1472 105.033 72.7429 106.368H72.8251L71.9829 103.04H62.8211V103.143C63.992 103.143 64.1152 103.883 64.1152 105.403V115.057C64.1152 116.578 63.992 117.317 62.8211 117.317V117.42H72.5786L73.4414 114.092H73.3386Z" fill="white"/>
</svg>
