<svg width="90" height="90" viewBox="0 0 90 90" fill="none" xmlns="http://www.w3.org/2000/svg">
<path fill-rule="evenodd" clip-rule="evenodd" d="M45.0019 67.4612C57.4066 67.4612 67.4627 57.4052 67.4627 45.0004C67.4627 32.5956 57.4066 22.5396 45.0019 22.5396C32.5971 22.5396 22.541 32.5956 22.541 45.0004C22.541 57.4052 32.5971 67.4612 45.0019 67.4612ZM40.1279 49.9195H25.6959C27.4901 56.9826 33.0584 62.5396 40.1279 64.3177V49.9195ZM40.1279 40.0813H25.6959C27.4901 33.0182 33.0584 27.4611 40.1279 25.683V40.0813ZM49.8758 25.683V40.0813H64.3078C62.5136 33.0182 56.9453 27.4611 49.8758 25.683ZM49.8758 64.3177V49.9195L64.3078 49.9195C62.5136 56.9826 56.9453 62.5396 49.8758 64.3177Z" fill="white"/>
<path d="M55.6214 53.3088C55.5488 56.9845 53.1751 58.3144 50.6557 58.1912C48.1363 58.0685 46.3839 57.1045 44.5945 57.1045L44.5212 57.1382C42.7318 57.1382 40.9795 58.1361 38.46 58.2588C35.9405 58.3815 33.567 57.1186 33.4944 53.443C33.6404 50.0683 36.7559 49.8201 39.4096 45.8336C41.7462 42.3231 44.5213 42.6072 44.5213 42.6072H44.5945C44.5945 42.6072 47.3935 42.3384 49.7063 45.8336C52.3472 49.8256 55.4753 49.934 55.6214 53.3088ZM40.0219 41.0928C42.2535 40.9532 43.8704 38.7466 43.6331 36.1643C43.3958 33.5819 41.3943 31.6017 39.1627 31.7413C36.9311 31.881 35.3142 34.0876 35.5515 36.6699C35.7888 39.2522 37.7902 41.2325 40.0219 41.0928ZM48.4802 41.1377C50.661 41.6282 53.1047 39.9803 53.9383 37.4569C54.7717 34.9335 53.6795 32.4902 51.4988 31.9996C49.318 31.5091 46.8742 33.157 46.0407 35.6804C45.2072 38.2037 46.2993 40.6471 48.4802 41.1377ZM58.5838 39.1173C56.6847 38.69 54.5566 40.125 53.8308 42.3224C53.105 44.5199 54.0561 46.6475 55.9551 47.0747C57.8543 47.5019 59.9823 46.0669 60.7082 43.8695C61.4341 41.6721 60.483 39.5444 58.5838 39.1173ZM36.1718 42.3223C35.4459 40.1249 33.318 38.6899 31.4188 39.1171C29.5197 39.5443 28.5685 41.672 29.2944 43.8693C30.0203 46.0667 32.1483 47.5017 34.0475 47.0745C35.9466 46.6474 36.8977 44.5197 36.1718 42.3223Z" fill="#FFCB77"/>
<circle cx="45.0012" cy="45.0002" r="40.3859" stroke="#FFCB77"/>
<circle cx="45" cy="45" r="44" stroke="white" stroke-width="2"/>
</svg>
