<svg width="139" height="118" viewBox="0 0 139 118" fill="none" xmlns="http://www.w3.org/2000/svg">
<path d="M110.868 2.67684C118.162 2.67684 125.142 5.07322 130.977 9.65761L131.498 10.0744V6.84446C125.455 2.46846 118.37 0.17627 110.972 0.17627C91.1762 0.17627 75.0266 16.8468 75.0266 37.2681C75.0266 57.6894 91.1762 74.3599 110.972 74.3599C118.37 74.3599 125.559 71.9635 131.602 67.6917V64.4618C125.767 69.1504 118.578 71.7552 111.077 71.7552C92.6348 71.7552 77.6314 56.2308 77.6314 37.1639C77.6314 18.097 92.6348 2.57265 111.077 2.57265L110.868 2.67684Z" fill="white"/>
<path d="M79.6027 0.593032L79.3943 0.17627H77.1021L46.1575 74.3599H48.9706L60.9525 45.395H95.3354L107.422 74.3599H110.235L79.6027 0.593032ZM60.9525 45.395L78.144 4.13551L95.3354 45.395H60.9525Z" fill="white"/>
<path d="M38.8944 0.593032L38.686 0.17627H36.3938L5.44922 74.3599H8.26236L20.2443 45.395H54.6272L66.7133 74.3599H69.5264L38.8944 0.593032ZM20.2443 45.395L37.4357 4.13551L54.6272 45.395H20.2443Z" fill="white"/>
<path d="M29.8723 95.9025H25.4337V109.697H23.5166V95.9025H19.0781V94.2771H29.8723V95.9025Z" fill="white"/>
<path d="M52.5858 109.697H50.0852L44.2922 101.8V109.697H42.3543V94.2771L48.0639 94.3188C49.1614 94.3188 50.0574 94.7356 50.7521 95.5691C51.4605 96.4026 51.8148 97.3681 51.8148 98.4656C51.8148 99.049 51.7106 99.5908 51.5022 100.091C51.3077 100.591 50.9813 101.049 50.5228 101.466C50.0088 101.883 49.4462 102.182 48.8349 102.362H46.7928L52.5858 109.697ZM48.3557 96.1109C48.1751 96.0414 47.9806 95.9858 47.7722 95.9442C47.5777 95.8886 47.3971 95.8608 47.2304 95.8608H44.2922V101.029H47.7305C48.3973 101.029 48.9114 100.799 49.2725 100.341C49.6476 99.8687 49.8352 99.2991 49.8352 98.6323C49.8352 98.0766 49.7101 97.5695 49.4601 97.1111C49.21 96.6527 48.8419 96.3192 48.3557 96.1109Z" fill="white"/>
<path d="M75.4244 109.697H73.2572L71.2776 104.905H65.1512L63.1716 109.697H61.1711L67.9435 93.8604H68.4436L75.4244 109.697ZM70.6733 103.508L68.1102 96.8819L65.6096 103.508H70.6733Z" fill="white"/>
<path d="M93.8661 108.843C93.3243 109.107 92.7825 109.315 92.2407 109.468C91.6989 109.621 91.1641 109.697 90.6362 109.697H84.8015V94.2771H91.3655C93.3243 94.4716 94.8733 95.3399 96.0124 96.8819C97.1516 98.41 97.7211 100.16 97.7211 102.133C97.7211 103.592 97.4016 104.918 96.7626 106.113C96.1236 107.308 95.1581 108.218 93.8661 108.843ZM95.679 100.987C95.5679 99.7784 95.0955 98.7087 94.262 97.7779C93.4424 96.8471 92.4352 96.2498 91.2405 95.9858H86.6144V108.03H90.5945C92.1643 108.03 93.4146 107.405 94.3454 106.155C95.2761 104.905 95.7415 103.481 95.7415 101.883C95.7415 101.577 95.7207 101.279 95.679 100.987Z" fill="white"/>
<path d="M116.475 109.697H108.099V94.2771H116.475V95.9442H109.995V100.508H116.475V102.091H109.953V108.03H116.475V109.697Z" fill="white"/>
<path d="M137.868 87.4209V116.807H1.18555V87.4209H137.868Z" stroke="white" stroke-width="2"/>
</svg>
