<svg width="1029" height="676" viewBox="0 0 1029 676" fill="none" xmlns="http://www.w3.org/2000/svg">
<path d="M627.922 223.381C627.634 223.347 627.321 223.327 626.99 223.324C627.667 227.411 631.296 235.013 640.406 232.721C642.007 229.277 643.768 222.478 638.006 222.833C633.848 223.149 630.334 223.319 627.922 223.381Z" fill="#FFCB77"/>
<path d="M559.937 225.179C561.026 228.444 565.018 234.465 572.272 232.434C573.747 228.637 573.344 221.871 559.937 225.179Z" fill="#FFCB77"/>
<path d="M1.12305 661.035C73.9739 648.348 236.865 629.111 305.624 653.668C374.383 678.225 382.824 690.538 406.821 639.065C430.817 587.591 403.118 520.579 453.897 468.213C504.677 415.847 461.832 298.949 570.267 283.08C562.332 268.269 546.041 234.945 544.348 220.134C539.764 216.079 530.278 201.092 529.008 173.587C507.019 177.252 482.08 168.677 499.671 123.21M592.483 307.411C604.754 331.531 621.222 334.035 627.922 332.272C650.773 341.581 670.944 319.577 678.173 307.411C703.247 296.754 716.992 273.097 724.031 252.177M603.062 227.01C615.757 220.839 647.811 209.449 674.47 213.258M544.348 216.196C549.931 217.203 559.32 219.605 567.938 223.381C568.722 223.724 569.499 224.079 570.267 224.445M584.454 234.614C583.741 233.716 582.927 232.85 582.029 232.015M637.364 270.781C647.715 275.804 670.367 286.051 678.173 286.855M685.586 156.924C705.684 178.021 731.597 234.882 674.47 293.552M589.414 286.855C590.743 276.614 596.723 255.021 589.414 239.075M589.414 286.855C586.178 285.252 579.237 282.832 577.367 285.975M589.414 286.855C589.07 289.507 590.266 291.773 592.278 293.665C595.607 296.798 601.168 298.909 605.672 300.063M629.327 286.855C626.594 287.135 622.498 288.055 618.671 289.904M618.671 289.904C631.681 287.75 626.19 293.552 657.559 289.904C673.846 288.01 667.971 300.773 674.47 312.898C669.123 312.898 662.659 296.239 662.659 296.239C662.659 296.239 646.399 300.773 609.74 298.269M618.671 289.904C614.929 291.713 611.444 294.41 609.74 298.269M507.647 105.73C510.041 115.28 514.263 126.078 520.466 135.654M507.647 105.73C505.868 109.17 504.28 112.452 502.872 115.58M507.647 105.73C510.027 101.127 512.75 96.2399 515.843 91.053M520.466 135.654C511.747 129.856 506.125 122.506 502.872 115.58M520.466 135.654C535.688 145.776 560.349 151.169 598.329 141.32M520.466 135.654C534.957 158.025 560.26 173.728 598.329 151.276M629.327 126.771C618.175 137.656 607.853 145.66 598.329 151.276M499.671 123.21C493.924 139.941 494.813 172.41 544.348 168.441M499.671 123.21C500.272 121.657 500.922 120.061 501.624 118.422M501.624 118.422C502.023 117.489 502.439 116.542 502.872 115.58M501.624 118.422C502.544 134.433 514.839 166.358 556.659 165.961M502.872 115.58C501.24 112.107 500.204 108.741 499.671 105.73M661.828 22.8348C642.418 44.7131 594.322 83.5083 552.179 70.5091M552.179 70.5091C550.521 69.9975 548.871 69.4056 547.233 68.7294M552.179 70.5091C547.119 64.1581 544.15 56.9994 542.854 51.0449M552.179 70.5091C563.793 85.0841 586.42 95.4062 625.118 77.1627M647.938 118.422C659.843 119.055 686.731 126.473 699.034 151.079M709.451 126.771C709.813 121.089 708.752 108.696 703.308 94.5412M703.308 94.5412C701.148 88.9227 698.296 83.0267 694.569 77.1627M703.308 94.5412C690.305 80.8522 676.925 77.1042 670.757 77.1627M703.308 94.5412C706.928 98.3516 710.518 102.932 713.916 108.416M694.569 34.0038C699.034 39.1299 709.154 57.7164 713.916 91.053M515.843 91.053C518.7 112.384 535.327 150.979 578.982 134.708M515.843 91.053C516.801 89.4465 517.794 87.8113 518.823 86.147M515.843 77.1627C516.433 79.8032 517.41 82.8652 518.823 86.147M518.823 86.147C526.262 103.417 545.779 126.771 584.454 126.771M518.823 86.147C521.482 81.8497 524.382 77.3581 527.538 72.6644M524.91 68.7294C525.692 70.009 526.569 71.3264 527.538 72.6644M527.538 72.6644C543.228 94.3317 583.049 121.396 637.364 80.6353M527.538 72.6644C532.095 65.8868 537.186 58.688 542.854 51.0449M542.854 51.0449C548.57 43.3357 554.872 35.1746 561.803 26.5379C580.317 8.55343 631.202 -17.3655 686.636 22.8348C701.799 19.8375 731.809 39.3382 730.539 141.32C738.121 136.56 752.332 136.349 748.523 173.587C744.367 214.227 733.759 205.272 731.134 213.258M678.173 51.0449C669.417 58.7587 646.548 73.0949 625.118 68.7294M575.014 40.4524C585.764 39.4602 611.728 34.4995 629.585 22.5937C647.443 10.6879 662.16 11.0187 667.286 12.6723M639.505 123.298C618.339 124.456 573.922 123.2 565.589 108.913M660.837 25.0747C636.364 40.7839 582.456 68.2337 562.613 52.3591M671.75 96.5101C683.822 99.1558 708.758 111.69 711.933 140.661M660.837 89.5649C650.419 99.3212 620.357 117.445 583.448 111.889M625.119 147.606C627.434 169.599 621.549 211.204 579.48 201.679M571.542 188.285C582.787 191.096 606.168 188.781 609.74 157.032M598.329 151.276C595.849 162.124 585.828 184.713 565.589 188.285M565.589 34.0038C576.338 25.4509 602.004 9.21053 618.671 12.6723C635.338 16.1342 645.127 10.477 647.938 7.21576M720.862 144.63C717.653 157.494 713.961 186.524 720.862 201.679C727.517 216.293 726.184 241.496 724.031 252.177M724.031 252.177C728.871 237.791 730.539 224.699 730.539 218.018C730.539 215.937 730.752 214.418 731.134 213.258M730.539 161.525C732.022 158.062 734.063 153.982 736.104 151.079M736.104 151.079C739.741 145.905 743.38 144.47 743.869 156.924C743.67 152.446 741.84 145.009 736.104 151.079ZM670.757 218.018C660.08 220.658 647.399 222.118 638.006 222.833M625.119 232.721C632.662 234.298 649.71 234.639 657.559 223.381M616.785 234.614C617.088 225.437 623.224 223.289 626.99 223.324M552.179 227.01C556.588 225.3 566.376 222.392 570.267 224.445M570.267 224.445C574.751 226.583 578.9 229.107 582.029 232.015M558.957 231.248C562.608 233.172 572.473 235.757 582.029 232.015M626.99 223.324C627.321 223.327 627.634 223.347 627.922 223.381C630.334 223.319 633.848 223.149 638.006 222.833M626.99 223.324C627.667 227.411 631.296 235.013 640.406 232.721C642.007 229.277 643.768 222.478 638.006 222.833M609.74 298.269C609.393 299.055 609.12 299.889 608.934 300.773C607.959 300.601 606.852 300.365 605.672 300.063M605.672 300.063C607.059 304.725 612.889 312.721 625.119 307.411C629.611 309.838 639.844 311.908 643.722 300.773M595.786 300.773C600.358 310.401 613.187 329.026 627.922 326.509C646.342 323.361 643.391 335.892 665.816 312.898M441.918 511.106C452.74 512.354 476.13 519.472 483.123 537.951M453.897 496.747C463.431 499.452 485.245 509.358 496.233 527.338M463.418 483.636C473.732 486.966 495.983 496.122 502.476 506.111M826.493 537.951C823.163 513.603 823.746 458.539 852.714 433.067C881.682 407.595 832.32 541.905 804.018 612.244M835.233 406.846C811.509 437.229 766.309 519.222 775.299 604.128M529.946 561.051C538.919 552.457 572.965 558.949 637.364 653.668M520.466 502.365C516.716 488.403 516.242 444.507 544.348 380.625M520.466 349.41C509.059 378.96 490.614 446.427 508.095 479.89M670.757 332.272C703.107 332.169 774.55 321.469 801.52 279.487M801.52 279.487C786.438 270.416 754.724 250.318 748.523 242.497C740.773 232.721 749.138 226.741 746.031 213.258C741.264 214.357 731.61 215.896 731.134 213.258M801.52 279.487C842.954 303.507 928.367 361.4 938.552 400.813C951.283 450.078 972.481 417.105 954.284 519.849C955.431 556.714 980.885 625.18 1073.53 604.128C1189.33 577.813 1307.39 661.679 1106.76 653.668C946.257 647.259 1265.15 573.853 1444.66 537.951M515.3 406.846C521.094 376.993 541.619 316.408 577.367 312.898M685.586 619.493C657.418 591.172 602.653 543.572 608.934 579.744C616.785 624.96 672.46 585.303 685.586 645.657M490.733 565.769C498.804 549.295 522.391 509.054 552.179 479.89C581.967 450.727 586.108 407.271 584.454 389.188M559.937 225.179C561.026 228.444 565.018 234.465 572.272 232.434C573.746 228.637 573.344 221.871 559.937 225.179Z" stroke="white" stroke-opacity="0.9" stroke-width="2"/>
</svg>
