<svg width="169" height="8" viewBox="0 0 169 8" fill="none" xmlns="http://www.w3.org/2000/svg">
<path d="M125.099 7.7372C117.991 7.82317 110.906 7.20762 104.1 5.91289C97.7736 4.70069 91.1814 4.12812 84.5714 4.21582C77.9697 4.12898 71.3884 4.70155 65.073 5.91289C58.2708 7.20762 51.1902 7.82317 44.0879 7.7372C36.9815 7.82317 29.8968 7.20762 23.0918 5.91289C16.7724 4.70155 10.187 4.12898 3.58254 4.21582C2.03985 4.21582 0.789063 3.42746 0.789063 2.45512C0.789063 1.48279 2.03985 0.69443 3.58254 0.69443C10.6876 0.608459 17.7722 1.22401 24.5759 2.51874C30.8966 3.73008 37.482 4.30351 44.0879 4.21582C50.6883 4.30265 57.2696 3.73008 63.5863 2.51874C70.3872 1.22487 77.4677 0.609319 84.5714 0.69443C91.6792 0.609319 98.7652 1.22401 105.572 2.51874C111.898 3.73094 118.489 4.30351 125.099 4.21582C131.704 4.30351 138.291 3.73008 144.613 2.51874C151.417 1.22487 158.499 0.609319 165.604 0.69443C167.147 0.69443 168.397 1.48279 168.397 2.45512C168.397 3.42746 167.147 4.21582 165.604 4.21582C158.998 4.12898 152.411 4.70155 146.089 5.91289C139.286 7.20676 132.204 7.82231 125.099 7.7372Z" fill="#FFCB77"/>
</svg>
