<svg width="65" height="54" viewBox="0 0 65 54" fill="none" xmlns="http://www.w3.org/2000/svg">
<path d="M25.9302 40.3519C25.331 32.8047 15.3934 30.3181 11.3312 36.7808C8.69669 35.2913 5.33677 37.0434 5.12592 40.1231C2.23768 40.4767 0 42.9365 0 45.9206C0 49.1479 2.61652 51.7641 5.84348 51.7641H24.1578C27.3847 51.7641 30.0016 49.1479 30.0016 45.9206C30.0013 43.3119 28.291 41.1031 25.9302 40.3519Z" fill="#FFCB77"/>
<path d="M64.2895 26.6135C64.2895 41.3118 52.3742 53.227 37.676 53.227C34.9441 53.227 32.3084 52.8154 29.8275 52.0508C31.7736 50.7697 33.0584 48.5657 33.0584 46.0617C33.0579 42.8629 30.9608 40.1544 28.066 39.2333C27.4024 30.8756 17.3996 27.5788 11.7985 32.8554C11.3173 30.8534 11.0625 28.7632 11.0625 26.6135C11.0625 11.9153 22.9778 0 37.676 0C41.1803 0 44.5263 0.677273 47.5904 1.90807C46.8107 1.79981 46.0144 1.74387 45.2049 1.74387C35.7117 1.74387 28.0159 9.43961 28.0159 18.9328C28.0159 28.426 35.7117 36.1218 45.2049 36.1218C54.6981 36.1218 62.3938 28.426 62.3938 18.9328C62.3938 18.0064 62.3204 17.097 62.1794 16.2103C63.5378 19.4061 64.2895 22.922 64.2895 26.6135Z" fill="white"/>
</svg>
