<svg width="212" height="48" viewBox="0 0 212 48" fill="none" xmlns="http://www.w3.org/2000/svg">
<path d="M23.4516 35.831C22.9253 29.2024 14.1974 27.0185 10.6297 32.6946C8.31582 31.3864 5.36488 32.9252 5.1797 35.63C2.64303 35.9406 0.677734 38.1009 0.677734 40.7218C0.677734 43.5563 2.97576 45.854 5.80991 45.854H21.8949C24.729 45.854 27.0274 43.5563 27.0274 40.7218C27.0271 38.4307 25.525 36.4908 23.4516 35.831Z" fill="white"/>
<path d="M57.1405 23.7648C57.1405 36.6739 46.6756 47.1388 33.7665 47.1388C31.3672 47.1388 29.0523 46.7773 26.8734 46.1058C28.5826 44.9806 29.711 43.0449 29.711 40.8456C29.7105 38.0362 27.8688 35.6575 25.3263 34.8485C24.7435 27.5081 15.9583 24.6127 11.039 29.2469C10.6164 27.4886 10.3926 25.6529 10.3926 23.7648C10.3926 10.8557 20.8575 0.390869 33.7665 0.390869C36.8443 0.390869 39.783 0.9857 42.4741 2.06668C41.7893 1.9716 41.09 1.92246 40.379 1.92246C32.0413 1.92246 25.2823 8.68143 25.2823 17.0191C25.2823 25.3567 32.0413 32.1157 40.379 32.1157C48.7166 32.1157 55.4755 25.3567 55.4755 17.0191C55.4755 16.2054 55.4111 15.4067 55.2872 14.628C56.4803 17.4347 57.1405 20.5227 57.1405 23.7648Z" fill="#FFCB77"/>
<path d="M75.7981 35.4684H75.1504V30.4042H75.8865C76.652 33.1719 78.0456 34.5557 80.0674 34.5557C80.8525 34.5557 81.4708 34.3692 81.9223 33.9963C82.3934 33.6037 82.6289 33.0148 82.6289 32.2297C82.6289 31.9352 82.5799 31.6899 82.4817 31.4936C82.4032 31.2777 82.2364 31.0618 81.9812 30.8459C81.7456 30.6103 81.4021 30.3453 80.9507 30.0509C80.5188 29.7565 79.9398 29.3835 79.2135 28.9321C78.5462 28.5198 77.9671 28.1371 77.4764 27.7838C76.9857 27.4305 76.5735 27.0771 76.2398 26.7238C75.9061 26.3509 75.6509 25.9583 75.4743 25.5461C75.3172 25.1339 75.2387 24.653 75.2387 24.1034C75.2387 23.436 75.3467 22.8275 75.5626 22.2779C75.7981 21.7087 76.1122 21.2278 76.5048 20.8352C76.8973 20.4426 77.3586 20.1384 77.8886 19.9225C78.4186 19.6869 78.9976 19.5691 79.6257 19.5691C80.1557 19.5691 80.7053 19.6575 81.2746 19.8341C81.8438 19.9912 82.3443 20.2071 82.7762 20.4819L83.365 19.8636H83.9244V24.1034H83.1589C82.7271 22.906 82.256 22.0522 81.7456 21.5418C81.2353 21.0315 80.6072 20.7763 79.8613 20.7763C79.1939 20.7763 78.6541 20.953 78.2419 21.3063C77.8493 21.6596 77.6531 22.1503 77.6531 22.7784C77.6531 23.1121 77.7021 23.4066 77.8003 23.6617C77.918 23.8973 78.0947 24.1328 78.3302 24.3684C78.5658 24.6039 78.8602 24.8493 79.2135 25.1044C79.5865 25.34 80.0281 25.6148 80.5385 25.9289C81.3825 26.4588 82.099 26.9299 82.6878 27.3421C83.2963 27.7543 83.787 28.1665 84.16 28.5787C84.5329 28.9713 84.8077 29.3835 84.9844 29.8153C85.161 30.2472 85.2494 30.7379 85.2494 31.2875C85.2494 32.6811 84.7979 33.7803 83.895 34.5851C82.9921 35.3703 81.8045 35.7628 80.3324 35.7628C78.8013 35.7628 77.4862 35.3212 76.387 34.4379L75.7981 35.4684Z" fill="white"/>
<path d="M94.6489 35.7628H93.5595L89.7319 23.5145C89.5552 22.9649 89.3884 22.5233 89.2313 22.1896C89.0743 21.8559 88.8878 21.5909 88.6719 21.3946C88.456 21.1983 88.2008 21.0707 87.9064 21.0119C87.612 20.9333 87.2488 20.8941 86.817 20.8941V19.8636H94.6194V20.8941C93.8539 20.8941 93.3141 20.9824 93 21.1591C92.686 21.3357 92.5289 21.64 92.5289 22.0718C92.5289 22.2681 92.5584 22.5036 92.6173 22.7784C92.6762 23.0336 92.7547 23.3575 92.8528 23.7501L94.855 30.787H94.9727L99.3009 19.8636H100.214L104.13 30.787H104.247L106.014 26.0172C106.249 25.3694 106.446 24.8296 106.603 24.3978C106.76 23.9464 106.878 23.5734 106.956 23.279C107.054 22.9649 107.123 22.7097 107.162 22.5135C107.201 22.3172 107.221 22.1307 107.221 21.954C107.221 21.5222 107.093 21.2376 106.838 21.1002C106.583 20.9628 106.053 20.8941 105.248 20.8941V19.8636H111.137V20.8941C110.843 20.8941 110.587 20.9432 110.371 21.0413C110.175 21.1198 109.969 21.2867 109.753 21.5418C109.557 21.797 109.351 22.1601 109.135 22.6312C108.919 23.1023 108.654 23.7206 108.34 24.4861L103.776 35.7628H102.687L99.0948 24.8983H98.977L94.6489 35.7628Z" fill="white"/>
<path d="M118.249 30.787C118.249 31.5525 118.279 32.1708 118.338 32.6419C118.416 33.0933 118.554 33.4565 118.75 33.7313C118.946 33.9864 119.221 34.1631 119.574 34.2613C119.928 34.3594 120.399 34.4183 120.988 34.4379V35.4684H112.537V34.4379C113.126 34.4183 113.607 34.3594 113.98 34.2613C114.353 34.1435 114.638 33.9668 114.834 33.7313C115.05 33.4761 115.187 33.1326 115.246 32.7008C115.325 32.2493 115.364 31.6801 115.364 30.9931V27.2244C115.364 26.0859 115.344 25.1535 115.305 24.4273C115.285 23.6814 115.236 23.171 115.158 22.8962C115.06 22.4448 114.834 22.1405 114.481 21.9835C114.127 21.8068 113.46 21.7185 112.478 21.7185V20.688L118.249 19.5691V30.787ZM114.863 13.5922C114.863 13.0818 115.04 12.65 115.393 12.2967C115.747 11.9434 116.179 11.7667 116.689 11.7667C117.199 11.7667 117.631 11.9434 117.984 12.2967C118.338 12.65 118.514 13.0818 118.514 13.5922C118.514 14.1025 118.338 14.5344 117.984 14.8877C117.631 15.241 117.199 15.4177 116.689 15.4177C116.179 15.4177 115.747 15.241 115.393 14.8877C115.04 14.5344 114.863 14.1025 114.863 13.5922Z" fill="white"/>
<path d="M136.94 32.7302C135.272 34.752 133.201 35.7628 130.728 35.7628C129.57 35.7628 128.52 35.5764 127.578 35.2034C126.635 34.8109 125.821 34.2711 125.134 33.5841C124.466 32.8774 123.946 32.0432 123.573 31.0814C123.2 30.1 123.014 29.0204 123.014 27.8427C123.014 26.6453 123.21 25.5363 123.603 24.5156C123.995 23.4949 124.545 22.6214 125.251 21.8952C125.978 21.1689 126.832 20.5997 127.813 20.1874C128.814 19.7752 129.904 19.5691 131.081 19.5691C132.985 19.5691 134.457 20.0893 135.498 21.1296C136.538 22.1503 137.058 23.6225 137.058 25.5461C137.058 25.8209 136.999 25.9877 136.882 26.0466C136.783 26.1055 136.538 26.135 136.145 26.135H126.459C126.419 26.292 126.39 26.4883 126.37 26.7238C126.351 26.9397 126.341 27.1851 126.341 27.4599C126.341 28.4806 126.459 29.413 126.694 30.257C126.949 31.0814 127.303 31.788 127.754 32.3769C128.225 32.9658 128.775 33.427 129.403 33.7607C130.051 34.0748 130.767 34.2318 131.552 34.2318C132.377 34.2318 133.142 34.0551 133.849 33.7018C134.556 33.3289 135.282 32.7302 136.028 31.9058L136.94 32.7302ZM132.082 24.7806C132.475 24.7806 132.789 24.7708 133.024 24.7511C133.26 24.7315 133.437 24.6922 133.554 24.6334C133.672 24.5745 133.751 24.496 133.79 24.3978C133.829 24.28 133.849 24.1328 133.849 23.9562C133.849 23.0532 133.554 22.3368 132.966 21.8068C132.396 21.2572 131.611 20.9824 130.61 20.9824C128.49 20.9824 127.175 22.2485 126.665 24.7806H132.082Z" fill="white"/>
<path d="M139.627 21.7185V20.6291C140.667 20.0206 141.482 19.4121 142.071 18.8036C142.66 18.1951 143.111 17.4689 143.425 16.6248H144.279V20.3347H148.224V21.7185H144.279V30.6692C144.279 31.3562 144.308 31.9352 144.367 32.4063C144.446 32.8774 144.563 33.2602 144.721 33.5546C144.878 33.8294 145.084 34.0257 145.339 34.1435C145.594 34.2613 145.918 34.3201 146.31 34.3201C146.801 34.3201 147.213 34.222 147.547 34.0257C147.9 33.8098 148.244 33.4565 148.578 32.9658L149.314 33.5252C149.039 34.2514 148.558 34.8109 147.871 35.2034C147.204 35.5764 146.369 35.7628 145.368 35.7628C144.073 35.7628 143.082 35.4586 142.395 34.8501C141.727 34.222 141.393 33.3289 141.393 32.1708V21.7185H139.627Z" fill="white"/>
<path d="M159.146 19.5691C160.264 19.5691 161.324 19.7752 162.325 20.1874C163.326 20.58 164.2 21.1296 164.946 21.8363C165.711 22.5429 166.31 23.3869 166.742 24.3684C167.193 25.3302 167.419 26.3901 167.419 27.5482C167.419 28.7456 167.193 29.8448 166.742 30.8459C166.31 31.8469 165.711 32.7106 164.946 33.4368C164.2 34.1631 163.326 34.7323 162.325 35.1445C161.324 35.5567 160.264 35.7628 159.146 35.7628C158.046 35.7628 156.996 35.5666 155.995 35.174C155.014 34.7618 154.15 34.1926 153.404 33.4663C152.658 32.74 152.069 31.8764 151.638 30.8753C151.206 29.8546 150.99 28.7456 150.99 27.5482C150.99 26.3901 151.206 25.3204 151.638 24.3389C152.069 23.3575 152.658 22.5135 153.404 21.8068C154.15 21.1002 155.014 20.5506 155.995 20.158C156.996 19.7654 158.046 19.5691 159.146 19.5691ZM159.146 20.9824C158.419 20.9824 157.752 21.1394 157.143 21.4535C156.555 21.7676 156.044 22.219 155.612 22.8079C155.2 23.3771 154.876 24.0739 154.641 24.8983C154.425 25.7031 154.317 26.5962 154.317 27.5777C154.317 28.5984 154.425 29.5209 154.641 30.3453C154.876 31.1697 155.2 31.8764 155.612 32.4652C156.044 33.0345 156.555 33.4761 157.143 33.7902C157.732 34.1042 158.4 34.2613 159.146 34.2613C159.891 34.2613 160.569 34.1042 161.177 33.7902C161.786 33.4761 162.306 33.0246 162.738 32.4358C163.169 31.8469 163.503 31.1403 163.739 30.3159C163.974 29.4915 164.092 28.5787 164.092 27.5777C164.092 26.5962 163.974 25.7031 163.739 24.8983C163.503 24.0936 163.169 23.4066 162.738 22.8373C162.306 22.2485 161.786 21.797 161.177 21.4829C160.569 21.1493 159.891 20.9824 159.146 20.9824Z" fill="white"/>
<path d="M175.201 30.8459C175.201 31.6506 175.22 32.2886 175.26 32.7597C175.299 33.2111 175.397 33.5644 175.554 33.8196C175.731 34.0551 175.976 34.2122 176.29 34.2907C176.624 34.3692 177.075 34.4281 177.645 34.4674V35.4684H169.93V34.4674C170.48 34.4281 170.912 34.3692 171.226 34.2907C171.56 34.2122 171.815 34.0551 171.991 33.8196C172.168 33.5841 172.276 33.2504 172.315 32.8185C172.374 32.3867 172.404 31.7978 172.404 31.052V27.136C172.404 24.8002 172.345 23.3771 172.227 22.8668C172.168 22.6116 172.09 22.4055 171.991 22.2485C171.913 22.0718 171.785 21.9442 171.609 21.8657C171.432 21.7676 171.206 21.7087 170.932 21.689C170.657 21.6498 170.303 21.6302 169.872 21.6302V20.688L174.582 19.5691L174.936 22.484H175.054C175.799 21.5615 176.673 20.845 177.674 20.3347C178.675 19.8243 179.764 19.5691 180.942 19.5691C181.845 19.5691 182.67 19.7164 183.415 20.0108C184.161 20.3052 184.731 20.7076 185.123 21.218C185.457 21.6694 185.692 22.2583 185.83 22.9845C185.967 23.6912 186.036 24.6726 186.036 25.9289V30.8459C186.036 31.6506 186.055 32.2886 186.095 32.7597C186.154 33.2111 186.262 33.5644 186.419 33.8196C186.576 34.0551 186.811 34.2122 187.125 34.2907C187.459 34.3692 187.891 34.4281 188.421 34.4674V35.4684H180.795V34.4674C181.345 34.4477 181.776 34.3987 182.09 34.3201C182.424 34.222 182.67 34.0551 182.827 33.8196C183.003 33.5841 183.111 33.2504 183.15 32.8185C183.209 32.3671 183.239 31.7782 183.239 31.052V27.1655C183.239 26.0466 183.18 25.1044 183.062 24.3389C182.944 23.5734 182.748 22.9551 182.473 22.484C182.218 22.0129 181.875 21.6792 181.443 21.4829C181.011 21.267 180.491 21.1591 179.882 21.1591C178.999 21.1591 178.184 21.3946 177.438 21.8657C176.712 22.3172 176.143 22.9453 175.731 23.7501C175.633 23.9464 175.544 24.1328 175.466 24.3095C175.407 24.4861 175.358 24.6922 175.319 24.9278C175.279 25.1633 175.25 25.4381 175.23 25.7522C175.211 26.0466 175.201 26.4294 175.201 26.9005V30.8459Z" fill="white"/>
<path d="M204.51 32.7302C202.842 34.752 200.771 35.7628 198.298 35.7628C197.139 35.7628 196.089 35.5764 195.147 35.2034C194.205 34.8109 193.39 34.2711 192.703 33.5841C192.036 32.8774 191.516 32.0432 191.143 31.0814C190.77 30.1 190.583 29.0204 190.583 27.8427C190.583 26.6453 190.78 25.5363 191.172 24.5156C191.565 23.4949 192.114 22.6214 192.821 21.8952C193.547 21.1689 194.401 20.5997 195.383 20.1874C196.384 19.7752 197.473 19.5691 198.651 19.5691C200.555 19.5691 202.027 20.0893 203.067 21.1296C204.108 22.1503 204.628 23.6225 204.628 25.5461C204.628 25.8209 204.569 25.9877 204.451 26.0466C204.353 26.1055 204.108 26.135 203.715 26.135H194.028C193.989 26.292 193.96 26.4883 193.94 26.7238C193.92 26.9397 193.91 27.1851 193.91 27.4599C193.91 28.4806 194.028 29.413 194.264 30.257C194.519 31.0814 194.872 31.788 195.324 32.3769C195.795 32.9658 196.344 33.427 196.973 33.7607C197.62 34.0748 198.337 34.2318 199.122 34.2318C199.946 34.2318 200.712 34.0551 201.418 33.7018C202.125 33.3289 202.851 32.7302 203.597 31.9058L204.51 32.7302ZM199.652 24.7806C200.044 24.7806 200.359 24.7708 200.594 24.7511C200.83 24.7315 201.006 24.6922 201.124 24.6334C201.242 24.5745 201.32 24.496 201.36 24.3978C201.399 24.28 201.418 24.1328 201.418 23.9562C201.418 23.0532 201.124 22.3368 200.535 21.8068C199.966 21.2572 199.181 20.9824 198.18 20.9824C196.06 20.9824 194.745 22.2485 194.234 24.7806H199.652Z" fill="white"/>
<path d="M207.991 33.849C207.991 33.2994 208.178 32.8382 208.551 32.4652C208.924 32.0923 209.375 31.9058 209.905 31.9058C210.455 31.9058 210.916 32.0923 211.289 32.4652C211.662 32.8382 211.848 33.2994 211.848 33.849C211.848 34.379 211.662 34.8305 211.289 35.2034C210.916 35.5764 210.455 35.7628 209.905 35.7628C209.375 35.7628 208.924 35.5764 208.551 35.2034C208.178 34.8305 207.991 34.379 207.991 33.849Z" fill="white"/>
</svg>
