<svg width="222" height="115" viewBox="0 0 222 115" fill="none" xmlns="http://www.w3.org/2000/svg">
<path d="M16.9887 21.8395H0.0136719V13.791H43.4756V21.8395H26.5005V65.0087H16.9887V21.8395Z" fill="#E8EAEF"/>
<path d="M96.1246 13.791V65.0087H86.6127V43.0583H60.1259V65.0087H50.614V13.791H60.1259V34.9366H86.6127V13.791H96.1246Z" fill="#E8EAEF"/>
<path d="M148.262 57.0334V65.0087H109.849V13.791H147.238V21.7663H119.361V35.083H144.091V42.9119H119.361V57.0334H148.262Z" fill="#E8EAEF"/>
<path d="M14.9187 74.1335V88.5848H37.8509V96.048H14.9187V114.231H6.0986V66.7381H40.7683V74.1335H14.9187Z" fill="#E8EAEF"/>
<path d="M48.6195 66.7381H57.4396V106.768H82.2715V114.231H48.6195V66.7381Z" fill="#E8EAEF"/>
<path d="M88.5563 66.7381H97.3764V114.231H88.5563V66.7381Z" fill="#E8EAEF"/>
<path d="M145.163 106.836V114.231H109.544V66.7381H144.214V74.1335H118.364V86.4816H141.296V93.7412H118.364V106.836H145.163Z" fill="#E8EAEF"/>
<path d="M185.391 114.231L175.689 100.322C175.282 100.368 174.671 100.39 173.857 100.39H163.137V114.231H154.317V66.7381H173.857C177.973 66.7381 181.547 67.4166 184.577 68.7736C187.653 70.1305 190.005 72.0754 191.633 74.6084C193.261 77.1413 194.076 80.1492 194.076 83.632C194.076 87.2053 193.194 90.281 191.43 92.8592C189.711 95.4374 187.223 97.3597 183.966 98.6262L194.89 114.231H185.391ZM185.188 83.632C185.188 80.6015 184.193 78.2721 182.202 76.6438C180.212 75.0155 177.295 74.2013 173.45 74.2013H163.137V93.1306H173.45C177.295 93.1306 180.212 92.3164 182.202 90.6881C184.193 89.0145 185.188 86.6625 185.188 83.632Z" fill="#E8EAEF"/>
<path d="M218.689 21.412C216.714 17.7492 212.22 16.6027 208.724 18.8705L189.592 31.2843L156.928 8.99654L147.217 15.0179L172.02 42.6864L152.328 55.4633L143.032 51.1624L134.255 56.6047L147.165 65.7614L148.124 82.3289L156.901 76.8866L158.063 66.1012L178.213 54.1739L188.197 91.0299L197.908 85.0086L196.194 43.5296L215.771 31.9416C219.348 29.8245 220.664 25.0749 218.689 21.412Z" fill="#FFCB77"/>
</svg>
