<svg width="570" height="76" viewBox="0 0 570 76" fill="none" xmlns="http://www.w3.org/2000/svg">
<path d="M289.118 64.7986C279.526 64.7986 271.772 57.7641 271.772 46.413C271.772 35.7813 278.327 28.0274 289.118 28.0274C293.915 28.0274 298.231 30.0258 301.429 33.2233C301.748 33.4631 302.228 33.4631 302.548 33.2233L308.943 26.8283C309.263 26.5885 309.263 26.1089 308.943 25.8691C303.987 20.7531 296.952 17.6355 289.118 17.6355C272.651 17.6355 260.9 29.5462 260.9 46.413C260.9 63.9992 273.61 75.1905 289.118 75.1905C296.952 75.1905 303.987 72.0729 308.943 67.0369C309.263 66.7971 309.263 66.3174 308.943 66.0776L302.548 59.6027C302.228 59.3629 301.748 59.3629 301.429 59.6027C298.231 62.8002 293.915 64.7986 289.118 64.7986Z" fill="#FFCB77"/>
<path d="M351.097 18.4349C350.617 18.4349 350.297 18.7547 350.297 19.0744V41.1371H329.114V19.0744C329.114 18.7547 328.794 18.4349 328.314 18.4349H319.202C318.722 18.4349 318.402 18.7547 318.402 19.0744V73.7516C318.402 74.0714 318.722 74.3911 319.202 74.3911H328.314C328.794 74.3911 329.114 74.0714 329.114 73.7516V51.6089H350.297V73.7516C350.297 74.0714 350.617 74.3911 351.097 74.3911H360.21C360.689 74.3911 361.009 74.0714 361.009 73.7516V19.0744C361.009 18.7547 360.689 18.4349 360.21 18.4349H351.097Z" fill="#FFCB77"/>
<path d="M392.388 59.5227C403.979 59.5227 413.492 50.0901 413.492 38.5791C413.492 27.1481 403.979 17.6355 392.388 17.6355C380.797 17.6355 371.285 27.1481 371.285 38.5791C371.285 50.0901 380.797 59.5227 392.388 59.5227ZM392.388 27.9475C398.224 27.9475 402.86 32.6638 402.86 38.5791C402.86 44.5744 398.224 49.2108 392.388 49.2108C386.633 49.2108 381.916 44.5744 381.916 38.5791C381.916 32.6638 386.633 27.9475 392.388 27.9475ZM411.014 64.7187C411.014 64.3989 410.694 64.0792 410.214 64.0792H374.162C373.683 64.0792 373.363 64.3989 373.363 64.7187V73.7516C373.363 74.0714 373.683 74.3911 374.162 74.3911H410.214C410.694 74.3911 411.014 74.0714 411.014 73.7516V64.7187Z" fill="#FFCB77"/>
<path d="M424.818 18.4349C424.339 18.4349 424.019 18.7547 424.019 19.0744V73.7516C424.019 74.0714 424.339 74.3911 424.818 74.3911H433.931C447.84 74.3911 466.706 70.3143 466.706 46.413C466.706 21.5525 447.601 18.4349 433.931 18.4349H424.818ZM434.731 28.6669C446.881 28.0274 455.914 33.1434 455.914 46.413C455.914 63.6795 441.525 64.3989 434.731 64.0792V28.6669Z" fill="#FFCB77"/>
<path d="M505.404 73.9914C505.484 74.2312 505.804 74.3911 506.043 74.3911H515.956C516.515 74.3911 516.835 73.9914 516.595 73.5118L494.772 17.2358C494.533 16.6763 493.573 16.6763 493.333 17.2358L471.511 73.5118C471.271 73.9914 471.59 74.3911 472.23 74.3911H482.062C482.382 74.3911 482.702 74.2312 482.782 73.9914L484.94 68.076H503.086L505.404 73.9914ZM494.053 41.8566L499.648 58.6434H488.377L494.053 41.8566Z" fill="#FFCB77"/>
<path d="M569.699 19.0744C569.699 18.7547 569.379 18.4349 568.899 18.4349H559.866C559.387 18.4349 559.067 18.7547 559.067 19.0744V55.5259L533.247 18.6747C533.167 18.5148 532.768 18.4349 532.608 18.4349H523.335C522.935 18.4349 522.616 18.7547 522.616 19.0744V73.7516C522.616 74.0714 522.935 74.3911 523.335 74.3911H532.528C533.007 74.3911 533.327 74.0714 533.327 73.7516V37.3001L559.067 74.1513C559.147 74.3112 559.547 74.3911 559.706 74.3911H568.899C569.379 74.3911 569.699 74.0714 569.699 73.7516V19.0744Z" fill="#FFCB77"/>
<path d="M289.118 64.7986C279.526 64.7986 271.772 57.7641 271.772 46.413C271.772 35.7813 278.327 28.0274 289.118 28.0274C293.915 28.0274 298.231 30.0258 301.429 33.2233C301.748 33.4631 302.228 33.4631 302.548 33.2233L308.943 26.8283C309.263 26.5885 309.263 26.1089 308.943 25.8691C303.987 20.7531 296.952 17.6355 289.118 17.6355C272.651 17.6355 260.9 29.5462 260.9 46.413C260.9 63.9992 273.61 75.1905 289.118 75.1905C296.952 75.1905 303.987 72.0729 308.943 67.0369C309.263 66.7971 309.263 66.3174 308.943 66.0776L302.548 59.6027C302.228 59.3629 301.748 59.3629 301.429 59.6027C298.231 62.8002 293.915 64.7986 289.118 64.7986Z" fill="#FFCB77"/>
<path d="M351.097 18.4349C350.617 18.4349 350.297 18.7547 350.297 19.0744V41.1371H329.114V19.0744C329.114 18.7547 328.794 18.4349 328.314 18.4349H319.202C318.722 18.4349 318.402 18.7547 318.402 19.0744V73.7516C318.402 74.0714 318.722 74.3911 319.202 74.3911H328.314C328.794 74.3911 329.114 74.0714 329.114 73.7516V51.6089H350.297V73.7516C350.297 74.0714 350.617 74.3911 351.097 74.3911H360.21C360.689 74.3911 361.009 74.0714 361.009 73.7516V19.0744C361.009 18.7547 360.689 18.4349 360.21 18.4349H351.097Z" fill="#FFCB77"/>
<path d="M392.388 59.5227C403.979 59.5227 413.492 50.0901 413.492 38.5791C413.492 27.1481 403.979 17.6355 392.388 17.6355C380.797 17.6355 371.285 27.1481 371.285 38.5791C371.285 50.0901 380.797 59.5227 392.388 59.5227ZM392.388 27.9475C398.224 27.9475 402.86 32.6638 402.86 38.5791C402.86 44.5744 398.224 49.2108 392.388 49.2108C386.633 49.2108 381.916 44.5744 381.916 38.5791C381.916 32.6638 386.633 27.9475 392.388 27.9475ZM411.014 64.7187C411.014 64.3989 410.694 64.0792 410.214 64.0792H374.162C373.683 64.0792 373.363 64.3989 373.363 64.7187V73.7516C373.363 74.0714 373.683 74.3911 374.162 74.3911H410.214C410.694 74.3911 411.014 74.0714 411.014 73.7516V64.7187Z" fill="#FFCB77"/>
<path d="M424.818 18.4349C424.339 18.4349 424.019 18.7547 424.019 19.0744V73.7516C424.019 74.0714 424.339 74.3911 424.818 74.3911H433.931C447.84 74.3911 466.706 70.3143 466.706 46.413C466.706 21.5525 447.601 18.4349 433.931 18.4349H424.818ZM434.731 28.6669C446.881 28.0274 455.914 33.1434 455.914 46.413C455.914 63.6795 441.525 64.3989 434.731 64.0792V28.6669Z" fill="#FFCB77"/>
<path d="M505.404 73.9914C505.484 74.2312 505.804 74.3911 506.043 74.3911H515.956C516.515 74.3911 516.835 73.9914 516.595 73.5118L494.772 17.2358C494.533 16.6763 493.573 16.6763 493.333 17.2358L471.511 73.5118C471.271 73.9914 471.59 74.3911 472.23 74.3911H482.062C482.382 74.3911 482.702 74.2312 482.782 73.9914L484.94 68.076H503.086L505.404 73.9914ZM494.053 41.8566L499.648 58.6434H488.377L494.053 41.8566Z" fill="#FFCB77"/>
<path d="M569.699 19.0744C569.699 18.7547 569.379 18.4349 568.899 18.4349H559.866C559.387 18.4349 559.067 18.7547 559.067 19.0744V55.5259L533.247 18.6747C533.167 18.5148 532.768 18.4349 532.608 18.4349H523.335C522.935 18.4349 522.616 18.7547 522.616 19.0744V73.7516C522.616 74.0714 522.935 74.3911 523.335 74.3911H532.528C533.007 74.3911 533.327 74.0714 533.327 73.7516V37.3001L559.067 74.1513C559.147 74.3112 559.547 74.3911 559.706 74.3911H568.899C569.379 74.3911 569.699 74.0714 569.699 73.7516V19.0744Z" fill="#FFCB77"/>
<path d="M542.462 17.6056C542.075 17.7936 541.591 17.7482 541.329 17.4464L536.953 11.1882C536.691 10.8865 536.822 10.4764 537.215 10.3681L551.685 0.916189C552.072 0.728156 552.556 0.773604 552.898 1.06968L557.524 7.47013C557.712 7.85737 557.581 8.26746 557.274 8.44979L542.462 17.6056Z" fill="#FFCB77"/>
<path d="M34.8751 18.915V20.3539H18.4879V75.191H16.8891V20.3539H0.501953V18.915H34.8751Z" fill="white"/>
<path d="M74.0225 75.191L58.9943 50.6502H44.8454V75.191H43.2466V18.915H57.3156C63.4974 18.915 68.0805 20.3273 71.0648 23.1517C74.1025 25.9762 75.6213 29.8398 75.6213 34.7427C75.6213 39.2724 74.3423 42.8963 71.7843 45.6141C69.2263 48.332 65.5758 49.9574 60.8329 50.4903L76.021 75.191H74.0225ZM57.4755 49.1314C62.9645 49.1314 67.068 47.8257 69.7859 45.2145C72.557 42.6032 73.9426 39.1126 73.9426 34.7427C73.9426 25.2567 68.4003 20.5138 57.3156 20.5138H44.8454V49.1314H57.4755Z" fill="white"/>
<path d="M87.6244 20.3539V46.3336H111.126V47.7725H87.6244V73.7521H113.524V75.191H86.0256V18.915H113.524V20.3539H87.6244Z" fill="white"/>
<path d="M162.407 75.191H160.808L125.876 21.8727V75.191H124.277V18.995H125.876L160.808 72.2333V18.995H162.407V75.191Z" fill="white"/>
<path d="M177.632 20.3539V46.3336H201.134V47.7725H177.632V73.7521H203.532V75.191H176.033V18.915H203.532V20.3539H177.632Z" fill="white"/>
<path d="M245.061 75.191L230.032 50.6502H215.883V75.191H214.285V18.915H228.354C234.535 18.915 239.119 20.3273 242.103 23.1517C245.14 25.9762 246.659 29.8398 246.659 34.7427C246.659 39.2724 245.38 42.8963 242.822 45.6141C240.264 48.332 236.614 49.9574 231.871 50.4903L247.059 75.191H245.061ZM228.514 49.1314C234.003 49.1314 238.106 47.8257 240.824 45.2145C243.595 42.6032 244.981 39.1126 244.981 34.7427C244.981 25.2567 239.438 20.5138 228.354 20.5138H215.883V49.1314H228.514Z" fill="white"/>
</svg>
