<svg width="169" height="4" viewBox="0 0 169 4" fill="none" xmlns="http://www.w3.org/2000/svg">
<path d="M125.099 3.8686C117.991 3.91159 110.906 3.60381 104.1 2.95645C97.7736 2.35035 91.1814 2.06406 84.5714 2.10791C77.9697 2.06449 71.3884 2.35078 65.073 2.95645C58.2708 3.60381 51.1902 3.91159 44.0879 3.8686C36.9815 3.91159 29.8968 3.60381 23.0918 2.95645C16.7724 2.35078 10.187 2.06449 3.58254 2.10791C2.03985 2.10791 0.789062 1.71373 0.789062 1.22756C0.789062 0.741395 2.03985 0.347215 3.58254 0.347215C10.6876 0.30423 17.7722 0.612005 24.5759 1.25937C30.8966 1.86504 37.482 2.15176 44.0879 2.10791C50.6883 2.15133 57.2696 1.86504 63.5863 1.25937C70.3872 0.612435 77.4677 0.30466 84.5714 0.347215C91.6792 0.30466 98.7652 0.612005 105.572 1.25937C111.898 1.86547 118.489 2.15176 125.099 2.10791C131.704 2.15176 138.291 1.86504 144.613 1.25937C151.417 0.612435 158.499 0.30466 165.604 0.347215C167.147 0.347215 168.397 0.741395 168.397 1.22756C168.397 1.71373 167.147 2.10791 165.604 2.10791C158.998 2.06449 152.411 2.35078 146.089 2.95645C139.286 3.60338 132.204 3.91116 125.099 3.8686Z" fill="#FFCB77"/>
</svg>
