<svg width="1441" height="193" viewBox="0 0 1441 193" fill="none" xmlns="http://www.w3.org/2000/svg">
<path d="M1094.04 77.3434C1025.54 78.281 957.275 71.5673 891.686 57.4458C830.725 44.2245 767.2 37.9796 703.504 38.936C639.887 37.9889 576.468 44.2339 515.611 57.4458C450.062 71.5673 381.832 78.281 313.391 77.3434C244.911 78.281 176.641 71.5673 111.066 57.4458C50.1696 44.2339 -13.2896 37.9889 -76.9327 38.936C-91.7985 38.936 -103.852 30.3375 -103.852 19.7323C-103.852 9.12715 -91.7985 0.528623 -76.9327 0.528623C-8.46572 -0.409057 59.8041 6.30473 125.366 20.4262C186.275 33.6381 249.735 39.8924 313.391 38.936C376.995 39.883 440.414 33.6381 501.284 20.4262C566.82 6.31411 635.05 -0.399679 703.504 0.528623C771.997 -0.399679 840.28 6.30473 905.869 20.4262C966.831 33.6475 1030.34 39.8924 1094.04 38.936C1157.69 39.8924 1221.17 33.6381 1282.09 20.4262C1347.65 6.31411 1415.89 -0.399679 1484.36 0.528623C1499.23 0.528623 1511.28 9.12715 1511.28 19.7323C1511.28 30.3375 1499.23 38.936 1484.36 38.936C1420.71 37.9889 1357.23 44.2339 1296.31 57.4458C1230.75 71.5579 1162.5 78.2717 1094.04 77.3434Z" fill="#FFCB77"/>
<path d="M1094.04 192.566C1025.54 193.503 957.275 186.789 891.686 172.668C830.725 159.447 767.2 153.202 703.504 154.158C639.887 153.211 576.468 159.456 515.611 172.668C450.062 186.789 381.832 193.503 313.391 192.566C244.911 193.503 176.641 186.789 111.066 172.668C50.1696 159.456 -13.2896 153.211 -76.9327 154.158C-91.7985 154.158 -103.852 145.56 -103.852 134.954C-103.852 124.349 -91.7985 115.751 -76.9327 115.751C-8.46572 114.813 59.8041 121.527 125.366 135.648C186.275 148.86 249.735 155.115 313.391 154.158C376.995 155.105 440.414 148.86 501.284 135.648C566.82 121.536 635.05 114.822 703.504 115.751C771.997 114.822 840.28 121.527 905.869 135.648C966.831 148.87 1030.34 155.115 1094.04 154.158C1157.69 155.115 1221.17 148.86 1282.09 135.648C1347.65 121.536 1415.89 114.822 1484.36 115.751C1499.23 115.751 1511.28 124.349 1511.28 134.954C1511.28 145.56 1499.23 154.158 1484.36 154.158C1420.71 153.211 1357.23 159.456 1296.31 172.668C1230.75 186.78 1162.5 193.494 1094.04 192.566Z" fill="#FFCB77"/>
</svg>
