<svg width="200" height="200" viewBox="0 0 200 200" fill="none" xmlns="http://www.w3.org/2000/svg">
<circle cx="100" cy="100" r="100" fill="#FFCB77"/>
<path d="M55.7615 100.168C58.1572 102.621 62.134 102.621 64.5775 100.216L93.7566 70.9716L93.7566 143.795C93.7566 147.21 96.5356 150 99.9854 150C103.435 150 106.214 147.21 106.214 143.795L106.214 71.0197L135.393 100.264C137.837 102.669 141.766 102.621 144.209 100.216C146.605 97.7632 146.605 93.867 144.161 91.4139L104.393 51.7797C103.818 51.2506 103.196 50.8177 102.429 50.481C101.662 50.1443 100.848 50 100.033 50C98.4042 50 96.871 50.6253 95.6732 51.7797L55.9053 91.4139C53.4138 93.7708 53.3659 97.7151 55.7615 100.168Z" fill="#0E483E"/>
</svg>
