<svg width="460" height="615" viewBox="0 0 460 615" fill="none" xmlns="http://www.w3.org/2000/svg">
<path d="M35.9289 55.9409C35.0987 45.4834 21.3291 42.038 15.7006 50.9928C12.0501 48.9289 7.39462 51.3565 7.10247 55.6238C3.10053 56.1138 0 59.5221 0 63.6569C0 68.1286 3.62545 71.7536 8.09672 71.7536H33.473C37.9443 71.7536 41.5702 68.1286 41.5702 63.6569C41.5697 60.0423 39.2 56.9818 35.9289 55.9409Z" fill="white" fill-opacity="0.9"/>
<path d="M89.0775 36.905C89.0775 57.2709 72.5677 73.7806 52.2018 73.7806C48.4165 73.7806 44.7645 73.2103 41.3269 72.1509C44.0235 70.3758 45.8036 67.3219 45.8036 63.8523C45.8029 59.4201 42.8973 55.6673 38.8863 54.3909C37.9668 42.8105 24.1069 38.2425 16.346 45.5537C15.6793 42.7797 15.3262 39.8836 15.3262 36.905C15.3262 16.5391 31.836 0.0292969 52.2018 0.0292969C57.0574 0.0292969 61.6936 0.967726 65.9392 2.67312C64.8589 2.52312 63.7556 2.4456 62.6339 2.4456C49.48 2.4456 38.8168 13.1088 38.8168 26.2626C38.8168 39.4164 49.48 50.0796 62.6339 50.0796C75.7876 50.0796 86.4508 39.4164 86.4508 26.2626C86.4508 24.9789 86.3491 23.7189 86.1537 22.4903C88.036 26.9183 89.0775 31.79 89.0775 36.905Z" fill="white" fill-opacity="0.9"/>
<path d="M159.498 55.9409C158.668 45.4834 144.898 42.038 139.27 50.9928C135.619 48.9289 130.964 51.3565 130.672 55.6238C126.67 56.1138 123.569 59.5221 123.569 63.6569C123.569 68.1286 127.195 71.7536 131.666 71.7536H157.042C161.514 71.7536 165.14 68.1286 165.14 63.6569C165.139 60.0423 162.769 56.9818 159.498 55.9409Z" fill="white" fill-opacity="0.9"/>
<path d="M212.647 36.905C212.647 57.2709 196.137 73.7806 175.771 73.7806C171.986 73.7806 168.334 73.2103 164.896 72.1509C167.593 70.3758 169.373 67.3219 169.373 63.8523C169.372 59.4201 166.467 55.6673 162.456 54.3909C161.536 42.8105 147.676 38.2425 139.915 45.5537C139.249 42.7797 138.896 39.8836 138.896 36.905C138.896 16.5391 155.405 0.0292969 175.771 0.0292969C180.627 0.0292969 185.263 0.967726 189.509 2.67312C188.428 2.52312 187.325 2.4456 186.203 2.4456C173.049 2.4456 162.386 13.1088 162.386 26.2626C162.386 39.4164 173.049 50.0796 186.203 50.0796C199.357 50.0796 210.02 39.4164 210.02 26.2626C210.02 24.9789 209.918 23.7189 209.723 22.4903C211.605 26.9183 212.647 31.79 212.647 36.905Z" fill="white" fill-opacity="0.9"/>
<path d="M283.068 55.9409C282.237 45.4834 268.468 42.038 262.839 50.9928C259.189 48.9289 254.533 51.3565 254.241 55.6238C250.239 56.1138 247.139 59.5221 247.139 63.6569C247.139 68.1286 250.764 71.7536 255.235 71.7536H280.612C285.083 71.7536 288.709 68.1286 288.709 63.6569C288.708 60.0423 286.339 56.9818 283.068 55.9409Z" fill="white" fill-opacity="0.9"/>
<path d="M336.216 36.905C336.216 57.2709 319.706 73.7806 299.34 73.7806C295.555 73.7806 291.903 73.2103 288.466 72.1509C291.162 70.3758 292.942 67.3219 292.942 63.8523C292.942 59.4201 290.036 55.6673 286.025 54.3909C285.105 42.8105 271.246 38.2425 263.485 45.5537C262.818 42.7797 262.465 39.8836 262.465 36.905C262.465 16.5391 278.975 0.0292969 299.34 0.0292969C304.196 0.0292969 308.832 0.967726 313.078 2.67312C311.998 2.52312 310.894 2.4456 309.773 2.4456C296.619 2.4456 285.956 13.1088 285.956 26.2626C285.956 39.4164 296.619 50.0796 309.773 50.0796C322.926 50.0796 333.589 39.4164 333.589 26.2626C333.589 24.9789 333.488 23.7189 333.292 22.4903C335.175 26.9183 336.216 31.79 336.216 36.905Z" fill="white" fill-opacity="0.9"/>
<path d="M406.637 55.9409C405.807 45.4834 392.037 42.038 386.409 50.9928C382.758 48.9289 378.103 51.3565 377.81 55.6238C373.809 56.1138 370.708 59.5221 370.708 63.6569C370.708 68.1286 374.333 71.7536 378.805 71.7536H404.181C408.652 71.7536 412.278 68.1286 412.278 63.6569C412.278 60.0423 409.908 56.9818 406.637 55.9409Z" fill="white" fill-opacity="0.9"/>
<path d="M459.785 36.905C459.785 57.2709 443.276 73.7806 422.91 73.7806C419.125 73.7806 415.472 73.2103 412.035 72.1509C414.731 70.3758 416.512 67.3219 416.512 63.8523C416.511 59.4201 413.605 55.6673 409.594 54.3909C408.675 42.8105 394.815 38.2425 387.054 45.5537C386.387 42.7797 386.034 39.8836 386.034 36.905C386.034 16.5391 402.544 0.0292969 422.91 0.0292969C427.765 0.0292969 432.402 0.967726 436.647 2.67312C435.567 2.52312 434.464 2.4456 433.342 2.4456C420.188 2.4456 409.525 13.1088 409.525 26.2626C409.525 39.4164 420.188 50.0796 433.342 50.0796C446.496 50.0796 457.159 39.4164 457.159 26.2626C457.159 24.9789 457.057 23.7189 456.862 22.4903C458.744 26.9183 459.785 31.79 459.785 36.905Z" fill="white" fill-opacity="0.9"/>
<path d="M35.9289 146.043C35.0987 135.586 21.3291 132.141 15.7006 141.095C12.0501 139.031 7.39462 141.459 7.10247 145.726C3.10053 146.216 0 149.625 0 153.759C0 158.231 3.62545 161.856 8.09672 161.856H33.473C37.9443 161.856 41.5702 158.231 41.5702 153.759C41.5697 150.145 39.2 147.084 35.9289 146.043Z" fill="white" fill-opacity="0.9"/>
<path d="M89.0775 127.008C89.0775 147.373 72.5677 163.883 52.2018 163.883C48.4165 163.883 44.7645 163.313 41.3269 162.253C44.0235 160.478 45.8036 157.424 45.8036 153.955C45.8029 149.523 42.8973 145.77 38.8863 144.493C37.9668 132.913 24.1069 128.345 16.346 135.656C15.6793 132.882 15.3262 129.986 15.3262 127.008C15.3262 106.642 31.836 90.1318 52.2018 90.1318C57.0574 90.1318 61.6936 91.0703 65.9392 92.7757C64.8589 92.6257 63.7556 92.5481 62.6339 92.5481C49.48 92.5481 38.8168 103.211 38.8168 116.365C38.8168 129.519 49.48 140.182 62.6339 140.182C75.7876 140.182 86.4508 129.519 86.4508 116.365C86.4508 115.081 86.3491 113.821 86.1537 112.593C88.036 117.021 89.0775 121.893 89.0775 127.008Z" fill="white" fill-opacity="0.9"/>
<path d="M159.498 146.043C158.668 135.586 144.898 132.141 139.27 141.095C135.619 139.031 130.964 141.459 130.672 145.726C126.67 146.216 123.569 149.625 123.569 153.759C123.569 158.231 127.195 161.856 131.666 161.856H157.042C161.514 161.856 165.14 158.231 165.14 153.759C165.139 150.145 162.769 147.084 159.498 146.043Z" fill="white" fill-opacity="0.9"/>
<path d="M212.647 127.008C212.647 147.373 196.137 163.883 175.771 163.883C171.986 163.883 168.334 163.313 164.896 162.253C167.593 160.478 169.373 157.424 169.373 153.955C169.372 149.523 166.467 145.77 162.456 144.493C161.536 132.913 147.676 128.345 139.915 135.656C139.249 132.882 138.896 129.986 138.896 127.008C138.896 106.642 155.405 90.1318 175.771 90.1318C180.627 90.1318 185.263 91.0703 189.509 92.7757C188.428 92.6257 187.325 92.5481 186.203 92.5481C173.049 92.5481 162.386 103.211 162.386 116.365C162.386 129.519 173.049 140.182 186.203 140.182C199.357 140.182 210.02 129.519 210.02 116.365C210.02 115.081 209.918 113.821 209.723 112.593C211.605 117.021 212.647 121.893 212.647 127.008Z" fill="white" fill-opacity="0.9"/>
<path d="M283.068 146.043C282.237 135.586 268.468 132.141 262.839 141.095C259.189 139.031 254.533 141.459 254.241 145.726C250.239 146.216 247.139 149.625 247.139 153.759C247.139 158.231 250.764 161.856 255.235 161.856H280.612C285.083 161.856 288.709 158.231 288.709 153.759C288.708 150.145 286.339 147.084 283.068 146.043Z" fill="white" fill-opacity="0.9"/>
<path d="M336.216 127.008C336.216 147.373 319.706 163.883 299.34 163.883C295.555 163.883 291.903 163.313 288.466 162.253C291.162 160.478 292.942 157.424 292.942 153.955C292.942 149.523 290.036 145.77 286.025 144.493C285.105 132.913 271.246 128.345 263.485 135.656C262.818 132.882 262.465 129.986 262.465 127.008C262.465 106.642 278.975 90.1318 299.34 90.1318C304.196 90.1318 308.832 91.0703 313.078 92.7757C311.998 92.6257 310.894 92.5481 309.773 92.5481C296.619 92.5481 285.956 103.211 285.956 116.365C285.956 129.519 296.619 140.182 309.773 140.182C322.926 140.182 333.589 129.519 333.589 116.365C333.589 115.081 333.488 113.821 333.292 112.593C335.175 117.021 336.216 121.893 336.216 127.008Z" fill="white" fill-opacity="0.9"/>
<path d="M406.637 146.043C405.807 135.586 392.037 132.141 386.409 141.095C382.758 139.031 378.103 141.459 377.81 145.726C373.809 146.216 370.708 149.625 370.708 153.759C370.708 158.231 374.333 161.856 378.805 161.856H404.181C408.652 161.856 412.278 158.231 412.278 153.759C412.278 150.145 409.908 147.084 406.637 146.043Z" fill="white" fill-opacity="0.9"/>
<path d="M459.785 127.008C459.785 147.373 443.276 163.883 422.91 163.883C419.125 163.883 415.472 163.313 412.035 162.253C414.731 160.478 416.512 157.424 416.512 153.955C416.511 149.523 413.605 145.77 409.594 144.493C408.675 132.913 394.815 128.345 387.054 135.656C386.387 132.882 386.034 129.986 386.034 127.008C386.034 106.642 402.544 90.1318 422.91 90.1318C427.765 90.1318 432.402 91.0703 436.647 92.7757C435.567 92.6257 434.464 92.5481 433.342 92.5481C420.188 92.5481 409.525 103.211 409.525 116.365C409.525 129.519 420.188 140.182 433.342 140.182C446.496 140.182 457.159 129.519 457.159 116.365C457.159 115.081 457.057 113.821 456.862 112.593C458.744 117.021 459.785 121.893 459.785 127.008Z" fill="white" fill-opacity="0.9"/>
<path d="M35.9289 236.146C35.0987 225.689 21.3291 222.243 15.7006 231.198C12.0501 229.134 7.39462 231.562 7.10247 235.829C3.10053 236.319 0 239.727 0 243.862C0 248.334 3.62545 251.959 8.09672 251.959H33.473C37.9443 251.959 41.5702 248.334 41.5702 243.862C41.5697 240.247 39.2 237.187 35.9289 236.146Z" fill="white" fill-opacity="0.9"/>
<path d="M89.0775 217.11C89.0775 237.476 72.5677 253.986 52.2018 253.986C48.4165 253.986 44.7645 253.415 41.3269 252.356C44.0235 250.581 45.8036 247.527 45.8036 244.057C45.8029 239.625 42.8973 235.872 38.8863 234.596C37.9668 223.016 24.1069 218.448 16.346 225.759C15.6793 222.985 15.3262 220.089 15.3262 217.11C15.3262 196.744 31.836 180.234 52.2018 180.234C57.0574 180.234 61.6936 181.173 65.9392 182.878C64.8589 182.728 63.7556 182.651 62.6339 182.651C49.48 182.651 38.8168 193.314 38.8168 206.468C38.8168 219.621 49.48 230.285 62.6339 230.285C75.7876 230.285 86.4508 219.621 86.4508 206.468C86.4508 205.184 86.3491 203.924 86.1537 202.695C88.036 207.123 89.0775 211.995 89.0775 217.11Z" fill="white" fill-opacity="0.9"/>
<path d="M159.498 236.146C158.668 225.689 144.898 222.243 139.27 231.198C135.619 229.134 130.964 231.562 130.672 235.829C126.67 236.319 123.569 239.727 123.569 243.862C123.569 248.334 127.195 251.959 131.666 251.959H157.042C161.514 251.959 165.14 248.334 165.14 243.862C165.139 240.247 162.769 237.187 159.498 236.146Z" fill="white" fill-opacity="0.9"/>
<path d="M212.647 217.11C212.647 237.476 196.137 253.986 175.771 253.986C171.986 253.986 168.334 253.415 164.896 252.356C167.593 250.581 169.373 247.527 169.373 244.057C169.372 239.625 166.467 235.872 162.456 234.596C161.536 223.016 147.676 218.448 139.915 225.759C139.249 222.985 138.896 220.089 138.896 217.11C138.896 196.744 155.405 180.234 175.771 180.234C180.627 180.234 185.263 181.173 189.509 182.878C188.428 182.728 187.325 182.651 186.203 182.651C173.049 182.651 162.386 193.314 162.386 206.468C162.386 219.621 173.049 230.285 186.203 230.285C199.357 230.285 210.02 219.621 210.02 206.468C210.02 205.184 209.918 203.924 209.723 202.695C211.605 207.123 212.647 211.995 212.647 217.11Z" fill="white" fill-opacity="0.9"/>
<path d="M283.068 236.146C282.237 225.689 268.468 222.243 262.839 231.198C259.189 229.134 254.533 231.562 254.241 235.829C250.239 236.319 247.139 239.727 247.139 243.862C247.139 248.334 250.764 251.959 255.235 251.959H280.612C285.083 251.959 288.709 248.334 288.709 243.862C288.708 240.247 286.339 237.187 283.068 236.146Z" fill="white" fill-opacity="0.9"/>
<path d="M336.216 217.11C336.216 237.476 319.706 253.986 299.34 253.986C295.555 253.986 291.903 253.415 288.466 252.356C291.162 250.581 292.942 247.527 292.942 244.057C292.942 239.625 290.036 235.872 286.025 234.596C285.105 223.016 271.246 218.448 263.485 225.759C262.818 222.985 262.465 220.089 262.465 217.11C262.465 196.744 278.975 180.234 299.34 180.234C304.196 180.234 308.832 181.173 313.078 182.878C311.998 182.728 310.894 182.651 309.773 182.651C296.619 182.651 285.956 193.314 285.956 206.468C285.956 219.621 296.619 230.285 309.773 230.285C322.926 230.285 333.589 219.621 333.589 206.468C333.589 205.184 333.488 203.924 333.292 202.695C335.175 207.123 336.216 211.995 336.216 217.11Z" fill="white" fill-opacity="0.9"/>
<path d="M406.637 236.146C405.807 225.689 392.037 222.243 386.409 231.198C382.758 229.134 378.103 231.562 377.81 235.829C373.809 236.319 370.708 239.727 370.708 243.862C370.708 248.334 374.333 251.959 378.805 251.959H404.181C408.652 251.959 412.278 248.334 412.278 243.862C412.278 240.247 409.908 237.187 406.637 236.146Z" fill="white" fill-opacity="0.9"/>
<path d="M459.785 217.11C459.785 237.476 443.276 253.986 422.91 253.986C419.125 253.986 415.472 253.415 412.035 252.356C414.731 250.581 416.512 247.527 416.512 244.057C416.511 239.625 413.605 235.872 409.594 234.596C408.675 223.016 394.815 218.448 387.054 225.759C386.387 222.985 386.034 220.089 386.034 217.11C386.034 196.744 402.544 180.234 422.91 180.234C427.765 180.234 432.402 181.173 436.647 182.878C435.567 182.728 434.464 182.651 433.342 182.651C420.188 182.651 409.525 193.314 409.525 206.468C409.525 219.621 420.188 230.285 433.342 230.285C446.496 230.285 457.159 219.621 457.159 206.468C457.159 205.184 457.057 203.924 456.862 202.695C458.744 207.123 459.785 211.995 459.785 217.11Z" fill="white" fill-opacity="0.9"/>
<path d="M35.9289 326.249C35.0987 315.791 21.3291 312.346 15.7006 321.3C12.0501 319.237 7.39462 321.664 7.10247 325.931C3.10053 326.421 0 329.83 0 333.964C0 338.436 3.62545 342.061 8.09672 342.061H33.473C37.9443 342.061 41.5702 338.436 41.5702 333.964C41.5697 330.35 39.2 327.289 35.9289 326.249Z" fill="white" fill-opacity="0.9"/>
<path d="M89.0775 307.213C89.0775 327.578 72.5677 344.088 52.2018 344.088C48.4165 344.088 44.7645 343.518 41.3269 342.459C44.0235 340.683 45.8036 337.63 45.8036 334.16C45.8029 329.728 42.8973 325.975 38.8863 324.699C37.9668 313.118 24.1069 308.55 16.346 315.861C15.6793 313.087 15.3262 310.191 15.3262 307.213C15.3262 286.847 31.836 270.337 52.2018 270.337C57.0574 270.337 61.6936 271.275 65.9392 272.981C64.8589 272.831 63.7556 272.753 62.6339 272.753C49.48 272.753 38.8168 283.416 38.8168 296.57C38.8168 309.724 49.48 320.387 62.6339 320.387C75.7876 320.387 86.4508 309.724 86.4508 296.57C86.4508 295.287 86.3491 294.027 86.1537 292.798C88.036 297.226 89.0775 302.098 89.0775 307.213Z" fill="white" fill-opacity="0.9"/>
<path d="M159.498 326.249C158.668 315.791 144.898 312.346 139.27 321.3C135.619 319.237 130.964 321.664 130.672 325.931C126.67 326.421 123.569 329.83 123.569 333.964C123.569 338.436 127.195 342.061 131.666 342.061H157.042C161.514 342.061 165.14 338.436 165.14 333.964C165.139 330.35 162.769 327.289 159.498 326.249Z" fill="white" fill-opacity="0.9"/>
<path d="M212.647 307.213C212.647 327.578 196.137 344.088 175.771 344.088C171.986 344.088 168.334 343.518 164.896 342.459C167.593 340.683 169.373 337.63 169.373 334.16C169.372 329.728 166.467 325.975 162.456 324.699C161.536 313.118 147.676 308.55 139.915 315.861C139.249 313.087 138.896 310.191 138.896 307.213C138.896 286.847 155.405 270.337 175.771 270.337C180.627 270.337 185.263 271.275 189.509 272.981C188.428 272.831 187.325 272.753 186.203 272.753C173.049 272.753 162.386 283.416 162.386 296.57C162.386 309.724 173.049 320.387 186.203 320.387C199.357 320.387 210.02 309.724 210.02 296.57C210.02 295.287 209.918 294.027 209.723 292.798C211.605 297.226 212.647 302.098 212.647 307.213Z" fill="white" fill-opacity="0.9"/>
<path d="M283.068 326.249C282.237 315.791 268.468 312.346 262.839 321.3C259.189 319.237 254.533 321.664 254.241 325.931C250.239 326.421 247.139 329.83 247.139 333.964C247.139 338.436 250.764 342.061 255.235 342.061H280.612C285.083 342.061 288.709 338.436 288.709 333.964C288.708 330.35 286.339 327.289 283.068 326.249Z" fill="white" fill-opacity="0.9"/>
<path d="M336.216 307.213C336.216 327.578 319.706 344.088 299.34 344.088C295.555 344.088 291.903 343.518 288.466 342.459C291.162 340.683 292.942 337.63 292.942 334.16C292.942 329.728 290.036 325.975 286.025 324.699C285.105 313.118 271.246 308.55 263.485 315.861C262.818 313.087 262.465 310.191 262.465 307.213C262.465 286.847 278.975 270.337 299.34 270.337C304.196 270.337 308.832 271.275 313.078 272.981C311.998 272.831 310.894 272.753 309.773 272.753C296.619 272.753 285.956 283.416 285.956 296.57C285.956 309.724 296.619 320.387 309.773 320.387C322.926 320.387 333.589 309.724 333.589 296.57C333.589 295.287 333.488 294.027 333.292 292.798C335.175 297.226 336.216 302.098 336.216 307.213Z" fill="white" fill-opacity="0.9"/>
<path d="M406.637 326.249C405.807 315.791 392.037 312.346 386.409 321.3C382.758 319.237 378.103 321.664 377.81 325.931C373.809 326.421 370.708 329.83 370.708 333.964C370.708 338.436 374.333 342.061 378.805 342.061H404.181C408.652 342.061 412.278 338.436 412.278 333.964C412.278 330.35 409.908 327.289 406.637 326.249Z" fill="white" fill-opacity="0.9"/>
<path d="M459.785 307.213C459.785 327.578 443.276 344.088 422.91 344.088C419.125 344.088 415.472 343.518 412.035 342.459C414.731 340.683 416.512 337.63 416.512 334.16C416.511 329.728 413.605 325.975 409.594 324.699C408.675 313.118 394.815 308.55 387.054 315.861C386.387 313.087 386.034 310.191 386.034 307.213C386.034 286.847 402.544 270.337 422.91 270.337C427.765 270.337 432.402 271.275 436.647 272.981C435.567 272.831 434.464 272.753 433.342 272.753C420.188 272.753 409.525 283.416 409.525 296.57C409.525 309.724 420.188 320.387 433.342 320.387C446.496 320.387 457.159 309.724 457.159 296.57C457.159 295.287 457.057 294.027 456.862 292.798C458.744 297.226 459.785 302.098 459.785 307.213Z" fill="white" fill-opacity="0.9"/>
<path d="M35.9289 416.351C35.0987 405.894 21.3291 402.448 15.7006 411.403C12.0501 409.339 7.39462 411.767 7.10247 416.034C3.10053 416.524 0 419.932 0 424.067C0 428.539 3.62545 432.164 8.09672 432.164H33.473C37.9443 432.164 41.5702 428.539 41.5702 424.067C41.5697 420.452 39.2 417.392 35.9289 416.351Z" fill="white" fill-opacity="0.9"/>
<path d="M89.0775 397.315C89.0775 417.681 72.5677 434.191 52.2018 434.191C48.4165 434.191 44.7645 433.62 41.3269 432.561C44.0235 430.786 45.8036 427.732 45.8036 424.262C45.8029 419.83 42.8973 416.077 38.8863 414.801C37.9668 403.221 24.1069 398.653 16.346 405.964C15.6793 403.19 15.3262 400.294 15.3262 397.315C15.3262 376.949 31.836 360.439 52.2018 360.439C57.0574 360.439 61.6936 361.378 65.9392 363.083C64.8589 362.933 63.7556 362.856 62.6339 362.856C49.48 362.856 38.8168 373.519 38.8168 386.673C38.8168 399.827 49.48 410.49 62.6339 410.49C75.7876 410.49 86.4508 399.827 86.4508 386.673C86.4508 385.389 86.3491 384.129 86.1537 382.9C88.036 387.328 89.0775 392.2 89.0775 397.315Z" fill="white" fill-opacity="0.9"/>
<path d="M159.498 416.351C158.668 405.894 144.898 402.448 139.27 411.403C135.619 409.339 130.964 411.767 130.672 416.034C126.67 416.524 123.569 419.932 123.569 424.067C123.569 428.539 127.195 432.164 131.666 432.164H157.042C161.514 432.164 165.14 428.539 165.14 424.067C165.139 420.452 162.769 417.392 159.498 416.351Z" fill="white" fill-opacity="0.9"/>
<path d="M212.647 397.315C212.647 417.681 196.137 434.191 175.771 434.191C171.986 434.191 168.334 433.62 164.896 432.561C167.593 430.786 169.373 427.732 169.373 424.262C169.372 419.83 166.467 416.077 162.456 414.801C161.536 403.221 147.676 398.653 139.915 405.964C139.249 403.19 138.896 400.294 138.896 397.315C138.896 376.949 155.405 360.439 175.771 360.439C180.627 360.439 185.263 361.378 189.509 363.083C188.428 362.933 187.325 362.856 186.203 362.856C173.049 362.856 162.386 373.519 162.386 386.673C162.386 399.827 173.049 410.49 186.203 410.49C199.357 410.49 210.02 399.827 210.02 386.673C210.02 385.389 209.918 384.129 209.723 382.9C211.605 387.328 212.647 392.2 212.647 397.315Z" fill="white" fill-opacity="0.9"/>
<path d="M283.068 416.351C282.237 405.894 268.468 402.448 262.839 411.403C259.189 409.339 254.533 411.767 254.241 416.034C250.239 416.524 247.139 419.932 247.139 424.067C247.139 428.539 250.764 432.164 255.235 432.164H280.612C285.083 432.164 288.709 428.539 288.709 424.067C288.708 420.452 286.339 417.392 283.068 416.351Z" fill="white" fill-opacity="0.9"/>
<path d="M336.216 397.315C336.216 417.681 319.706 434.191 299.34 434.191C295.555 434.191 291.903 433.62 288.466 432.561C291.162 430.786 292.942 427.732 292.942 424.262C292.942 419.83 290.036 416.077 286.025 414.801C285.105 403.221 271.246 398.653 263.485 405.964C262.818 403.19 262.465 400.294 262.465 397.315C262.465 376.949 278.975 360.439 299.34 360.439C304.196 360.439 308.832 361.378 313.078 363.083C311.998 362.933 310.894 362.856 309.773 362.856C296.619 362.856 285.956 373.519 285.956 386.673C285.956 399.827 296.619 410.49 309.773 410.49C322.926 410.49 333.589 399.827 333.589 386.673C333.589 385.389 333.488 384.129 333.292 382.9C335.175 387.328 336.216 392.2 336.216 397.315Z" fill="white" fill-opacity="0.9"/>
<path d="M406.637 416.351C405.807 405.894 392.037 402.448 386.409 411.403C382.758 409.339 378.103 411.767 377.81 416.034C373.809 416.524 370.708 419.932 370.708 424.067C370.708 428.539 374.333 432.164 378.805 432.164H404.181C408.652 432.164 412.278 428.539 412.278 424.067C412.278 420.452 409.908 417.392 406.637 416.351Z" fill="white" fill-opacity="0.9"/>
<path d="M459.785 397.315C459.785 417.681 443.276 434.191 422.91 434.191C419.125 434.191 415.472 433.62 412.035 432.561C414.731 430.786 416.512 427.732 416.512 424.262C416.511 419.83 413.605 416.077 409.594 414.801C408.675 403.221 394.815 398.653 387.054 405.964C386.387 403.19 386.034 400.294 386.034 397.315C386.034 376.949 402.544 360.439 422.91 360.439C427.765 360.439 432.402 361.378 436.647 363.083C435.567 362.933 434.464 362.856 433.342 362.856C420.188 362.856 409.525 373.519 409.525 386.673C409.525 399.827 420.188 410.49 433.342 410.49C446.496 410.49 457.159 399.827 457.159 386.673C457.159 385.389 457.057 384.129 456.862 382.9C458.744 387.328 459.785 392.2 459.785 397.315Z" fill="white" fill-opacity="0.9"/>
<path d="M35.9289 506.454C35.0987 495.996 21.3291 492.551 15.7006 501.505C12.0501 499.442 7.39462 501.869 7.10247 506.136C3.10053 506.627 0 510.035 0 514.17C0 518.641 3.62545 522.266 8.09672 522.266H33.473C37.9443 522.266 41.5702 518.641 41.5702 514.17C41.5697 510.555 39.2 507.494 35.9289 506.454Z" fill="white" fill-opacity="0.9"/>
<path d="M89.0775 487.418C89.0775 507.784 72.5677 524.293 52.2018 524.293C48.4165 524.293 44.7645 523.723 41.3269 522.664C44.0235 520.889 45.8036 517.835 45.8036 514.365C45.8029 509.933 42.8973 506.18 38.8863 504.904C37.9668 493.323 24.1069 488.755 16.346 496.066C15.6793 493.292 15.3262 490.396 15.3262 487.418C15.3262 467.052 31.836 450.542 52.2018 450.542C57.0574 450.542 61.6936 451.48 65.9392 453.186C64.8589 453.036 63.7556 452.958 62.6339 452.958C49.48 452.958 38.8168 463.622 38.8168 476.775C38.8168 489.929 49.48 500.592 62.6339 500.592C75.7876 500.592 86.4508 489.929 86.4508 476.775C86.4508 475.492 86.3491 474.232 86.1537 473.003C88.036 477.431 89.0775 482.303 89.0775 487.418Z" fill="white" fill-opacity="0.9"/>
<path d="M159.498 506.454C158.668 495.996 144.898 492.551 139.27 501.505C135.619 499.442 130.964 501.869 130.672 506.136C126.67 506.627 123.569 510.035 123.569 514.17C123.569 518.641 127.195 522.266 131.666 522.266H157.042C161.514 522.266 165.14 518.641 165.14 514.17C165.139 510.555 162.769 507.494 159.498 506.454Z" fill="white" fill-opacity="0.9"/>
<path d="M212.647 487.418C212.647 507.784 196.137 524.293 175.771 524.293C171.986 524.293 168.334 523.723 164.896 522.664C167.593 520.889 169.373 517.835 169.373 514.365C169.372 509.933 166.467 506.18 162.456 504.904C161.536 493.323 147.676 488.755 139.915 496.066C139.249 493.292 138.896 490.396 138.896 487.418C138.896 467.052 155.405 450.542 175.771 450.542C180.627 450.542 185.263 451.48 189.509 453.186C188.428 453.036 187.325 452.958 186.203 452.958C173.049 452.958 162.386 463.622 162.386 476.775C162.386 489.929 173.049 500.592 186.203 500.592C199.357 500.592 210.02 489.929 210.02 476.775C210.02 475.492 209.918 474.232 209.723 473.003C211.605 477.431 212.647 482.303 212.647 487.418Z" fill="white" fill-opacity="0.9"/>
<path d="M283.068 506.454C282.237 495.996 268.468 492.551 262.839 501.505C259.189 499.442 254.533 501.869 254.241 506.136C250.239 506.627 247.139 510.035 247.139 514.17C247.139 518.641 250.764 522.266 255.235 522.266H280.612C285.083 522.266 288.709 518.641 288.709 514.17C288.708 510.555 286.339 507.494 283.068 506.454Z" fill="white" fill-opacity="0.9"/>
<path d="M336.216 487.418C336.216 507.784 319.706 524.293 299.34 524.293C295.555 524.293 291.903 523.723 288.466 522.664C291.162 520.889 292.942 517.835 292.942 514.365C292.942 509.933 290.036 506.18 286.025 504.904C285.105 493.323 271.246 488.755 263.485 496.066C262.818 493.292 262.465 490.396 262.465 487.418C262.465 467.052 278.975 450.542 299.34 450.542C304.196 450.542 308.832 451.48 313.078 453.186C311.998 453.036 310.894 452.958 309.773 452.958C296.619 452.958 285.956 463.622 285.956 476.775C285.956 489.929 296.619 500.592 309.773 500.592C322.926 500.592 333.589 489.929 333.589 476.775C333.589 475.492 333.488 474.232 333.292 473.003C335.175 477.431 336.216 482.303 336.216 487.418Z" fill="white" fill-opacity="0.9"/>
<path d="M406.637 506.454C405.807 495.996 392.037 492.551 386.409 501.505C382.758 499.442 378.103 501.869 377.81 506.136C373.809 506.627 370.708 510.035 370.708 514.17C370.708 518.641 374.333 522.266 378.805 522.266H404.181C408.652 522.266 412.278 518.641 412.278 514.17C412.278 510.555 409.908 507.494 406.637 506.454Z" fill="white" fill-opacity="0.9"/>
<path d="M459.785 487.418C459.785 507.784 443.276 524.293 422.91 524.293C419.125 524.293 415.472 523.723 412.035 522.664C414.731 520.889 416.512 517.835 416.512 514.365C416.511 509.933 413.605 506.18 409.594 504.904C408.675 493.323 394.815 488.755 387.054 496.066C386.387 493.292 386.034 490.396 386.034 487.418C386.034 467.052 402.544 450.542 422.91 450.542C427.765 450.542 432.402 451.48 436.647 453.186C435.567 453.036 434.464 452.958 433.342 452.958C420.188 452.958 409.525 463.622 409.525 476.775C409.525 489.929 420.188 500.592 433.342 500.592C446.496 500.592 457.159 489.929 457.159 476.775C457.159 475.492 457.057 474.232 456.862 473.003C458.744 477.431 459.785 482.303 459.785 487.418Z" fill="white" fill-opacity="0.9"/>
<path d="M35.9289 596.556C35.0987 586.099 21.3291 582.653 15.7006 591.608C12.0501 589.544 7.39462 591.972 7.10247 596.239C3.10053 596.729 0 600.137 0 604.272C0 608.744 3.62545 612.369 8.09672 612.369H33.473C37.9443 612.369 41.5702 608.744 41.5702 604.272C41.5697 600.657 39.2 597.597 35.9289 596.556Z" fill="white" fill-opacity="0.9"/>
<path d="M89.0775 577.52C89.0775 597.886 72.5677 614.396 52.2018 614.396C48.4165 614.396 44.7645 613.826 41.3269 612.766C44.0235 610.991 45.8036 607.937 45.8036 604.468C45.8029 600.035 42.8973 596.282 38.8863 595.006C37.9668 583.426 24.1069 578.858 16.346 586.169C15.6793 583.395 15.3262 580.499 15.3262 577.52C15.3262 557.154 31.836 540.645 52.2018 540.645C57.0574 540.645 61.6936 541.583 65.9392 543.288C64.8589 543.138 63.7556 543.061 62.6339 543.061C49.48 543.061 38.8168 553.724 38.8168 566.878C38.8168 580.032 49.48 590.695 62.6339 590.695C75.7876 590.695 86.4508 580.032 86.4508 566.878C86.4508 565.594 86.3491 564.334 86.1537 563.106C88.036 567.534 89.0775 572.405 89.0775 577.52Z" fill="white" fill-opacity="0.9"/>
<path d="M159.498 596.556C158.668 586.099 144.898 582.653 139.27 591.608C135.619 589.544 130.964 591.972 130.672 596.239C126.67 596.729 123.569 600.137 123.569 604.272C123.569 608.744 127.195 612.369 131.666 612.369H157.042C161.514 612.369 165.14 608.744 165.14 604.272C165.139 600.657 162.769 597.597 159.498 596.556Z" fill="white" fill-opacity="0.9"/>
<path d="M212.647 577.52C212.647 597.886 196.137 614.396 175.771 614.396C171.986 614.396 168.334 613.826 164.896 612.766C167.593 610.991 169.373 607.937 169.373 604.468C169.372 600.035 166.467 596.282 162.456 595.006C161.536 583.426 147.676 578.858 139.915 586.169C139.249 583.395 138.896 580.499 138.896 577.52C138.896 557.154 155.405 540.645 175.771 540.645C180.627 540.645 185.263 541.583 189.509 543.288C188.428 543.138 187.325 543.061 186.203 543.061C173.049 543.061 162.386 553.724 162.386 566.878C162.386 580.032 173.049 590.695 186.203 590.695C199.357 590.695 210.02 580.032 210.02 566.878C210.02 565.594 209.918 564.334 209.723 563.106C211.605 567.534 212.647 572.405 212.647 577.52Z" fill="white" fill-opacity="0.9"/>
<path d="M283.068 596.556C282.237 586.099 268.468 582.653 262.839 591.608C259.189 589.544 254.533 591.972 254.241 596.239C250.239 596.729 247.139 600.137 247.139 604.272C247.139 608.744 250.764 612.369 255.235 612.369H280.612C285.083 612.369 288.709 608.744 288.709 604.272C288.708 600.657 286.339 597.597 283.068 596.556Z" fill="white" fill-opacity="0.9"/>
<path d="M336.216 577.52C336.216 597.886 319.706 614.396 299.34 614.396C295.555 614.396 291.903 613.826 288.466 612.766C291.162 610.991 292.942 607.937 292.942 604.468C292.942 600.035 290.036 596.282 286.025 595.006C285.105 583.426 271.246 578.858 263.485 586.169C262.818 583.395 262.465 580.499 262.465 577.52C262.465 557.154 278.975 540.645 299.34 540.645C304.196 540.645 308.832 541.583 313.078 543.288C311.998 543.138 310.894 543.061 309.773 543.061C296.619 543.061 285.956 553.724 285.956 566.878C285.956 580.032 296.619 590.695 309.773 590.695C322.926 590.695 333.589 580.032 333.589 566.878C333.589 565.594 333.488 564.334 333.292 563.106C335.175 567.534 336.216 572.405 336.216 577.52Z" fill="white" fill-opacity="0.9"/>
<path d="M406.637 596.556C405.807 586.099 392.037 582.653 386.409 591.608C382.758 589.544 378.103 591.972 377.81 596.239C373.809 596.729 370.708 600.137 370.708 604.272C370.708 608.744 374.333 612.369 378.805 612.369H404.181C408.652 612.369 412.278 608.744 412.278 604.272C412.278 600.657 409.908 597.597 406.637 596.556Z" fill="white" fill-opacity="0.9"/>
<path d="M459.785 577.52C459.785 597.886 443.276 614.396 422.91 614.396C419.125 614.396 415.472 613.826 412.035 612.766C414.731 610.991 416.512 607.937 416.512 604.468C416.511 600.035 413.605 596.282 409.594 595.006C408.675 583.426 394.815 578.858 387.054 586.169C386.387 583.395 386.034 580.499 386.034 577.52C386.034 557.154 402.544 540.645 422.91 540.645C427.765 540.645 432.402 541.583 436.647 543.288C435.567 543.138 434.464 543.061 433.342 543.061C420.188 543.061 409.525 553.724 409.525 566.878C409.525 580.032 420.188 590.695 433.342 590.695C446.496 590.695 457.159 580.032 457.159 566.878C457.159 565.594 457.057 564.334 456.862 563.106C458.744 567.534 459.785 572.405 459.785 577.52Z" fill="white" fill-opacity="0.9"/>
</svg>
