<svg width="156" height="96" viewBox="0 0 156 96" fill="none" xmlns="http://www.w3.org/2000/svg">
<path d="M66.358 40.8881C65.7588 33.3408 55.8211 30.8542 51.759 37.317C49.1244 35.8274 45.7645 37.5795 45.5537 40.6592C42.6654 41.0129 40.4277 43.4726 40.4277 46.4568C40.4277 49.6841 43.0443 52.3002 46.2712 52.3002H64.5855C67.8125 52.3002 70.4293 49.6841 70.4293 46.4568C70.429 43.8481 68.7188 41.6393 66.358 40.8881Z" fill="white"/>
<path d="M104.717 27.1497C104.717 41.8479 92.802 53.7632 78.1037 53.7632C75.3718 53.7632 72.7361 53.3515 70.2552 52.587C72.2013 51.3059 73.4861 49.1018 73.4861 46.5978C73.4856 43.399 71.3886 40.6906 68.4938 39.7694C67.8302 31.4117 57.8273 28.115 52.2262 33.3915C51.7451 31.3895 51.4902 29.2993 51.4902 27.1497C51.4902 12.4514 63.4055 0.536133 78.1037 0.536133C81.608 0.536133 84.954 1.21341 88.0181 2.4442C87.2385 2.33595 86.4422 2.28 85.6327 2.28C76.1394 2.28 68.4437 9.97574 68.4437 19.4689C68.4437 28.9621 76.1394 36.6579 85.6327 36.6579C95.1258 36.6579 102.822 28.9621 102.822 19.4689C102.822 18.5425 102.748 17.6332 102.607 16.7464C103.966 19.9422 104.717 23.4582 104.717 27.1497Z" fill="#FFCB77"/>
<path d="M1.01877 95.2049H0.28125V89.4388H1.11935C1.99096 92.5901 3.57776 94.1657 5.87973 94.1657C6.77369 94.1657 7.47769 93.9534 7.99172 93.5287C8.52811 93.0818 8.7963 92.4113 8.7963 91.5173C8.7963 91.1821 8.74042 90.9027 8.62868 90.6792C8.53928 90.4334 8.34931 90.1875 8.05877 89.9417C7.79058 89.6735 7.39947 89.3718 6.88544 89.0365C6.39376 88.7013 5.73446 88.2767 4.90754 87.7626C4.14766 87.2933 3.48836 86.8575 2.92963 86.4552C2.3709 86.0529 1.90157 85.6506 1.52163 85.2484C1.14169 84.8237 0.851155 84.3767 0.650012 83.9074C0.471218 83.4381 0.381821 82.8905 0.381821 82.2647C0.381821 81.5049 0.504742 80.812 0.750583 80.1863C1.01877 79.5381 1.37636 78.9906 1.82335 78.5436C2.27033 78.0966 2.79554 77.7502 3.39896 77.5044C4.00239 77.2362 4.66169 77.1021 5.37687 77.1021C5.9803 77.1021 6.60607 77.2026 7.2542 77.4038C7.90233 77.5826 8.47223 77.8284 8.96392 78.1413L9.63439 77.4373H10.2713V82.2647H9.39973C8.90804 80.9014 8.37166 79.9292 7.79058 79.3482C7.2095 78.7671 6.49433 78.4765 5.64506 78.4765C4.88519 78.4765 4.27058 78.6777 3.80125 79.08C3.35427 79.4823 3.13077 80.041 3.13077 80.7562C3.13077 81.1361 3.18665 81.4713 3.29839 81.7619C3.43249 82.0301 3.63363 82.2983 3.90182 82.5665C4.17001 82.8346 4.50525 83.114 4.90754 83.4045C5.33217 83.6727 5.83503 83.9856 6.41611 84.3432C7.37712 84.9466 8.19287 85.483 8.86335 85.9524C9.55617 86.4217 10.1149 86.891 10.5395 87.3604C10.9642 87.8073 11.2771 88.2767 11.4782 88.7684C11.6793 89.26 11.7799 89.8188 11.7799 90.4445C11.7799 92.0313 11.2659 93.2829 10.2378 94.1992C9.20976 95.0932 7.85763 95.5402 6.18144 95.5402C4.4382 95.5402 2.94081 95.0373 1.68925 94.0316L1.01877 95.2049Z" fill="white"/>
<path d="M22.4821 95.5402H21.2417L16.8837 81.5943C16.6825 80.9685 16.4925 80.4656 16.3137 80.0857C16.135 79.7058 15.9226 79.404 15.6768 79.1805C15.431 78.9571 15.1404 78.8118 14.8052 78.7447C14.4699 78.6553 14.0565 78.6106 13.5648 78.6106V77.4373H22.4486V78.6106C21.577 78.6106 20.9624 78.7112 20.6048 78.9124C20.2472 79.1135 20.0684 79.4599 20.0684 79.9516C20.0684 80.1751 20.1019 80.4433 20.169 80.7562C20.236 81.0467 20.3254 81.4155 20.4372 81.8625L22.7168 89.8746H22.8509L27.7789 77.4373H28.8181L33.2768 89.8746H33.4109L35.4223 84.4438C35.6905 83.7063 35.914 83.0917 36.0928 82.6C36.2716 82.0859 36.4057 81.6613 36.4951 81.3261C36.6068 80.9685 36.685 80.6779 36.7297 80.4545C36.7744 80.231 36.7968 80.0186 36.7968 79.8175C36.7968 79.3258 36.6515 79.0018 36.361 78.8453C36.0704 78.6889 35.467 78.6106 34.5507 78.6106V77.4373H41.2555V78.6106C40.9202 78.6106 40.6297 78.6665 40.3838 78.7783C40.1604 78.8677 39.9257 79.0576 39.6798 79.3482C39.4563 79.6387 39.2217 80.0522 38.9758 80.5885C38.73 81.1249 38.4283 81.8289 38.0707 82.7005L32.8745 95.5402H31.6341L27.5442 83.1699H27.4101L22.4821 95.5402Z" fill="white"/>
<path d="M49.3536 89.8746C49.3536 90.7463 49.3871 91.4503 49.4541 91.9866C49.5435 92.5007 49.7 92.9141 49.9235 93.227C50.1469 93.5176 50.4598 93.7187 50.8621 93.8305C51.2644 93.9422 51.8008 94.0092 52.4713 94.0316V95.2049H42.8499V94.0316C43.5204 94.0092 44.068 93.9422 44.4926 93.8305C44.9172 93.6964 45.2413 93.4952 45.4648 93.227C45.7106 92.9365 45.8671 92.5454 45.9341 92.0537C46.0235 91.5397 46.0682 90.8915 46.0682 90.1093V85.8183C46.0682 84.522 46.0459 83.4604 46.0012 82.6335C45.9788 81.7842 45.923 81.2032 45.8336 80.8903C45.7218 80.3762 45.4648 80.0298 45.0625 79.851C44.6602 79.6499 43.9003 79.5493 42.7829 79.5493V78.376L49.3536 77.1021V89.8746ZM45.4983 70.2967C45.4983 69.7157 45.6995 69.224 46.1017 68.8217C46.504 68.4194 46.9957 68.2183 47.5768 68.2183C48.1579 68.2183 48.6496 68.4194 49.0518 68.8217C49.4541 69.224 49.6553 69.7157 49.6553 70.2967C49.6553 70.8778 49.4541 71.3695 49.0518 71.7718C48.6496 72.1741 48.1579 72.3752 47.5768 72.3752C46.9957 72.3752 46.504 72.1741 46.1017 71.7718C45.6995 71.3695 45.4983 70.8778 45.4983 70.2967Z" fill="white"/>
<path d="M70.6351 92.0872C68.7355 94.3892 66.3776 95.5402 63.5616 95.5402C62.243 95.5402 61.0473 95.3278 59.9746 94.9032C58.9018 94.4562 57.9743 93.8416 57.1921 93.0594C56.4322 92.2548 55.84 91.305 55.4153 90.2099C54.9907 89.0924 54.7784 87.8632 54.7784 86.5223C54.7784 85.159 55.0019 83.8962 55.4489 82.7341C55.8958 81.5719 56.5216 80.5774 57.3262 79.7505C58.1531 78.9235 59.1253 78.2754 60.2428 77.8061C61.3826 77.3367 62.623 77.1021 63.9639 77.1021C66.1318 77.1021 67.808 77.6943 68.9925 78.8788C70.177 80.041 70.7692 81.7172 70.7692 83.9074C70.7692 84.2203 70.7022 84.4103 70.5681 84.4773C70.4564 84.5444 70.177 84.5779 69.73 84.5779H58.7007C58.656 84.7567 58.6224 84.9802 58.6001 85.2484C58.5778 85.4942 58.5666 85.7736 58.5666 86.0865C58.5666 87.2486 58.7007 88.3102 58.9689 89.2712C59.2594 90.2099 59.6617 91.0145 60.1757 91.6849C60.7121 92.3554 61.3379 92.8806 62.0531 93.2605C62.7906 93.6181 63.6063 93.7969 64.5003 93.7969C65.4389 93.7969 66.3106 93.5958 67.1151 93.1935C67.9197 92.7689 68.7466 92.0872 69.5959 91.1485L70.6351 92.0872ZM65.1037 83.0358C65.5507 83.0358 65.9083 83.0246 66.1765 83.0023C66.4447 82.9799 66.6458 82.9352 66.7799 82.8682C66.914 82.8011 67.0034 82.7117 67.0481 82.6C67.0928 82.4659 67.1151 82.2983 67.1151 82.0971C67.1151 81.0691 66.7799 80.2533 66.1094 79.6499C65.4613 79.0241 64.5673 78.7112 63.4275 78.7112C61.0138 78.7112 59.5164 80.1527 58.9353 83.0358H65.1037Z" fill="white"/>
<path d="M73.6939 79.5493V78.3089C74.8784 77.6161 75.8059 76.9233 76.4764 76.2305C77.1469 75.5376 77.6609 74.7107 78.0185 73.7497H78.9907V77.9737H83.4829V79.5493H78.9907V89.7405C78.9907 90.5228 79.0242 91.1821 79.0913 91.7185C79.1807 92.2548 79.3148 92.6906 79.4935 93.0259C79.6723 93.3388 79.907 93.5623 80.1975 93.6964C80.4881 93.8305 80.8568 93.8975 81.3038 93.8975C81.8626 93.8975 82.3319 93.7858 82.7118 93.5623C83.1141 93.3164 83.5052 92.9141 83.8852 92.3554L84.7233 92.9924C84.4104 93.8193 83.8628 94.4562 83.0806 94.9032C82.3207 95.3278 81.3709 95.5402 80.2311 95.5402C78.756 95.5402 77.6274 95.1938 76.8452 94.5009C76.0853 93.7858 75.7054 92.7689 75.7054 91.4503V79.5493H73.6939Z" fill="white"/>
<path d="M95.9179 77.1021C97.1918 77.1021 98.3986 77.3367 99.5384 77.8061C100.678 78.2531 101.673 78.8788 102.522 79.6834C103.394 80.488 104.075 81.449 104.567 82.5665C105.081 83.6616 105.338 84.8684 105.338 86.187C105.338 87.5503 105.081 88.8019 104.567 89.9417C104.075 91.0815 103.394 92.0649 102.522 92.8918C101.673 93.7187 100.678 94.3668 99.5384 94.8362C98.3986 95.3055 97.1918 95.5402 95.9179 95.5402C94.6663 95.5402 93.4706 95.3167 92.3308 94.8697C91.2133 94.4004 90.23 93.7522 89.3807 92.9253C88.5314 92.0984 87.861 91.115 87.3693 89.9752C86.8776 88.8131 86.6318 87.5503 86.6318 86.187C86.6318 84.8684 86.8776 83.6504 87.3693 82.5329C87.861 81.4155 88.5314 80.4545 89.3807 79.6499C90.23 78.8453 91.2133 78.2195 92.3308 77.7725C93.4706 77.3256 94.6663 77.1021 95.9179 77.1021ZM95.9179 78.7112C95.0909 78.7112 94.3311 78.89 93.6382 79.2476C92.9678 79.6052 92.3867 80.1192 91.895 80.7897C91.4257 81.4378 91.0569 82.2312 90.7887 83.1699C90.5429 84.0862 90.42 85.1031 90.42 86.2205C90.42 87.3827 90.5429 88.4331 90.7887 89.3718C91.0569 90.3105 91.4257 91.115 91.895 91.7855C92.3867 92.4336 92.9678 92.9365 93.6382 93.2941C94.3087 93.6517 95.0686 93.8305 95.9179 93.8305C96.7671 93.8305 97.5382 93.6517 98.231 93.2941C98.9238 92.9365 99.5161 92.4225 100.008 91.752C100.499 91.0815 100.879 90.2769 101.148 89.3383C101.416 88.3996 101.55 87.3604 101.55 86.2205C101.55 85.1031 101.416 84.0862 101.148 83.1699C100.879 82.2536 100.499 81.4713 100.008 80.8232C99.5161 80.1527 98.9238 79.6387 98.231 79.2811C97.5382 78.9012 96.7671 78.7112 95.9179 78.7112Z" fill="white"/>
<path d="M114.198 89.9417C114.198 90.858 114.221 91.5844 114.265 92.1207C114.31 92.6348 114.422 93.0371 114.601 93.3276C114.802 93.5958 115.081 93.7746 115.439 93.864C115.819 93.9534 116.333 94.0204 116.981 94.0651V95.2049H108.198V94.0651C108.823 94.0204 109.315 93.9534 109.673 93.864C110.053 93.7746 110.343 93.5958 110.544 93.3276C110.745 93.0594 110.868 92.6795 110.913 92.1878C110.98 91.6961 111.014 91.0256 111.014 90.1764V85.7177C111.014 83.0581 110.946 81.4378 110.812 80.8567C110.745 80.5662 110.656 80.3315 110.544 80.1527C110.455 79.9516 110.31 79.8063 110.108 79.7169C109.907 79.6052 109.65 79.5381 109.337 79.5158C109.024 79.4711 108.622 79.4487 108.13 79.4487V78.376L113.494 77.1021L113.897 80.4209H114.031C114.88 79.3705 115.874 78.5548 117.014 77.9737C118.154 77.3926 119.394 77.1021 120.735 77.1021C121.763 77.1021 122.702 77.2697 123.551 77.6049C124.401 77.9402 125.049 78.3983 125.496 78.9794C125.876 79.4934 126.144 80.1639 126.3 80.9908C126.457 81.7954 126.535 82.9129 126.535 84.3432V89.9417C126.535 90.858 126.557 91.5844 126.602 92.1207C126.669 92.6348 126.792 93.0371 126.971 93.3276C127.15 93.5958 127.418 93.7746 127.775 93.864C128.155 93.9534 128.647 94.0204 129.25 94.0651V95.2049H120.568V94.0651C121.194 94.0428 121.685 93.9869 122.043 93.8975C122.423 93.7858 122.702 93.5958 122.881 93.3276C123.082 93.0594 123.205 92.6795 123.25 92.1878C123.317 91.6738 123.35 91.0033 123.35 90.1764V85.7512C123.35 84.4773 123.283 83.4045 123.149 82.5329C123.015 81.6613 122.792 80.9573 122.479 80.4209C122.188 79.8845 121.797 79.5046 121.305 79.2811C120.814 79.0353 120.221 78.9124 119.529 78.9124C118.523 78.9124 117.595 79.1805 116.746 79.7169C115.919 80.231 115.271 80.9461 114.802 81.8625C114.69 82.0859 114.589 82.2983 114.5 82.4994C114.433 82.7005 114.377 82.9352 114.332 83.2034C114.288 83.4716 114.254 83.7845 114.232 84.1421C114.209 84.4773 114.198 84.9131 114.198 85.4495V89.9417Z" fill="white"/>
<path d="M147.57 92.0872C145.67 94.3892 143.312 95.5402 140.496 95.5402C139.178 95.5402 137.982 95.3278 136.909 94.9032C135.836 94.4562 134.909 93.8416 134.127 93.0594C133.367 92.2548 132.774 91.305 132.35 90.2099C131.925 89.0924 131.713 87.8632 131.713 86.5223C131.713 85.159 131.936 83.8962 132.383 82.7341C132.83 81.5719 133.456 80.5774 134.261 79.7505C135.088 78.9235 136.06 78.2754 137.177 77.8061C138.317 77.3367 139.557 77.1021 140.898 77.1021C143.066 77.1021 144.742 77.6943 145.927 78.8788C147.111 80.041 147.704 81.7172 147.704 83.9074C147.704 84.2203 147.637 84.4103 147.503 84.4773C147.391 84.5444 147.112 84.5779 146.665 84.5779H135.635C135.59 84.7567 135.557 84.9802 135.535 85.2484C135.512 85.4942 135.501 85.7736 135.501 86.0865C135.501 87.2486 135.635 88.3102 135.903 89.2712C136.194 90.2099 136.596 91.0145 137.11 91.6849C137.647 92.3554 138.272 92.8806 138.988 93.2605C139.725 93.6181 140.541 93.7969 141.435 93.7969C142.373 93.7969 143.245 93.5958 144.05 93.1935C144.854 92.7689 145.681 92.0872 146.53 91.1485L147.57 92.0872ZM142.038 83.0358C142.485 83.0358 142.843 83.0246 143.111 83.0023C143.379 82.9799 143.58 82.9352 143.714 82.8682C143.849 82.8011 143.938 82.7117 143.983 82.6C144.027 82.4659 144.05 82.2983 144.05 82.0971C144.05 81.0691 143.714 80.2533 143.044 79.6499C142.396 79.0241 141.502 78.7112 140.362 78.7112C137.948 78.7112 136.451 80.1527 135.87 83.0358H142.038Z" fill="white"/>
<path d="M151.534 93.3611C151.534 92.7353 151.746 92.2101 152.171 91.7855C152.595 91.3609 153.109 91.1485 153.713 91.1485C154.338 91.1485 154.864 91.3609 155.288 91.7855C155.713 92.2101 155.925 92.7353 155.925 93.3611C155.925 93.9645 155.713 94.4786 155.288 94.9032C154.864 95.3278 154.338 95.5402 153.713 95.5402C153.109 95.5402 152.595 95.3278 152.171 94.9032C151.746 94.4786 151.534 93.9645 151.534 93.3611Z" fill="white"/>
</svg>
