<svg width="1441" height="423" viewBox="0 0 1441 423" fill="none" xmlns="http://www.w3.org/2000/svg">
<g clip-path="url(#clip0_1195_8)">
<path d="M1094.04 307.343C1025.54 308.281 957.275 301.567 891.686 287.446C830.725 274.225 767.2 267.98 703.504 268.936C639.887 267.989 576.468 274.234 515.611 287.446C450.062 301.567 381.832 308.281 313.391 307.343C244.911 308.281 176.641 301.567 111.066 287.446C50.17 274.234 -13.2892 267.989 -76.9323 268.936C-91.7981 268.936 -103.852 260.337 -103.852 249.732C-103.852 239.127 -91.7981 230.529 -76.9323 230.529C-8.46529 229.591 59.8045 236.305 125.366 250.426C186.275 263.638 249.735 269.892 313.391 268.936C376.995 269.883 440.414 263.638 501.284 250.426C566.82 236.314 635.05 229.6 703.504 230.529C771.997 229.6 840.28 236.305 905.869 250.426C966.831 263.648 1030.34 269.892 1094.04 268.936C1157.69 269.892 1221.17 263.638 1282.09 250.426C1347.65 236.314 1415.89 229.6 1484.36 230.529C1499.23 230.529 1511.28 239.127 1511.28 249.732C1511.28 260.337 1499.23 268.936 1484.36 268.936C1420.71 267.989 1357.23 274.234 1296.31 287.446C1230.75 301.558 1162.5 308.272 1094.04 307.343Z" fill="#FFCB77"/>
<path d="M1094.04 422.566C1025.54 423.503 957.275 416.789 891.686 402.668C830.725 389.447 767.2 383.202 703.504 384.158C639.887 383.211 576.468 389.456 515.611 402.668C450.062 416.789 381.832 423.503 313.391 422.566C244.911 423.503 176.641 416.789 111.066 402.668C50.17 389.456 -13.2892 383.211 -76.9323 384.158C-91.7981 384.158 -103.852 375.56 -103.852 364.954C-103.852 354.349 -91.7981 345.751 -76.9323 345.751C-8.46529 344.813 59.8045 351.527 125.366 365.648C186.275 378.86 249.735 385.115 313.391 384.158C376.995 385.105 440.414 378.86 501.284 365.648C566.82 351.536 635.05 344.822 703.504 345.751C771.997 344.822 840.28 351.527 905.869 365.648C966.831 378.87 1030.34 385.115 1094.04 384.158C1157.69 385.115 1221.17 378.86 1282.09 365.648C1347.65 351.536 1415.89 344.822 1484.36 345.751C1499.23 345.751 1511.28 354.349 1511.28 364.954C1511.28 375.56 1499.23 384.158 1484.36 384.158C1420.71 383.211 1357.23 389.456 1296.31 402.668C1230.75 416.78 1162.5 423.494 1094.04 422.566Z" fill="#FFCB77"/>
</g>
<g clip-path="url(#clip1_1195_8)">
<path d="M1094.04 77.3434C1025.54 78.281 957.275 71.5673 891.686 57.4458C830.725 44.2245 767.2 37.9796 703.504 38.936C639.887 37.9889 576.468 44.2339 515.611 57.4458C450.062 71.5673 381.832 78.281 313.391 77.3434C244.911 78.281 176.641 71.5673 111.066 57.4458C50.17 44.2339 -13.2892 37.9889 -76.9323 38.936C-91.7981 38.936 -103.852 30.3375 -103.852 19.7323C-103.852 9.12715 -91.7981 0.528623 -76.9323 0.528623C-8.46529 -0.409057 59.8045 6.30473 125.366 20.4262C186.275 33.6381 249.735 39.8924 313.391 38.936C376.995 39.883 440.414 33.6381 501.284 20.4262C566.82 6.31411 635.05 -0.399679 703.504 0.528623C771.997 -0.399679 840.28 6.30473 905.869 20.4262C966.831 33.6475 1030.34 39.8924 1094.04 38.936C1157.69 39.8924 1221.17 33.6381 1282.09 20.4262C1347.65 6.31411 1415.89 -0.399679 1484.36 0.528623C1499.23 0.528623 1511.28 9.12715 1511.28 19.7323C1511.28 30.3375 1499.23 38.936 1484.36 38.936C1420.71 37.9889 1357.23 44.2339 1296.31 57.4458C1230.75 71.5579 1162.5 78.2717 1094.04 77.3434Z" fill="#FFCB77"/>
<path d="M1094.04 192.566C1025.54 193.503 957.275 186.789 891.686 172.668C830.725 159.447 767.2 153.202 703.504 154.158C639.887 153.211 576.468 159.456 515.611 172.668C450.062 186.789 381.832 193.503 313.391 192.566C244.911 193.503 176.641 186.789 111.066 172.668C50.17 159.456 -13.2892 153.211 -76.9323 154.158C-91.7981 154.158 -103.852 145.56 -103.852 134.954C-103.852 124.349 -91.7981 115.751 -76.9323 115.751C-8.46529 114.813 59.8045 121.527 125.366 135.648C186.275 148.86 249.735 155.115 313.391 154.158C376.995 155.105 440.414 148.86 501.284 135.648C566.82 121.536 635.05 114.822 703.504 115.751C771.997 114.822 840.28 121.527 905.869 135.648C966.831 148.87 1030.34 155.115 1094.04 154.158C1157.69 155.115 1221.17 148.86 1282.09 135.648C1347.65 121.536 1415.89 114.822 1484.36 115.751C1499.23 115.751 1511.28 124.349 1511.28 134.954C1511.28 145.56 1499.23 154.158 1484.36 154.158C1420.71 153.211 1357.23 159.456 1296.31 172.668C1230.75 186.78 1162.5 193.494 1094.04 192.566Z" fill="#FFCB77"/>
</g>
<defs>
<clipPath id="clip0_1195_8">
<rect width="1441" height="193" fill="white" transform="translate(0 230)"/>
</clipPath>
<clipPath id="clip1_1195_8">
<rect width="1441" height="193" fill="white"/>
</clipPath>
</defs>
</svg>
