<svg width="35" height="34" viewBox="0 0 35 34" fill="none" xmlns="http://www.w3.org/2000/svg">
<path d="M17.4241 0.0725098C7.98968 0.0725098 0.337891 7.72288 0.337891 17.1588C0.337891 24.708 5.2331 31.1125 12.0235 33.3722C12.8763 33.5302 13.1526 33.0006 13.1526 32.5506V29.3697C8.39975 30.4034 7.41017 27.3535 7.41017 27.3535C6.63275 25.3787 5.51218 24.8533 5.51218 24.8533C3.9616 23.7925 5.63036 23.8153 5.63036 23.8153C7.3461 23.9349 8.24882 25.5766 8.24882 25.5766C9.77235 28.1879 12.2456 27.4333 13.2209 26.9962C13.3733 25.8927 13.8161 25.138 14.3059 24.7123C10.5113 24.278 6.52169 22.8129 6.52169 16.2674C6.52169 14.4008 7.18948 12.8772 8.28157 11.6812C8.10501 11.2498 7.51981 9.51124 8.44816 7.15903C8.44816 7.15903 9.88341 6.70055 13.1483 8.91037C14.5109 8.53163 15.9718 8.34225 17.4241 8.33513C18.8765 8.34225 20.3388 8.53163 21.7042 8.91037C24.9663 6.70055 26.3987 7.15903 26.3987 7.15903C27.3285 9.51266 26.7433 11.2512 26.5667 11.6812C27.6631 12.8772 28.3252 14.4022 28.3252 16.2674C28.3252 22.83 24.3284 24.2752 20.5239 24.6981C21.1361 25.2277 21.6957 26.2671 21.6957 27.8619V32.5506C21.6957 33.0048 21.9691 33.5388 22.8362 33.3708C29.6209 31.1083 34.5104 24.7052 34.5104 17.1588C34.5104 7.72288 26.86 0.0725098 17.4241 0.0725098Z" fill="#FFCB77"/>
</svg>
