<svg width="205" height="88" viewBox="0 0 205 88" fill="none" xmlns="http://www.w3.org/2000/svg">
<path d="M35.9372 77.7181C47.5652 77.7181 56.9916 68.2918 56.9916 56.6637C56.9916 45.0357 47.5652 35.6094 35.9372 35.6094C24.3092 35.6094 14.8828 45.0357 14.8828 56.6637C14.8828 68.2918 24.3092 77.7181 35.9372 77.7181ZM31.2402 61.5759V73.7203C25.3199 72.0937 20.6405 67.466 18.9413 61.5759H31.2402ZM31.2402 51.9668H18.8806C20.527 45.9745 25.2479 41.2536 31.2402 39.6072V51.9668ZM40.8494 61.5759H52.9331C51.2545 67.3944 46.6678 71.9811 40.8494 73.6597V61.5759ZM40.8494 39.6678C46.7394 41.3671 51.3672 46.0464 52.9937 51.9668H40.8494V39.6678Z" fill="white" stroke="white"/>
<path d="M44.4929 64.5762C44.4344 68.0769 42.5222 69.3436 40.4926 69.2262C38.463 69.1093 37.0513 68.1912 35.6097 68.1912L35.5507 68.2234C34.1092 68.2234 32.6975 69.1737 30.6679 69.2906C28.6381 69.4074 26.7261 68.2047 26.6676 64.7039C26.7853 61.4898 29.2951 61.2535 31.4329 57.4566C33.3152 54.1132 35.5508 54.3838 35.5508 54.3838H35.6097C35.6097 54.3838 37.8646 54.1278 39.7277 57.4566C41.8553 61.2587 44.3752 61.362 44.4929 64.5762ZM31.9261 52.9414C33.7239 52.8084 35.0264 50.7069 34.8353 48.2474C34.6441 45.788 33.0317 43.9019 31.2339 44.0349C29.4362 44.1679 28.1337 46.2695 28.3248 48.729C28.516 51.1884 30.1283 53.0744 31.9261 52.9414ZM38.74 52.9842C40.4969 53.4514 42.4655 51.8819 43.137 49.4786C43.8084 47.0752 42.9286 44.7482 41.1718 44.2809C39.4149 43.8137 37.4463 45.3832 36.7748 47.7866C36.1034 50.1898 36.9832 52.5169 38.74 52.9842ZM46.8794 51.0599C45.3495 50.653 43.6351 52.0197 43.0504 54.1126C42.4657 56.2055 43.2319 58.2318 44.7618 58.6387C46.2917 59.0456 48.006 57.6789 48.5908 55.586C49.1756 53.4932 48.4094 51.4668 46.8794 51.0599ZM28.8245 54.1124C28.2398 52.0196 26.5255 50.6529 24.9956 51.0597C23.4656 51.4666 22.6994 53.493 23.2841 55.5859C23.8689 57.6786 25.5833 59.0454 27.1132 58.6385C28.6431 58.2317 29.4093 56.2053 28.8245 54.1124Z" fill="#FFCB77"/>
<path fill-rule="evenodd" clip-rule="evenodd" d="M66.5453 24.8715L71.8102 83.5043C71.8376 83.6695 71.8516 83.8397 71.8521 84.0123C71.8521 85.7274 70.462 87.1179 68.7465 87.1179H68.7382H3.34576C2.47414 87.1179 1.64227 86.7514 1.05388 86.1079C0.465484 85.4645 0.174807 84.6036 0.252652 83.7349L5.53826 24.8715C5.68194 23.2703 7.02395 22.0438 8.63137 22.0438H19.4962V17.147C19.4962 8.02089 26.9196 0.596191 36.0449 0.596191C45.1706 0.596191 52.5949 8.02089 52.5949 17.147V22.0438H63.4522C65.0596 22.0438 66.4016 23.2703 66.5453 24.8715ZM36.0453 6.80725C30.3448 6.80725 25.7072 11.4457 25.7072 17.147V22.0438H46.3842V17.147C46.3842 11.4457 41.7462 6.80725 36.0453 6.80725ZM11.4706 28.2549L6.74279 80.9072H65.3412L60.6134 28.2549H46.3842H25.7072H11.4706Z" fill="white"/>
<path d="M75.8633 85.8192C75.8633 85.2209 76.3483 84.7359 76.9466 84.7359H121.581C122.18 84.7359 122.665 85.2209 122.665 85.8192V85.8192C122.665 86.4175 122.18 86.9025 121.581 86.9025H76.9466C76.3483 86.9025 75.8633 86.4175 75.8633 85.8192V85.8192Z" fill="white"/>
<path d="M125.698 84.852C125.698 84.5699 125.747 84.3041 125.846 84.0546C125.955 83.8051 126.097 83.5881 126.272 83.4036C126.458 83.2192 126.677 83.0727 126.929 82.9643C127.18 82.8558 127.448 82.8015 127.732 82.8015C128.017 82.8015 128.285 82.8558 128.536 82.9643C128.788 83.0727 129.007 83.2192 129.192 83.4036C129.378 83.5881 129.521 83.8051 129.619 84.0546C129.728 84.3041 129.783 84.5699 129.783 84.852C129.783 85.1449 129.728 85.4162 129.619 85.6657C129.521 85.9044 129.378 86.1159 129.192 86.3004C129.007 86.4848 128.788 86.6258 128.536 86.7235C128.285 86.832 128.017 86.8862 127.732 86.8862C127.448 86.8862 127.18 86.832 126.929 86.7235C126.677 86.6258 126.458 86.4848 126.272 86.3004C126.097 86.1159 125.955 85.9044 125.846 85.6657C125.747 85.4162 125.698 85.1449 125.698 84.852Z" fill="white"/>
<path d="M143.117 72.8745C142.986 73.1132 142.784 73.2326 142.51 73.2326C142.346 73.2326 142.16 73.1729 141.953 73.0536C141.745 72.9342 141.488 72.804 141.182 72.663C140.886 72.5111 140.531 72.3755 140.115 72.2561C139.7 72.126 139.208 72.0609 138.639 72.0609C138.147 72.0609 137.704 72.126 137.31 72.2561C136.916 72.3755 136.577 72.5436 136.293 72.7606C136.02 72.9776 135.806 73.2326 135.653 73.5255C135.511 73.8076 135.44 74.1168 135.44 74.4531C135.44 74.8762 135.56 75.2288 135.801 75.5109C136.052 75.793 136.38 76.0371 136.785 76.2432C137.19 76.4493 137.649 76.6338 138.163 76.7965C138.677 76.9484 139.202 77.1166 139.738 77.301C140.285 77.4746 140.815 77.6699 141.329 77.8869C141.843 78.1038 142.303 78.3751 142.707 78.7005C143.112 79.026 143.435 79.4274 143.675 79.9048C143.927 80.3713 144.052 80.9355 144.052 81.5973C144.052 82.3567 143.916 83.0619 143.642 83.7128C143.369 84.3529 142.964 84.9117 142.428 85.389C141.892 85.8556 141.236 86.2244 140.46 86.4957C139.683 86.7669 138.786 86.9025 137.769 86.9025C136.61 86.9025 135.56 86.7181 134.62 86.3492C133.679 85.9695 132.881 85.4867 132.225 84.9008L132.914 83.7942C133.001 83.6532 133.105 83.5447 133.225 83.4687C133.346 83.3928 133.504 83.3548 133.701 83.3548C133.898 83.3548 134.106 83.4308 134.324 83.5827C134.543 83.7346 134.806 83.9027 135.112 84.0871C135.429 84.2716 135.806 84.4397 136.244 84.5916C136.692 84.7435 137.25 84.8195 137.917 84.8195C138.486 84.8195 138.983 84.7489 139.41 84.6079C139.836 84.456 140.192 84.2553 140.476 84.0058C140.761 83.7562 140.968 83.4687 141.1 83.1433C141.242 82.8178 141.313 82.4706 141.313 82.1017C141.313 81.6461 141.187 81.2718 140.936 80.9789C140.695 80.6751 140.372 80.4201 139.968 80.214C139.563 79.997 139.098 79.8126 138.573 79.6607C138.059 79.4979 137.529 79.3298 136.982 79.1562C136.446 78.9826 135.916 78.7873 135.391 78.5704C134.877 78.3425 134.417 78.0604 134.013 77.7241C133.608 77.3878 133.28 76.9755 133.028 76.4873C132.788 75.9882 132.667 75.3861 132.667 74.6809C132.667 74.0517 132.799 73.4495 133.061 72.8745C133.324 72.2887 133.706 71.7788 134.21 71.3448C134.713 70.9 135.331 70.5474 136.063 70.287C136.796 70.0266 137.633 69.8965 138.573 69.8965C139.667 69.8965 140.646 70.07 141.51 70.4172C142.385 70.7535 143.139 71.22 143.774 71.8168L143.117 72.8745Z" fill="white"/>
<path d="M152.865 86.9025C151.553 86.9025 150.541 86.5391 149.83 85.8122C149.13 85.0853 148.78 84.0383 148.78 82.6713V72.5816H146.779C146.604 72.5816 146.456 72.5328 146.336 72.4352C146.216 72.3267 146.155 72.1639 146.155 71.9469V70.7915L148.879 70.4498L149.551 65.3561C149.573 65.1933 149.644 65.0632 149.764 64.9655C149.885 64.857 150.038 64.8028 150.224 64.8028H151.7V70.4823H156.458V72.5816H151.7V82.476C151.7 83.1704 151.87 83.6857 152.209 84.022C152.548 84.3584 152.985 84.5265 153.521 84.5265C153.827 84.5265 154.09 84.4886 154.309 84.4126C154.538 84.3258 154.735 84.2336 154.899 84.136C155.063 84.0383 155.2 83.9515 155.309 83.8756C155.43 83.7888 155.533 83.7454 155.621 83.7454C155.774 83.7454 155.911 83.8376 156.031 84.022L156.884 85.4053C156.381 85.8718 155.774 86.2407 155.063 86.5119C154.352 86.7723 153.62 86.9025 152.865 86.9025Z" fill="white"/>
<path d="M166.794 69.8965C168.008 69.8965 169.102 70.0972 170.075 70.4986C171.06 70.9 171.891 71.4696 172.569 72.2073C173.258 72.9451 173.783 73.8401 174.144 74.8925C174.515 75.934 174.701 77.1003 174.701 78.3913C174.701 79.6932 174.515 80.8649 174.144 81.9065C173.783 82.948 173.258 83.8376 172.569 84.5754C171.891 85.3131 171.06 85.8827 170.075 86.2841C169.102 86.6747 168.008 86.87 166.794 86.87C165.58 86.87 164.481 86.6747 163.497 86.2841C162.523 85.8827 161.692 85.3131 161.003 84.5754C160.314 83.8376 159.784 82.948 159.412 81.9065C159.04 80.8649 158.854 79.6932 158.854 78.3913C158.854 77.1003 159.04 75.934 159.412 74.8925C159.784 73.8401 160.314 72.9451 161.003 72.2073C161.692 71.4696 162.523 70.9 163.497 70.4986C164.481 70.0972 165.58 69.8965 166.794 69.8965ZM166.794 84.6079C168.435 84.6079 169.66 84.0655 170.469 82.9805C171.278 81.8848 171.683 80.3605 171.683 78.4076C171.683 76.4439 171.278 74.9142 170.469 73.8184C169.66 72.7227 168.435 72.1748 166.794 72.1748C165.963 72.1748 165.241 72.3158 164.629 72.5979C164.016 72.88 163.502 73.2868 163.087 73.8184C162.682 74.35 162.376 75.0064 162.168 75.7875C161.971 76.5578 161.873 77.4312 161.873 78.4076C161.873 79.384 161.971 80.2574 162.168 81.0277C162.376 81.798 162.682 82.4489 163.087 82.9805C163.502 83.5013 164.016 83.9027 164.629 84.1848C165.241 84.4669 165.963 84.6079 166.794 84.6079Z" fill="white"/>
<path d="M178.299 86.6421V70.1568H179.973C180.29 70.1568 180.509 70.2165 180.629 70.3358C180.749 70.4552 180.831 70.6613 180.875 70.9542L181.072 73.5255C181.641 72.3755 182.341 71.4804 183.172 70.8403C184.014 70.1894 184.998 69.8639 186.125 69.8639C186.584 69.8639 187 69.9182 187.371 70.0266C187.743 70.1243 188.088 70.2653 188.405 70.4498L188.028 72.6142C187.951 72.8854 187.781 73.021 187.519 73.021C187.366 73.021 187.131 72.9722 186.814 72.8745C186.496 72.7661 186.053 72.7118 185.485 72.7118C184.468 72.7118 183.615 73.0047 182.926 73.5906C182.248 74.1764 181.679 75.0281 181.22 76.1456V86.6421H178.299Z" fill="white"/>
<path d="M198.111 69.8965C199.106 69.8965 200.025 70.0646 200.867 70.4009C201.709 70.7264 202.436 71.2038 203.049 71.833C203.661 72.4514 204.137 73.2217 204.476 74.1439C204.826 75.0552 205.001 76.0967 205.001 77.2685C205.001 77.7241 204.952 78.0279 204.853 78.1798C204.755 78.3317 204.569 78.4076 204.295 78.4076H193.238C193.26 79.4491 193.402 80.355 193.665 81.1253C193.927 81.8956 194.288 82.5411 194.748 83.0619C195.207 83.5718 195.754 83.957 196.388 84.2173C197.022 84.4669 197.733 84.5916 198.521 84.5916C199.254 84.5916 199.882 84.5103 200.407 84.3475C200.943 84.1739 201.403 83.9895 201.785 83.7942C202.168 83.5989 202.485 83.4199 202.737 83.2572C202.999 83.0836 203.224 82.9968 203.409 82.9968C203.65 82.9968 203.836 83.089 203.967 83.2735L204.787 84.3312C204.427 84.7652 203.995 85.1449 203.491 85.4704C202.988 85.785 202.447 86.0454 201.867 86.2515C201.299 86.4577 200.708 86.6096 200.096 86.7072C199.483 86.8157 198.876 86.87 198.275 86.87C197.126 86.87 196.066 86.6801 195.092 86.3004C194.13 85.9098 193.293 85.3456 192.582 84.6079C191.882 83.8593 191.335 82.9371 190.942 81.8414C190.548 80.7456 190.351 79.4871 190.351 78.0659C190.351 76.9159 190.526 75.8418 190.876 74.8437C191.237 73.8455 191.751 72.983 192.418 72.2561C193.085 71.5184 193.9 70.9434 194.862 70.5311C195.825 70.108 196.908 69.8965 198.111 69.8965ZM198.176 72.0283C196.765 72.0283 195.655 72.4352 194.846 73.2488C194.037 74.0517 193.534 75.1691 193.337 76.6012H202.376C202.376 75.9286 202.283 75.3156 202.097 74.7623C201.911 74.1981 201.638 73.7154 201.277 73.3139C200.916 72.9017 200.473 72.587 199.948 72.3701C199.434 72.1422 198.843 72.0283 198.176 72.0283Z" fill="white"/>
<path d="M86.8924 29.7443C88.0028 29.7443 89.0376 29.87 89.9967 30.1213C90.9725 30.3559 91.8559 30.7077 92.6467 31.1768H99.5872V32.8355C99.5872 33.3884 99.2338 33.7403 98.5272 33.891L95.6248 34.2931C96.1968 35.3822 96.4829 36.5969 96.4829 37.9372C96.4829 39.177 96.2389 40.3079 95.751 41.33C95.2799 42.3352 94.6152 43.1981 93.7571 43.9185C92.9159 44.6389 91.9063 45.1918 90.7286 45.5772C89.5676 45.9625 88.2889 46.1552 86.8924 46.1552C85.6978 46.1552 84.5705 46.0128 83.5104 45.728C82.972 46.0631 82.5598 46.4233 82.2738 46.8086C82.0046 47.194 81.87 47.571 81.87 47.9395C81.87 48.5427 82.1139 49.0034 82.6019 49.3218C83.0898 49.6234 83.7376 49.8412 84.5452 49.9752C85.3528 50.1092 86.2698 50.193 87.2962 50.2265C88.3225 50.26 89.3657 50.3187 90.4257 50.4024C91.5025 50.4695 92.5541 50.5951 93.5805 50.7794C94.6068 50.9637 95.5238 51.2653 96.3314 51.6841C97.1391 52.103 97.7868 52.681 98.2748 53.4182C98.7627 54.1554 99.0067 55.1104 99.0067 56.2832C99.0067 57.3722 98.7291 58.4278 98.1738 59.4498C97.6354 60.4718 96.853 61.3765 95.8267 62.164C94.8003 62.9682 93.5468 63.6048 92.0662 64.074C90.5856 64.5598 88.9114 64.8028 87.0438 64.8028C85.1762 64.8028 83.5357 64.6185 82.1223 64.2499C80.7258 63.8813 79.5649 63.387 78.6395 62.7671C77.7141 62.1472 77.0158 61.4268 76.5447 60.6058C76.0904 59.8016 75.8633 58.9555 75.8633 58.0675C75.8633 56.811 76.2587 55.7471 77.0495 54.8758C77.8571 53.9879 78.9592 53.2842 80.3557 52.7648C79.6322 52.4297 79.0517 51.9857 78.6142 51.4328C78.1936 50.8632 77.9833 50.1092 77.9833 49.171C77.9833 48.8024 78.0506 48.4254 78.1852 48.0401C78.3198 47.638 78.5217 47.2442 78.7909 46.8589C79.0769 46.4735 79.4219 46.1049 79.8257 45.7531C80.2295 45.4013 80.7006 45.0913 81.239 44.8232C79.9771 44.1196 78.9844 43.1897 78.2609 42.0336C77.5542 40.8608 77.2009 39.4954 77.2009 37.9372C77.2009 36.6974 77.4365 35.5749 77.9076 34.5696C78.3955 33.5476 79.0685 32.6847 79.9266 31.981C80.7847 31.2606 81.8027 30.7077 82.9804 30.3224C84.1751 29.937 85.479 29.7443 86.8924 29.7443ZM94.8676 57.012C94.8676 56.3754 94.691 55.8643 94.3376 55.479C93.9843 55.0936 93.5048 54.8004 92.899 54.5994C92.2933 54.3816 91.5951 54.2224 90.8043 54.1219C90.0135 54.0214 89.1806 53.9544 88.3057 53.9208C87.4308 53.8706 86.539 53.8203 85.6305 53.7701C84.7219 53.7198 83.8554 53.6276 83.0309 53.4936C82.0719 53.946 81.2895 54.4989 80.6838 55.1523C80.0949 55.8057 79.8004 56.5848 79.8004 57.4895C79.8004 58.0592 79.9435 58.5869 80.2295 59.0728C80.5323 59.5754 80.9866 60.0027 81.5923 60.3545C82.1981 60.7231 82.9552 61.0079 83.8638 61.209C84.7892 61.4268 85.8744 61.5357 87.1195 61.5357C88.3309 61.5357 89.4162 61.4268 90.3752 61.209C91.3343 60.9912 92.1419 60.6812 92.7981 60.2791C93.4711 59.877 93.9843 59.3995 94.3376 58.8466C94.691 58.2937 94.8676 57.6822 94.8676 57.012ZM86.8924 43.1897C87.8009 43.1897 88.6001 43.064 89.29 42.8127C89.9967 42.5614 90.5856 42.2096 91.0567 41.7572C91.5278 41.3048 91.8811 40.7687 92.1167 40.1488C92.3522 39.5121 92.47 38.8168 92.47 38.0629C92.47 36.5047 91.9905 35.2649 91.0314 34.3434C90.0892 33.4219 88.7095 32.9612 86.8924 32.9612C85.092 32.9612 83.7124 33.4219 82.7533 34.3434C81.8111 35.2649 81.34 36.5047 81.34 38.0629C81.34 38.8168 81.4577 39.5121 81.6933 40.1488C81.9457 40.7687 82.3074 41.3048 82.7785 41.7572C83.2497 42.2096 83.8301 42.5614 84.52 42.8127C85.2098 43.064 86.0006 43.1897 86.8924 43.1897Z" fill="white"/>
<path d="M118.705 34.3685C118.503 34.7371 118.192 34.9214 117.771 34.9214C117.518 34.9214 117.232 34.8293 116.913 34.645C116.593 34.4607 116.198 34.2596 115.727 34.0418C115.272 33.8073 114.725 33.5978 114.086 33.4135C113.447 33.2125 112.69 33.112 111.815 33.112C111.058 33.112 110.376 33.2125 109.77 33.4135C109.165 33.5978 108.643 33.8575 108.206 34.1926C107.785 34.5277 107.457 34.9214 107.221 35.3738C107.003 35.8094 106.893 36.2869 106.893 36.8063C106.893 37.4597 107.078 38.0042 107.448 38.4398C107.835 38.8755 108.34 39.2524 108.963 39.5708C109.585 39.8891 110.292 40.1739 111.083 40.4252C111.874 40.6598 112.681 40.9195 113.506 41.2043C114.347 41.4724 115.163 41.774 115.954 42.109C116.745 42.4441 117.451 42.863 118.074 43.3656C118.696 43.8682 119.193 44.4882 119.563 45.2253C119.95 45.9458 120.143 46.817 120.143 47.839C120.143 49.0118 119.933 50.1009 119.512 51.1061C119.092 52.0946 118.469 52.9575 117.645 53.6947C116.82 54.4151 115.811 54.9847 114.616 55.4036C113.421 55.8225 112.042 56.0319 110.477 56.0319C108.694 56.0319 107.078 55.7471 105.631 55.1774C104.184 54.591 102.956 53.8454 101.947 52.9407L103.007 51.2318C103.141 51.014 103.301 50.8464 103.486 50.7291C103.671 50.6119 103.915 50.5532 104.218 50.5532C104.521 50.5532 104.841 50.6705 105.177 50.9051C105.514 51.1396 105.917 51.3993 106.388 51.6841C106.876 51.969 107.457 52.2287 108.13 52.4632C108.82 52.6978 109.678 52.8151 110.704 52.8151C111.579 52.8151 112.345 52.7062 113.001 52.4883C113.657 52.2538 114.204 51.9438 114.641 51.5585C115.079 51.1731 115.398 50.7291 115.6 50.2265C115.819 49.7239 115.928 49.1877 115.928 48.6181C115.928 47.9144 115.735 47.3364 115.348 46.884C114.978 46.4149 114.482 46.0212 113.859 45.7028C113.236 45.3678 112.521 45.0829 111.714 44.8484C110.923 44.5971 110.107 44.3374 109.266 44.0693C108.441 43.8012 107.625 43.4997 106.818 43.1646C106.027 42.8127 105.32 42.3771 104.697 41.8577C104.075 41.3383 103.57 40.7017 103.183 39.9477C102.813 39.177 102.628 38.2472 102.628 37.1581C102.628 36.1864 102.83 35.2565 103.234 34.3685C103.637 33.4638 104.226 32.6764 105 32.0062C105.774 31.3193 106.725 30.7747 107.852 30.3726C108.98 29.9705 110.267 29.7695 111.714 29.7695C113.396 29.7695 114.902 30.0375 116.231 30.5737C117.577 31.0931 118.738 31.8135 119.714 32.735L118.705 34.3685Z" fill="white"/>
<path d="M122.621 30.1716H126.155C126.525 30.1716 126.828 30.2637 127.063 30.448C127.299 30.6323 127.459 30.8501 127.543 31.1014L132.439 47.4872C132.574 48.0903 132.7 48.6767 132.818 49.2464C132.935 49.7993 133.036 50.3605 133.12 50.9302C133.255 50.3605 133.406 49.7993 133.575 49.2464C133.743 48.6767 133.92 48.0903 134.105 47.4872L139.506 31.0009C139.59 30.7496 139.733 30.5402 139.935 30.3726C140.153 30.2051 140.423 30.1213 140.742 30.1213H142.686C143.022 30.1213 143.3 30.2051 143.519 30.3726C143.737 30.5402 143.889 30.7496 143.973 31.0009L149.248 47.4872C149.433 48.0736 149.593 48.6516 149.727 49.2213C149.879 49.7909 150.022 50.3522 150.156 50.9051C150.24 50.3522 150.35 49.7741 150.484 49.171C150.619 48.5678 150.762 48.0066 150.913 47.4872L155.91 31.1014C155.995 30.8334 156.154 30.6156 156.39 30.448C156.626 30.2637 156.903 30.1716 157.223 30.1716H160.605L152.327 55.6298H148.768C148.331 55.6298 148.028 55.345 147.86 54.7753L142.206 37.51C142.072 37.1246 141.962 36.7393 141.878 36.3539C141.794 35.9518 141.71 35.5581 141.626 35.1727C141.542 35.5581 141.457 35.9518 141.373 36.3539C141.289 36.756 141.18 37.1498 141.045 37.5351L135.316 54.7753C135.131 55.345 134.786 55.6298 134.281 55.6298H130.899L122.621 30.1716Z" fill="white"/>
<path d="M174.719 29.7695C176.25 29.7695 177.664 30.0292 178.959 30.5486C180.255 31.0512 181.374 31.7884 182.316 32.7601C183.258 33.7151 183.99 34.9047 184.512 36.3288C185.05 37.7362 185.319 39.3446 185.319 41.154C185.319 41.8577 185.244 42.3268 185.092 42.5614C184.941 42.796 184.655 42.9132 184.234 42.9132H167.224C167.257 44.5217 167.476 45.9207 167.88 47.1102C168.284 48.2998 168.839 49.2966 169.545 50.1009C170.252 50.8883 171.093 51.4831 172.069 51.8852C173.045 52.2705 174.139 52.4632 175.35 52.4632C176.477 52.4632 177.445 52.3376 178.253 52.0862C179.077 51.8182 179.784 51.5334 180.373 51.2318C180.961 50.9302 181.449 50.6538 181.836 50.4024C182.24 50.1344 182.585 50.0003 182.871 50.0003C183.241 50.0003 183.527 50.1427 183.729 50.4276L184.991 52.0611C184.436 52.7313 183.771 53.3177 182.997 53.8203C182.223 54.3062 181.391 54.7083 180.499 55.0266C179.624 55.345 178.715 55.5795 177.773 55.7303C176.831 55.8979 175.897 55.9816 174.972 55.9816C173.205 55.9816 171.573 55.6884 170.075 55.102C168.595 54.4989 167.308 53.6276 166.214 52.4883C165.137 51.3323 164.296 49.9082 163.69 48.216C163.084 46.5238 162.782 44.5803 162.782 42.3855C162.782 40.6095 163.051 38.9509 163.589 37.4095C164.144 35.8681 164.935 34.5361 165.962 33.4135C166.988 32.2742 168.241 31.3863 169.722 30.7496C171.203 30.0962 172.868 29.7695 174.719 29.7695ZM174.82 33.0617C172.65 33.0617 170.942 33.69 169.697 34.9466C168.452 36.1864 167.678 37.9121 167.375 40.1237H181.281C181.281 39.0849 181.138 38.1383 180.852 37.2838C180.566 36.4126 180.145 35.667 179.59 35.0471C179.035 34.4104 178.354 33.9245 177.546 33.5895C176.755 33.2376 175.847 33.0617 174.82 33.0617Z" fill="white"/>
<path d="M198.817 56.0319C196.798 56.0319 195.242 55.4706 194.148 54.3481C193.071 53.2255 192.533 51.6087 192.533 49.4977V33.9162H189.454C189.185 33.9162 188.958 33.8408 188.773 33.69C188.587 33.5224 188.495 33.2711 188.495 32.936V31.1517L192.684 30.6239L193.719 22.7578C193.753 22.5065 193.862 22.3054 194.047 22.1546C194.232 21.9871 194.468 21.9033 194.754 21.9033H197.025V30.6742H204.345V33.9162H197.025V49.1961C197.025 50.2684 197.286 51.0642 197.808 51.5836C198.329 52.103 199.002 52.3627 199.827 52.3627C200.298 52.3627 200.702 52.3041 201.038 52.1868C201.392 52.0527 201.695 51.9103 201.947 51.7595C202.199 51.6087 202.41 51.4747 202.578 51.3574C202.763 51.2234 202.923 51.1564 203.057 51.1564C203.293 51.1564 203.503 51.2988 203.688 51.5836L205.001 53.7198C204.227 54.4402 203.293 55.0099 202.199 55.4287C201.106 55.8308 199.978 56.0319 198.817 56.0319Z" fill="white"/>
</svg>
