<svg width="279" height="116" viewBox="0 0 279 116" fill="none" xmlns="http://www.w3.org/2000/svg">
<path fill-rule="evenodd" clip-rule="evenodd" d="M57.883 115.766C89.8509 115.766 115.766 89.8509 115.766 57.883C115.766 25.9151 89.8509 0 57.883 0C25.9151 0 0 25.9151 0 57.883C0 89.8509 25.9151 115.766 57.883 115.766ZM57.883 109.221C86.2361 109.221 109.221 86.2361 109.221 57.883C109.221 29.5299 86.2361 6.54514 57.883 6.54514C29.5299 6.54514 6.54514 29.5299 6.54514 57.883C6.54514 86.2361 29.5299 109.221 57.883 109.221Z" fill="white"/>
<path d="M113.779 70.4525V45.3135H70.6661L70.6661 2.92134L45.1 2.92133L45.1 45.3135H1.98727V70.4525H45.1L45.1 112.845H70.6661L70.6661 70.4525H113.779Z" fill="white"/>
<path d="M81.9757 80.1664C81.811 90.0248 76.4262 93.5918 70.7106 93.2613C64.9949 92.9322 61.0194 90.3467 56.96 90.3467L56.7936 90.4372C52.7342 90.4372 48.7589 93.1135 43.0432 93.4426C37.3273 93.7717 31.9427 90.3846 31.778 80.5261C32.1094 71.475 39.1773 70.8094 45.1975 60.1171C50.4984 50.7018 56.794 51.4638 56.794 51.4638H56.96C56.96 51.4638 63.3099 50.7427 68.5566 60.1171C74.548 70.824 81.6444 71.1149 81.9757 80.1664ZM46.5866 47.4019C51.6492 47.0274 55.3172 41.1093 54.7789 34.1831C54.2406 27.2571 49.7 21.9459 44.6373 22.3204C39.5746 22.6949 35.9066 28.6132 36.4449 35.5392C36.9832 42.4652 41.5237 47.7765 46.5866 47.4019ZM65.7751 47.5222C70.7225 48.838 76.2665 44.4181 78.1574 37.6501C80.0482 30.8821 77.5705 24.3289 72.6232 23.0132C67.6757 21.6974 62.1318 26.1173 60.241 32.8853C58.35 39.6531 60.8276 46.2065 65.7751 47.5222ZM88.6963 42.1033C84.3881 40.9574 79.5602 44.8062 77.9136 50.6999C76.2669 56.5937 78.4246 62.3002 82.7329 63.4459C87.0413 64.5917 91.8691 60.7429 93.5158 54.8492C95.1626 48.9557 93.0049 43.2491 88.6963 42.1033ZM37.8522 50.6994C36.2054 44.806 31.3779 40.9571 27.0694 42.1028C22.761 43.2486 20.6031 48.9552 22.2499 54.8489C23.8967 60.7423 28.7244 64.5912 33.0329 63.4455C37.3411 62.2999 39.4988 56.5932 37.8522 50.6994Z" fill="#FFCB77"/>
<path d="M153.796 57.2265C153.678 57.4493 153.507 57.5606 153.285 57.5606C153.114 57.5606 152.891 57.4427 152.616 57.2068C152.354 56.9579 151.994 56.6892 151.535 56.401C151.077 56.0996 150.5 55.8244 149.806 55.5754C149.124 55.3265 148.279 55.202 147.27 55.202C146.261 55.202 145.37 55.3461 144.597 55.6344C143.837 55.9227 143.195 56.3158 142.671 56.8137C142.16 57.3117 141.766 57.8882 141.491 58.5434C141.229 59.1986 141.098 59.8865 141.098 60.6072C141.098 61.5507 141.295 62.3304 141.688 62.9463C142.094 63.5621 142.625 64.0863 143.28 64.5187C143.935 64.9511 144.675 65.318 145.501 65.6194C146.34 65.9077 147.198 66.196 148.076 66.4843C148.954 66.7725 149.806 67.0936 150.631 67.4474C151.47 67.7881 152.217 68.2205 152.872 68.7446C153.527 69.2688 154.051 69.9174 154.444 70.6905C154.85 71.4506 155.054 72.4006 155.054 73.5406C155.054 74.7068 154.85 75.8075 154.444 76.8427C154.051 77.8648 153.475 78.7559 152.715 79.5159C151.955 80.2759 151.024 80.8787 149.923 81.3242C148.823 81.7566 147.565 81.9728 146.15 81.9728C144.315 81.9728 142.736 81.6518 141.413 81.0097C140.089 80.3545 138.929 79.4635 137.934 78.3365L138.484 77.4717C138.641 77.2751 138.825 77.1769 139.034 77.1769C139.152 77.1769 139.303 77.2555 139.486 77.4127C139.67 77.57 139.893 77.7665 140.155 78.0024C140.417 78.2252 140.731 78.4741 141.098 78.7493C141.465 79.0114 141.891 79.2604 142.376 79.4962C142.861 79.719 143.417 79.909 144.046 80.0662C144.675 80.2235 145.39 80.3021 146.189 80.3021C147.29 80.3021 148.272 80.1383 149.137 79.8107C150.002 79.47 150.729 79.0114 151.319 78.4348C151.922 77.8583 152.38 77.1769 152.695 76.3906C153.009 75.5913 153.167 74.7396 153.167 73.8354C153.167 72.8526 152.964 72.0468 152.557 71.4178C152.164 70.7757 151.64 70.245 150.985 69.8257C150.33 69.3933 149.583 69.0329 148.744 68.7446C147.919 68.4564 147.067 68.1746 146.189 67.8994C145.311 67.6243 144.453 67.3163 143.614 66.9756C142.789 66.6349 142.048 66.2025 141.393 65.6784C140.738 65.1411 140.207 64.4794 139.801 63.6932C139.408 62.8938 139.211 61.898 139.211 60.7055C139.211 59.7752 139.388 58.8776 139.742 58.0127C140.096 57.1479 140.613 56.3879 141.295 55.7327C141.976 55.0644 142.815 54.5337 143.811 54.1406C144.82 53.7344 145.966 53.5312 147.25 53.5312C148.692 53.5312 149.982 53.7606 151.122 54.2192C152.276 54.6778 153.324 55.3789 154.267 56.3223L153.796 57.2265Z" fill="white"/>
<path d="M179.197 54.5337C179.197 54.7827 179.105 55.0513 178.922 55.3396L161.271 79.9876H179.059V81.6583H158.578V80.9311C158.578 80.7869 158.598 80.6624 158.637 80.5576C158.689 80.4397 158.748 80.3283 158.814 80.2235L176.504 55.5165H159.089V53.8457H179.197V54.5337Z" fill="white"/>
<path d="M192.018 68.8429C193.237 68.8429 194.331 68.6726 195.301 68.3319C196.27 67.9912 197.089 67.5194 197.758 66.9167C198.439 66.3139 198.957 65.6063 199.31 64.7939C199.677 63.9683 199.861 63.0707 199.861 62.1011C199.861 59.9652 199.206 58.3206 197.895 57.1675C196.585 56.0144 194.626 55.4378 192.018 55.4378H186.849V68.8429H192.018ZM192.018 53.8457C195.281 53.8457 197.738 54.5599 199.389 55.9882C201.053 57.4165 201.885 59.4541 201.885 62.1011C201.885 63.3197 201.656 64.4401 201.197 65.4622C200.739 66.4843 200.084 67.3687 199.232 68.1157C198.38 68.8495 197.345 69.426 196.126 69.8453C194.908 70.2516 193.538 70.4547 192.018 70.4547H186.849V81.6583H184.824V53.8457H192.018Z" fill="white"/>
<path d="M209.576 81.6583H207.551V53.8457H209.576V81.6583Z" fill="white"/>
<path d="M235.884 55.5558H226.115V81.6583H224.091V55.5558H214.263V53.8457H235.884V55.5558Z" fill="white"/>
<path d="M252.838 71.5554L247.177 57.5017C246.98 57.043 246.79 56.4927 246.607 55.8506C246.528 56.1651 246.443 56.4665 246.351 56.7548C246.26 57.0299 246.161 57.2855 246.057 57.5213L240.396 71.5554H252.838ZM258.99 81.6583H257.437C257.254 81.6583 257.103 81.6125 256.985 81.5207C256.867 81.4159 256.775 81.2849 256.71 81.1276L253.447 73.0492H239.786L236.524 81.1276C236.471 81.2718 236.379 81.3963 236.248 81.5011C236.117 81.6059 235.96 81.6583 235.777 81.6583H234.244L245.624 53.8457H247.609L258.99 81.6583Z" fill="white"/>
<path d="M278.794 79.9483V81.6583H263.6V53.8457H265.625V79.9483H278.794Z" fill="white"/>
<path d="M159.039 32.0509V40.7381C157.818 41.6017 156.517 42.2637 155.135 42.7243C153.754 43.1848 152.199 43.4151 150.472 43.4151C148.538 43.4151 146.799 43.1215 145.256 42.5343C143.714 41.9356 142.395 41.095 141.301 40.0127C140.219 38.9189 139.384 37.6006 138.797 36.0577C138.221 34.5148 137.934 32.7993 137.934 30.911C137.934 29.0227 138.216 27.3129 138.78 25.7815C139.356 24.2387 140.173 22.9261 141.232 21.8438C142.303 20.75 143.593 19.9094 145.101 19.3222C146.609 18.7235 148.308 18.4241 150.196 18.4241C151.129 18.4241 151.986 18.4875 152.769 18.6141C153.564 18.7408 154.301 18.9308 154.98 19.1841C155.659 19.4259 156.293 19.731 156.88 20.0994C157.467 20.4563 158.031 20.8708 158.572 21.3429L158.089 22.1028C157.928 22.3792 157.686 22.4425 157.363 22.2928C157.191 22.2237 156.943 22.0625 156.621 21.8092C156.298 21.5559 155.855 21.2911 155.291 21.0148C154.727 20.7384 154.024 20.4909 153.184 20.2721C152.355 20.0534 151.342 19.944 150.144 19.944C148.555 19.944 147.116 20.1973 145.826 20.7039C144.548 21.2105 143.455 21.9359 142.545 22.88C141.647 23.8242 140.95 24.9756 140.455 26.3342C139.972 27.6928 139.73 29.2184 139.73 30.911C139.73 32.6266 139.972 34.1694 140.455 35.5396C140.95 36.9097 141.658 38.0726 142.579 39.0283C143.512 39.9839 144.64 40.7151 145.965 41.2217C147.289 41.7283 148.78 41.9816 150.438 41.9816C151.163 41.9816 151.831 41.9356 152.441 41.8434C153.063 41.7513 153.65 41.6247 154.203 41.4635C154.767 41.2908 155.308 41.0835 155.826 40.8417C156.356 40.5884 156.891 40.3063 157.432 39.9955V33.4153H152.752C152.625 33.4153 152.516 33.375 152.424 33.2944C152.343 33.2138 152.303 33.1217 152.303 33.018V32.0509H159.039Z" fill="white"/>
<path d="M185.51 30.911C185.51 32.7993 185.228 34.4976 184.663 36.0059C184.099 37.5142 183.305 38.798 182.28 39.8573C181.255 40.9166 180.023 41.7283 178.584 42.2925C177.156 42.8567 175.579 43.1388 173.852 43.1388H164.923V18.7005H173.852C175.579 18.7005 177.156 18.9826 178.584 19.5467C180.023 20.1109 181.255 20.9227 182.28 21.9819C183.305 23.0412 184.099 24.325 184.663 25.8333C185.228 27.3417 185.51 29.0342 185.51 30.911ZM183.679 30.911C183.679 29.2069 183.443 27.6871 182.971 26.3515C182.499 25.0159 181.831 23.8875 180.967 22.9664C180.104 22.0453 179.068 21.3429 177.859 20.8593C176.65 20.3757 175.314 20.134 173.852 20.134H166.702V41.7053H173.852C175.314 41.7053 176.65 41.4635 177.859 40.9799C179.068 40.4963 180.104 39.794 180.967 38.8729C181.831 37.9517 182.499 36.8234 182.971 35.4878C183.443 34.1522 183.679 32.6266 183.679 30.911Z" fill="white"/>
<path d="M197.533 33.0698V43.1388H195.772V33.0698L186.722 18.7005H188.276C188.437 18.7005 188.57 18.7408 188.673 18.8214C188.777 18.8905 188.863 18.9941 188.932 19.1322L195.927 30.3583C196.077 30.6231 196.215 30.8822 196.342 31.1355C196.468 31.3773 196.578 31.6191 196.67 31.8609C196.762 31.6191 196.865 31.3773 196.981 31.1355C197.096 30.8822 197.228 30.6231 197.378 30.3583L204.372 19.1322C204.43 19.0056 204.511 18.902 204.614 18.8214C204.729 18.7408 204.868 18.7005 205.029 18.7005H206.583L197.533 33.0698Z" fill="white"/>
<path d="M229.389 18.7005V43.1388H228.56C228.41 43.1388 228.283 43.1157 228.18 43.0697C228.087 43.0121 227.995 42.92 227.903 42.7933L212.031 21.5847C212.066 21.9301 212.083 22.2583 212.083 22.5691V43.1388H210.529V18.7005H211.41C211.571 18.7005 211.692 18.7235 211.772 18.7696C211.864 18.8041 211.962 18.8905 212.066 19.0286L227.903 40.1854C227.869 39.84 227.851 39.5119 227.851 39.201V18.7005H229.389ZM225.986 11.3604L220.321 16.3171C220.218 16.4092 220.114 16.4668 220.01 16.4898C219.907 16.5128 219.786 16.5243 219.648 16.5243H218.525L222.981 11.7403C223.119 11.5791 223.257 11.4755 223.396 11.4294C223.545 11.3834 223.758 11.3604 224.035 11.3604H225.986Z" fill="white"/>
<path d="M248.469 21.6711C248.365 21.8668 248.215 21.9647 248.02 21.9647C247.87 21.9647 247.674 21.861 247.433 21.6538C247.202 21.435 246.886 21.199 246.483 20.9457C246.08 20.6809 245.573 20.4391 244.963 20.2203C244.364 20.0015 243.621 19.8922 242.735 19.8922C241.848 19.8922 241.065 20.0188 240.386 20.2721C239.718 20.5254 239.154 20.8708 238.693 21.3084C238.244 21.7459 237.899 22.2525 237.657 22.8282C237.427 23.4039 237.312 24.0084 237.312 24.6417C237.312 25.4707 237.485 26.1557 237.83 26.6969C238.187 27.238 238.653 27.6986 239.229 28.0786C239.805 28.4585 240.455 28.7809 241.18 29.0457C241.917 29.299 242.672 29.5523 243.443 29.8056C244.214 30.059 244.963 30.341 245.688 30.6519C246.425 30.9513 247.081 31.3312 247.657 31.7918C248.233 32.2524 248.693 32.8223 249.039 33.5016C249.396 34.1694 249.574 35.0042 249.574 36.0059C249.574 37.0306 249.396 37.9978 249.039 38.9074C248.693 39.8055 248.187 40.5884 247.519 41.2562C246.851 41.924 246.034 42.4537 245.066 42.8452C244.099 43.2251 242.994 43.4151 241.75 43.4151C240.138 43.4151 238.751 43.133 237.588 42.5688C236.425 41.9931 235.406 41.2102 234.531 40.22L235.015 39.4601C235.153 39.2874 235.314 39.201 235.498 39.201C235.602 39.201 235.734 39.2701 235.896 39.4083C236.057 39.5464 236.253 39.7191 236.483 39.9264C236.713 40.1221 236.989 40.3409 237.312 40.5827C237.634 40.813 238.008 41.0317 238.434 41.239C238.86 41.4347 239.35 41.6017 239.902 41.7398C240.455 41.878 241.083 41.9471 241.785 41.9471C242.752 41.9471 243.616 41.8031 244.376 41.5153C245.136 41.2159 245.775 40.813 246.293 40.3063C246.822 39.7997 247.225 39.201 247.502 38.5102C247.778 37.8078 247.916 37.0594 247.916 36.265C247.916 35.4014 247.738 34.6933 247.381 34.1406C247.035 33.5765 246.575 33.1101 245.999 32.7417C245.423 32.3617 244.767 32.0451 244.03 31.7918C243.305 31.5385 242.556 31.2909 241.785 31.0491C241.014 30.8074 240.259 30.5368 239.522 30.2374C238.797 29.9381 238.147 29.5581 237.571 29.0975C236.995 28.6255 236.529 28.044 236.172 27.3532C235.827 26.6508 235.654 25.7758 235.654 24.728C235.654 23.9105 235.809 23.1218 236.12 22.3619C236.431 21.602 236.886 20.9342 237.485 20.3585C238.083 19.7713 238.82 19.305 239.695 18.9595C240.582 18.6026 241.589 18.4241 242.718 18.4241C243.984 18.4241 245.118 18.6256 246.12 19.0286C247.133 19.4316 248.054 20.0476 248.883 20.8766L248.469 21.6711Z" fill="white"/>
<path d="M256.868 29.9784H258.319C258.537 29.9784 258.727 29.9726 258.889 29.9611C259.05 29.9381 259.194 29.9035 259.32 29.8575C259.458 29.8114 259.579 29.7481 259.683 29.6675C259.798 29.5754 259.919 29.466 260.046 29.3393L269.907 19.2013C270.08 19.0056 270.247 18.8732 270.408 18.8041C270.581 18.735 270.782 18.7005 271.013 18.7005H272.429L261.756 29.6675C261.537 29.8978 261.341 30.0762 261.168 30.2029C261.007 30.3295 260.823 30.4332 260.616 30.5138C260.857 30.5828 261.076 30.6922 261.272 30.8419C261.468 30.9801 261.663 31.1643 261.859 31.3946L273.102 43.1388H271.669C271.37 43.1388 271.151 43.1042 271.013 43.0351C270.886 42.9545 270.759 42.8336 270.633 42.6725L260.305 32.1027C260.178 31.976 260.057 31.8666 259.942 31.7745C259.838 31.6824 259.718 31.6076 259.579 31.55C259.453 31.4809 259.297 31.4349 259.113 31.4118C258.94 31.3773 258.716 31.36 258.439 31.36H256.868V43.1388H255.089V18.7005H256.868V29.9784Z" fill="white"/>
<path d="M278.794 43.1388H277.015V18.7005H278.794V43.1388Z" fill="white"/>
<path d="M154.621 92.0898L150.791 104.268H150L146.402 93.6992C146.356 93.5558 146.316 93.4066 146.282 93.2517C146.247 93.4066 146.207 93.5558 146.161 93.6992L142.555 104.268H141.772L137.934 92.0898H138.665C138.832 92.0898 138.938 92.1673 138.984 92.3222L142.056 102.331C142.119 102.561 142.176 102.822 142.228 103.114C142.257 102.965 142.286 102.828 142.314 102.701C142.343 102.569 142.377 102.446 142.417 102.331L145.86 92.3222C145.883 92.2591 145.923 92.2046 145.98 92.1587C146.038 92.1128 146.107 92.0898 146.187 92.0898H146.428C146.508 92.0898 146.574 92.1128 146.626 92.1587C146.678 92.1989 146.718 92.2534 146.746 92.3222L150.189 102.331C150.229 102.44 150.264 102.561 150.292 102.693C150.327 102.825 150.358 102.962 150.387 103.106C150.416 102.962 150.441 102.828 150.464 102.701C150.493 102.569 150.522 102.446 150.55 102.331L153.623 92.3222C153.64 92.2591 153.677 92.2046 153.735 92.1587C153.798 92.1128 153.87 92.0898 153.95 92.0898H154.621Z" fill="white"/>
<path d="M164.141 103.536L164.124 104.268H156.826V92.0898H164.124V92.8214H157.713V97.7442H163.048V98.4585H157.713V103.536H164.141Z" fill="white"/>
<path d="M174.729 92.8386H170.451V104.268H169.565V92.8386H165.262V92.0898H174.729V92.8386Z" fill="white"/>
<path d="M184.094 103.536L184.077 104.268H176.779V92.0898H184.077V92.8214H177.665V97.7442H183.001V98.4585H177.665V103.536H184.094Z" fill="white"/>
<path d="M189.758 98.1056C190.298 98.1056 190.779 98.0425 191.204 97.9163C191.634 97.7843 191.996 97.5979 192.288 97.3569C192.587 97.1159 192.813 96.8262 192.968 96.4877C193.123 96.1491 193.201 95.7676 193.201 95.343C193.201 94.4767 192.917 93.834 192.349 93.4152C191.786 92.9964 190.963 92.787 189.879 92.787H187.65V98.1056H189.758ZM195.163 104.268H194.406C194.308 104.268 194.225 104.253 194.156 104.225C194.093 104.19 194.033 104.13 193.975 104.044L190.068 99.104C190.022 99.0408 189.973 98.9863 189.922 98.9404C189.876 98.8945 189.821 98.8601 189.758 98.8372C189.701 98.8085 189.629 98.7884 189.543 98.7769C189.463 98.7654 189.362 98.7597 189.242 98.7597H187.65V104.268H186.763V92.0898H189.879C191.279 92.0898 192.326 92.3624 193.02 92.9074C193.72 93.4468 194.07 94.2414 194.07 95.2914C194.07 95.7561 193.99 96.1807 193.829 96.5651C193.668 96.9495 193.436 97.288 193.132 97.5807C192.833 97.8675 192.469 98.1028 192.039 98.2864C191.614 98.47 191.135 98.5933 190.602 98.6564C190.739 98.7425 190.863 98.8572 190.972 99.0007L195.163 104.268Z" fill="white"/>
<path d="M200.626 99.2503V104.268H199.749V99.2503L195.239 92.0898H196.013C196.094 92.0898 196.16 92.1099 196.211 92.1501C196.263 92.1845 196.306 92.2362 196.341 92.305L199.826 97.8991C199.901 98.031 199.969 98.1601 200.033 98.2864C200.096 98.4069 200.15 98.5273 200.196 98.6478C200.242 98.5273 200.294 98.4069 200.351 98.2864C200.408 98.1601 200.474 98.031 200.549 97.8991L204.035 92.305C204.063 92.2419 204.103 92.1903 204.155 92.1501C204.212 92.1099 204.281 92.0898 204.362 92.0898H205.136L200.626 99.2503Z" fill="white"/>
<path d="M216.5 92.0898V104.268H216.087C216.013 104.268 215.95 104.256 215.898 104.233C215.852 104.205 215.806 104.159 215.76 104.096L207.851 93.5271C207.868 93.6992 207.877 93.8627 207.877 94.0177V104.268H207.102V92.0898H207.541C207.621 92.0898 207.682 92.1013 207.722 92.1243C207.768 92.1415 207.817 92.1845 207.868 92.2534L215.76 102.796C215.743 102.624 215.734 102.46 215.734 102.305V92.0898H216.5Z" fill="white"/>
<path d="M226.662 99.8441L224.184 93.6906C224.098 93.4898 224.014 93.2488 223.934 92.9677C223.9 93.1054 223.862 93.2373 223.822 93.3636C223.782 93.4841 223.739 93.5959 223.693 93.6992L221.215 99.8441H226.662ZM229.356 104.268H228.676C228.596 104.268 228.53 104.248 228.478 104.207C228.427 104.162 228.386 104.104 228.358 104.035L226.929 100.498H220.948L219.519 104.035C219.496 104.098 219.456 104.153 219.399 104.199C219.341 104.245 219.272 104.268 219.192 104.268H218.521L223.504 92.0898H224.373L229.356 104.268Z" fill="white"/>
<path d="M234.37 98.1056C234.909 98.1056 235.391 98.0425 235.815 97.9163C236.246 97.7843 236.607 97.5979 236.9 97.3569C237.198 97.1159 237.425 96.8262 237.58 96.4877C237.735 96.1491 237.812 95.7676 237.812 95.343C237.812 94.4767 237.528 93.834 236.96 93.4152C236.398 92.9964 235.575 92.787 234.49 92.787H232.261V98.1056H234.37ZM239.774 104.268H239.017C238.919 104.268 238.836 104.253 238.767 104.225C238.704 104.19 238.644 104.13 238.587 104.044L234.679 99.104C234.634 99.0408 234.585 98.9863 234.533 98.9404C234.487 98.8945 234.433 98.8601 234.37 98.8372C234.312 98.8085 234.241 98.7884 234.154 98.7769C234.074 98.7654 233.974 98.7597 233.853 98.7597H232.261V104.268H231.375V92.0898H234.49C235.89 92.0898 236.937 92.3624 237.631 92.9074C238.331 93.4468 238.681 94.2414 238.681 95.2914C238.681 95.7561 238.601 96.1807 238.44 96.5651C238.28 96.9495 238.047 97.288 237.743 97.5807C237.445 97.8675 237.081 98.1028 236.65 98.2864C236.226 98.47 235.747 98.5933 235.213 98.6564C235.351 98.7425 235.474 98.8572 235.583 99.0007L239.774 104.268Z" fill="white"/>
<path d="M245.238 99.2503V104.268H244.36V99.2503L239.85 92.0898H240.625C240.705 92.0898 240.771 92.1099 240.823 92.1501C240.875 92.1845 240.918 92.2362 240.952 92.305L244.437 97.8991C244.512 98.031 244.581 98.1601 244.644 98.2864C244.707 98.4069 244.762 98.5273 244.808 98.6478C244.853 98.5273 244.905 98.4069 244.962 98.2864C245.02 98.1601 245.086 98.031 245.16 97.8991L248.646 92.305C248.675 92.2419 248.715 92.1903 248.766 92.1501C248.824 92.1099 248.893 92.0898 248.973 92.0898H249.748L245.238 99.2503Z" fill="white"/>
<path d="M254.06 100.206C254.06 100.888 253.977 101.491 253.811 102.013C253.644 102.535 253.403 102.974 253.088 103.33C252.772 103.685 252.391 103.955 251.943 104.139C251.496 104.316 250.991 104.405 250.428 104.405C250.17 104.405 249.909 104.385 249.645 104.345C249.381 104.305 249.109 104.242 248.828 104.156C248.833 104.076 248.839 103.995 248.845 103.915C248.856 103.835 248.868 103.754 248.879 103.674C248.891 103.622 248.911 103.576 248.94 103.536C248.974 103.496 249.031 103.476 249.112 103.476C249.163 103.476 249.224 103.487 249.292 103.51C249.367 103.528 249.453 103.548 249.551 103.571C249.648 103.594 249.763 103.617 249.895 103.639C250.027 103.657 250.179 103.665 250.351 103.665C250.787 103.665 251.18 103.596 251.53 103.459C251.88 103.321 252.178 103.112 252.425 102.83C252.672 102.544 252.858 102.185 252.984 101.755C253.116 101.319 253.182 100.808 253.182 100.223V92.0898H254.06V100.206Z" fill="white"/>
<path d="M266.928 92.0898V104.268H266.515C266.44 104.268 266.377 104.256 266.325 104.233C266.279 104.205 266.233 104.159 266.188 104.096L258.278 93.5271C258.296 93.6992 258.304 93.8627 258.304 94.0177V104.268H257.53V92.0898H257.969C258.049 92.0898 258.109 92.1013 258.149 92.1243C258.195 92.1415 258.244 92.1845 258.296 92.2534L266.188 102.796C266.17 102.624 266.162 102.46 266.162 102.305V92.0898H266.928Z" fill="white"/>
<path d="M274.284 99.2503V104.268H273.406V99.2503L268.897 92.0898H269.671C269.751 92.0898 269.817 92.1099 269.869 92.1501C269.921 92.1845 269.964 92.2362 269.998 92.305L273.484 97.8991C273.558 98.031 273.627 98.1601 273.69 98.2864C273.753 98.4069 273.808 98.5273 273.854 98.6478C273.9 98.5273 273.951 98.4069 274.009 98.2864C274.066 98.1601 274.132 98.031 274.207 97.8991L277.692 92.305C277.721 92.2419 277.761 92.1903 277.813 92.1501C277.87 92.1099 277.939 92.0898 278.019 92.0898H278.794L274.284 99.2503Z" fill="white"/>
</svg>
