<svg width="81" height="50" viewBox="0 0 81 50" fill="none" xmlns="http://www.w3.org/2000/svg">
<path d="M69.2471 19.903C67.663 0.0574433 41.3917 -6.48113 30.6528 10.5128C23.6881 6.59605 14.8057 11.2031 14.2483 19.3012C6.61285 20.2312 0.697266 26.6991 0.697266 34.546C0.697266 43.0322 7.61437 49.9115 16.1452 49.9115H64.5614C73.0922 49.9115 80.0102 43.0322 80.0102 34.546C80.0093 27.6864 75.4881 21.8784 69.2471 19.903Z" fill="white"/>
<g clip-path="url(#clip0_840_2)">
<path d="M43.1453 30.5339L30.8728 20.5879H55.4189L43.1453 30.5339ZM37.5902 28.6682L30.8574 23.2114V36.0123L37.5902 28.6682ZM48.7005 28.6682L55.4333 36.0123V23.2114L48.7005 28.6682ZM47.1062 29.9595L43.1453 33.1697L39.1845 29.9595L30.8799 39.0198H55.4107L47.1062 29.9595Z" fill="#FFCB77"/>
</g>
<defs>
<clipPath id="clip0_840_2">
<rect width="24.5758" height="24.5758" fill="white" transform="translate(30.8574 17.5156)"/>
</clipPath>
</defs>
</svg>
