<svg width="90" height="90" viewBox="0 0 90 90" fill="none" xmlns="http://www.w3.org/2000/svg">
<circle cx="45" cy="45" r="44" stroke="white" stroke-width="2"/>
<path d="M58.6795 26.3702C61.0923 26.3702 63.4017 27.163 65.3319 28.6796L65.5042 28.8175V27.7489C63.5051 26.3013 61.1612 25.543 58.714 25.543C52.165 25.543 46.8224 31.0579 46.8224 37.8137C46.8224 44.5695 52.165 50.0845 58.714 50.0845C61.1612 50.0845 63.5395 49.2917 65.5387 47.8785V46.81C63.6085 48.3611 61.2302 49.2228 58.7484 49.2228C52.6475 49.2228 47.6841 44.087 47.6841 37.7793C47.6841 31.4715 52.6475 26.3357 58.7484 26.3357L58.6795 26.3702Z" fill="white"/>
<path d="M48.3362 25.6808L48.2673 25.543H47.509L37.2718 50.0845H38.2025L42.1663 40.5023H53.5409L57.5393 50.0845H58.4699L48.3362 25.6808ZM42.1663 40.5023L47.8536 26.8528L53.5409 40.5023H42.1663Z" fill="white"/>
<path d="M34.8691 25.6808L34.8001 25.543H34.0418L23.8047 50.0845H24.7353L28.6992 40.5023H40.0738L44.0721 50.0845H45.0028L34.8691 25.6808ZM28.6992 40.5023L34.3865 26.8528L40.0738 40.5023H28.6992Z" fill="white"/>
<path d="M31.8815 57.2112H30.4131V61.7748H29.7789V57.2112H28.3105V56.6735H31.8815V57.2112Z" fill="white"/>
<path d="M39.3956 61.7748H38.5683L36.6519 59.1621V61.7748H36.0108V56.6735L37.8997 56.6873C38.2627 56.6873 38.5592 56.8252 38.7889 57.1009C39.0233 57.3767 39.1405 57.6961 39.1405 58.0591C39.1405 58.2522 39.1061 58.4314 39.0371 58.5969C38.9728 58.7623 38.8648 58.914 38.7131 59.0518C38.5431 59.1897 38.3569 59.2885 38.1547 59.3483H37.4791L39.3956 61.7748ZM37.9962 57.2802C37.9364 57.2572 37.8721 57.2388 37.8031 57.225C37.7388 57.2066 37.6791 57.1974 37.6239 57.1974H36.6519V58.9071H37.7894C38.01 58.9071 38.18 58.8312 38.2995 58.6796C38.4236 58.5233 38.4856 58.3349 38.4856 58.1143C38.4856 57.9305 38.4443 57.7627 38.3615 57.6111C38.2788 57.4594 38.157 57.3491 37.9962 57.2802Z" fill="white"/>
<path d="M46.9511 61.7748H46.2341L45.5792 60.1893H43.5525L42.8976 61.7748H42.2358L44.4762 56.5356H44.6417L46.9511 61.7748ZM45.3793 59.7274L44.5314 57.5352L43.7041 59.7274H45.3793Z" fill="white"/>
<path d="M53.052 61.4922C52.8727 61.5795 52.6935 61.6485 52.5143 61.699C52.335 61.7496 52.1581 61.7748 51.9835 61.7748H50.0532V56.6735H52.2247C52.8727 56.7379 53.3852 57.0251 53.762 57.5352C54.1389 58.0408 54.3273 58.6198 54.3273 59.2724C54.3273 59.755 54.2216 60.1939 54.0102 60.5891C53.7988 60.9844 53.4794 61.2854 53.052 61.4922ZM53.6517 58.8933C53.615 58.4935 53.4587 58.1396 53.183 57.8317C52.9118 57.5237 52.5786 57.3261 52.1834 57.2388H50.653V61.2233H51.9697C52.489 61.2233 52.9026 61.0165 53.2105 60.6029C53.5184 60.1893 53.6724 59.7182 53.6724 59.1897C53.6724 59.0886 53.6655 58.9898 53.6517 58.8933Z" fill="white"/>
<path d="M60.5316 61.7748H57.7604V56.6735H60.5316V57.225H58.3877V58.7347H60.5316V59.2586H58.3739V61.2233H60.5316V61.7748Z" fill="white"/>
<path d="M67.4396 54.5747V63.9579H22.5605V54.5747H67.4396Z" stroke="white"/>
<circle cx="44.9992" cy="45.0002" r="40.3859" stroke="#FFCB77"/>
</svg>
