<svg width="1392" height="625" viewBox="0 0 1392 625" fill="none" xmlns="http://www.w3.org/2000/svg">
<path d="M101.963 27.1276C99.7718 -0.475893 63.4257 -9.57047 48.5686 14.0665C38.933 8.61873 26.6443 15.0267 25.8732 26.2905C15.3096 27.5841 7.12549 36.5804 7.12549 47.4947C7.12549 59.2983 16.6952 68.8667 28.4976 68.8667H95.4807C107.283 68.8667 116.854 59.2983 116.854 47.4947C116.853 37.9535 110.598 29.8751 101.963 27.1276Z" fill="#FFCB77"/>
<path d="M261.347 27.1276C259.155 -0.475893 222.809 -9.57047 207.952 14.0665C198.316 8.61873 186.028 15.0267 185.256 26.2905C174.693 27.5841 166.509 36.5804 166.509 47.4947C166.509 59.2983 176.079 68.8667 187.881 68.8667H254.864C266.666 68.8667 276.237 59.2983 276.237 47.4947C276.236 37.9535 269.981 29.8751 261.347 27.1276Z" fill="#FFCB77"/>
<path d="M420.73 27.1276C418.538 -0.475893 382.192 -9.57047 367.335 14.0665C357.7 8.61873 345.411 15.0267 344.64 26.2905C334.076 27.5841 325.892 36.5804 325.892 47.4947C325.892 59.2983 335.462 68.8667 347.264 68.8667H414.247C426.05 68.8667 435.621 59.2983 435.621 47.4947C435.619 37.9535 429.364 29.8751 420.73 27.1276Z" fill="#FFCB77"/>
<path d="M580.113 27.1276C577.922 -0.475893 541.576 -9.57047 526.719 14.0665C517.083 8.61873 504.794 15.0267 504.023 26.2905C493.46 27.5841 485.275 36.5804 485.275 47.4947C485.275 59.2983 494.845 68.8667 506.647 68.8667H573.631C585.433 68.8667 595.004 59.2983 595.004 47.4947C595.003 37.9535 588.748 29.8751 580.113 27.1276Z" fill="#FFCB77"/>
<path d="M739.497 27.1276C737.305 -0.475893 700.959 -9.57047 686.102 14.0665C676.466 8.61873 664.178 15.0267 663.406 26.2905C652.843 27.5841 644.659 36.5804 644.659 47.4947C644.659 59.2983 654.228 68.8667 666.031 68.8667H733.014C744.816 68.8667 754.387 59.2983 754.387 47.4947C754.386 37.9535 748.131 29.8751 739.497 27.1276Z" fill="#FFCB77"/>
<path d="M898.88 27.1276C896.688 -0.475893 860.342 -9.57047 845.485 14.0665C835.849 8.61873 823.561 15.0267 822.79 26.2905C812.226 27.5841 804.042 36.5804 804.042 47.4947C804.042 59.2983 813.612 68.8667 825.414 68.8667H892.397C904.2 68.8667 913.771 59.2983 913.771 47.4947C913.769 37.9535 907.514 29.8751 898.88 27.1276Z" fill="#FFCB77"/>
<path d="M1058.26 27.1276C1056.07 -0.475893 1019.73 -9.57047 1004.87 14.0665C995.233 8.61873 982.945 15.0267 982.173 26.2905C971.61 27.5841 963.426 36.5804 963.426 47.4947C963.426 59.2983 972.996 68.8667 984.798 68.8667H1051.78C1063.58 68.8667 1073.15 59.2983 1073.15 47.4947C1073.15 37.9535 1066.9 29.8751 1058.26 27.1276Z" fill="#FFCB77"/>
<path d="M1217.65 27.1276C1215.45 -0.475893 1179.11 -9.57047 1164.25 14.0665C1154.62 8.61873 1142.33 15.0267 1141.56 26.2905C1130.99 27.5841 1122.81 36.5804 1122.81 47.4947C1122.81 59.2983 1132.38 68.8667 1144.18 68.8667H1211.16C1222.97 68.8667 1232.54 59.2983 1232.54 47.4947C1232.54 37.9535 1226.28 29.8751 1217.65 27.1276Z" fill="#FFCB77"/>
<path d="M1377.03 27.1276C1374.84 -0.475893 1338.49 -9.57047 1323.63 14.0665C1314 8.61873 1301.71 15.0267 1300.94 26.2905C1290.38 27.5841 1282.19 36.5804 1282.19 47.4947C1282.19 59.2983 1291.76 68.8667 1303.56 68.8667H1370.55C1382.35 68.8667 1391.92 59.2983 1391.92 47.4947C1391.92 37.9535 1385.66 29.8751 1377.03 27.1276Z" fill="#FFCB77"/>
<path d="M101.963 165.982C99.7718 138.379 63.4257 129.284 48.5686 152.921C38.933 147.473 26.6443 153.881 25.8732 165.145C15.3096 166.439 7.12549 175.435 7.12549 186.349C7.12549 198.153 16.6952 207.721 28.4976 207.721H95.4807C107.283 207.721 116.854 198.153 116.854 186.349C116.853 176.808 110.598 168.73 101.963 165.982Z" fill="#FFCB77"/>
<path d="M261.347 165.982C259.155 138.379 222.809 129.284 207.952 152.921C198.316 147.473 186.028 153.881 185.256 165.145C174.693 166.439 166.509 175.435 166.509 186.349C166.509 198.153 176.079 207.721 187.881 207.721H254.864C266.666 207.721 276.237 198.153 276.237 186.349C276.236 176.808 269.981 168.73 261.347 165.982Z" fill="#FFCB77"/>
<path d="M420.73 165.982C418.538 138.379 382.192 129.284 367.335 152.921C357.7 147.473 345.411 153.881 344.64 165.145C334.076 166.439 325.892 175.435 325.892 186.349C325.892 198.153 335.462 207.721 347.264 207.721H414.247C426.05 207.721 435.621 198.153 435.621 186.349C435.619 176.808 429.364 168.73 420.73 165.982Z" fill="#FFCB77"/>
<path d="M580.113 165.982C577.922 138.379 541.576 129.284 526.719 152.921C517.083 147.473 504.794 153.881 504.023 165.145C493.46 166.439 485.275 175.435 485.275 186.349C485.275 198.153 494.845 207.721 506.647 207.721H573.631C585.433 207.721 595.004 198.153 595.004 186.349C595.003 176.808 588.748 168.73 580.113 165.982Z" fill="#FFCB77"/>
<path d="M739.497 165.982C737.305 138.379 700.959 129.284 686.102 152.921C676.466 147.473 664.178 153.881 663.406 165.145C652.843 166.439 644.659 175.435 644.659 186.349C644.659 198.153 654.228 207.721 666.031 207.721H733.014C744.816 207.721 754.387 198.153 754.387 186.349C754.386 176.808 748.131 168.73 739.497 165.982Z" fill="#FFCB77"/>
<path d="M898.88 165.982C896.688 138.379 860.342 129.284 845.485 152.921C835.849 147.473 823.561 153.881 822.79 165.145C812.226 166.439 804.042 175.435 804.042 186.349C804.042 198.153 813.612 207.721 825.414 207.721H892.397C904.2 207.721 913.771 198.153 913.771 186.349C913.769 176.808 907.514 168.73 898.88 165.982Z" fill="#FFCB77"/>
<path d="M1058.26 165.982C1056.07 138.379 1019.73 129.284 1004.87 152.921C995.233 147.473 982.945 153.881 982.173 165.145C971.61 166.439 963.426 175.435 963.426 186.349C963.426 198.153 972.996 207.721 984.798 207.721H1051.78C1063.58 207.721 1073.15 198.153 1073.15 186.349C1073.15 176.808 1066.9 168.73 1058.26 165.982Z" fill="#FFCB77"/>
<path d="M1217.65 165.982C1215.45 138.379 1179.11 129.284 1164.25 152.921C1154.62 147.473 1142.33 153.881 1141.56 165.145C1130.99 166.439 1122.81 175.435 1122.81 186.349C1122.81 198.153 1132.38 207.721 1144.18 207.721H1211.16C1222.97 207.721 1232.54 198.153 1232.54 186.349C1232.54 176.808 1226.28 168.73 1217.65 165.982Z" fill="#FFCB77"/>
<path d="M1377.03 165.982C1374.84 138.379 1338.49 129.284 1323.63 152.921C1314 147.473 1301.71 153.881 1300.94 165.145C1290.38 166.439 1282.19 175.435 1282.19 186.349C1282.19 198.153 1291.76 207.721 1303.56 207.721H1370.55C1382.35 207.721 1391.92 198.153 1391.92 186.349C1391.92 176.808 1385.66 168.73 1377.03 165.982Z" fill="#FFCB77"/>
<path d="M94.9165 304.838C92.7249 277.234 56.3788 268.139 41.5218 291.777C31.8861 286.329 19.5974 292.737 18.8263 304C8.26276 305.294 0.0786133 314.29 0.0786133 325.205C0.0786133 337.008 9.64834 346.577 21.4507 346.577H88.4338C100.236 346.577 109.807 337.008 109.807 325.205C109.806 315.664 103.551 307.585 94.9165 304.838Z" fill="#FFCB77"/>
<path d="M254.3 304.838C252.108 277.234 215.762 268.139 200.905 291.777C191.269 286.329 178.981 292.737 178.21 304C167.646 305.294 159.462 314.29 159.462 325.205C159.462 337.008 169.032 346.577 180.834 346.577H247.817C259.619 346.577 269.19 337.008 269.19 325.205C269.189 315.664 262.934 307.585 254.3 304.838Z" fill="#FFCB77"/>
<path d="M413.683 304.838C411.492 277.234 375.145 268.139 360.288 291.777C350.653 286.329 338.364 292.737 337.593 304C327.029 305.294 318.845 314.29 318.845 325.205C318.845 337.008 328.415 346.577 340.217 346.577H407.2C419.003 346.577 428.574 337.008 428.574 325.205C428.573 315.664 422.317 307.585 413.683 304.838Z" fill="#FFCB77"/>
<path d="M573.066 304.838C570.875 277.234 534.529 268.139 519.672 291.777C510.036 286.329 497.747 292.737 496.976 304C486.413 305.294 478.229 314.29 478.229 325.205C478.229 337.008 487.798 346.577 499.601 346.577H566.584C578.386 346.577 587.957 337.008 587.957 325.205C587.956 315.664 581.701 307.585 573.066 304.838Z" fill="#FFCB77"/>
<path d="M732.45 304.838C730.258 277.234 693.912 268.139 679.055 291.777C669.419 286.329 657.131 292.737 656.359 304C645.796 305.294 637.612 314.29 637.612 325.205C637.612 337.008 647.182 346.577 658.984 346.577H725.967C737.769 346.577 747.34 337.008 747.34 325.205C747.339 315.664 741.084 307.585 732.45 304.838Z" fill="#FFCB77"/>
<path d="M891.833 304.838C889.641 277.234 853.295 268.139 838.438 291.777C828.803 286.329 816.514 292.737 815.743 304C805.179 305.294 796.995 314.29 796.995 325.205C796.995 337.008 806.565 346.577 818.367 346.577H885.35C897.153 346.577 906.724 337.008 906.724 325.205C906.722 315.664 900.467 307.585 891.833 304.838Z" fill="#FFCB77"/>
<path d="M1051.22 304.838C1049.03 277.234 1012.68 268.139 997.822 291.777C988.186 286.329 975.898 292.737 975.127 304C964.563 305.294 956.379 314.29 956.379 325.205C956.379 337.008 965.949 346.577 977.751 346.577H1044.73C1056.54 346.577 1066.11 337.008 1066.11 325.205C1066.11 315.664 1059.85 307.585 1051.22 304.838Z" fill="#FFCB77"/>
<path d="M1210.6 304.838C1208.41 277.234 1172.06 268.139 1157.2 291.777C1147.57 286.329 1135.28 292.737 1134.51 304C1123.95 305.294 1115.76 314.29 1115.76 325.205C1115.76 337.008 1125.33 346.577 1137.13 346.577H1204.12C1215.92 346.577 1225.49 337.008 1225.49 325.205C1225.49 315.664 1219.23 307.585 1210.6 304.838Z" fill="#FFCB77"/>
<path d="M1369.98 304.838C1367.79 277.234 1331.44 268.139 1316.59 291.777C1306.95 286.329 1294.66 292.737 1293.89 304C1283.33 305.294 1275.14 314.29 1275.14 325.205C1275.14 337.008 1284.71 346.577 1296.52 346.577H1363.5C1375.3 346.577 1384.87 337.008 1384.87 325.205C1384.87 315.664 1378.62 307.585 1369.98 304.838Z" fill="#FFCB77"/>
<path d="M101.963 582.547C99.7718 554.944 63.4257 545.849 48.5686 569.486C38.933 564.039 26.6443 570.447 25.8732 581.71C15.3096 583.004 7.12549 592 7.12549 602.915C7.12549 614.718 16.6952 624.287 28.4976 624.287H95.4807C107.283 624.287 116.854 614.718 116.854 602.915C116.853 593.373 110.598 585.295 101.963 582.547Z" fill="#FFCB77"/>
<path d="M261.347 582.547C259.155 554.944 222.809 545.849 207.952 569.486C198.316 564.039 186.028 570.447 185.256 581.71C174.693 583.004 166.509 592 166.509 602.915C166.509 614.718 176.079 624.287 187.881 624.287H254.864C266.666 624.287 276.237 614.718 276.237 602.915C276.236 593.373 269.981 585.295 261.347 582.547Z" fill="#FFCB77"/>
<path d="M420.73 582.547C418.538 554.944 382.192 545.849 367.335 569.486C357.7 564.039 345.411 570.447 344.64 581.71C334.076 583.004 325.892 592 325.892 602.915C325.892 614.718 335.462 624.287 347.264 624.287H414.247C426.05 624.287 435.621 614.718 435.621 602.915C435.619 593.373 429.364 585.295 420.73 582.547Z" fill="#FFCB77"/>
<path d="M580.113 582.547C577.922 554.944 541.576 545.849 526.719 569.486C517.083 564.039 504.794 570.447 504.023 581.71C493.46 583.004 485.275 592 485.275 602.915C485.275 614.718 494.845 624.287 506.647 624.287H573.631C585.433 624.287 595.004 614.718 595.004 602.915C595.003 593.373 588.748 585.295 580.113 582.547Z" fill="#FFCB77"/>
<path d="M739.497 582.547C737.305 554.944 700.959 545.849 686.102 569.486C676.466 564.039 664.178 570.447 663.406 581.71C652.843 583.004 644.659 592 644.659 602.915C644.659 614.718 654.228 624.287 666.031 624.287H733.014C744.816 624.287 754.387 614.718 754.387 602.915C754.386 593.373 748.131 585.295 739.497 582.547Z" fill="#FFCB77"/>
<path d="M898.88 582.547C896.688 554.944 860.342 545.849 845.485 569.486C835.849 564.039 823.561 570.447 822.79 581.71C812.226 583.004 804.042 592 804.042 602.915C804.042 614.718 813.612 624.287 825.414 624.287H892.397C904.2 624.287 913.771 614.718 913.771 602.915C913.769 593.373 907.514 585.295 898.88 582.547Z" fill="#FFCB77"/>
<path d="M1058.26 582.547C1056.07 554.944 1019.73 545.849 1004.87 569.486C995.233 564.039 982.945 570.447 982.173 581.71C971.61 583.004 963.426 592 963.426 602.915C963.426 614.718 972.996 624.287 984.798 624.287H1051.78C1063.58 624.287 1073.15 614.718 1073.15 602.915C1073.15 593.373 1066.9 585.295 1058.26 582.547Z" fill="#FFCB77"/>
<path d="M1217.65 582.547C1215.45 554.944 1179.11 545.849 1164.25 569.486C1154.62 564.039 1142.33 570.447 1141.56 581.71C1130.99 583.004 1122.81 592 1122.81 602.915C1122.81 614.718 1132.38 624.287 1144.18 624.287H1211.16C1222.97 624.287 1232.54 614.718 1232.54 602.915C1232.54 593.373 1226.28 585.295 1217.65 582.547Z" fill="#FFCB77"/>
<path d="M1377.03 582.547C1374.84 554.944 1338.49 545.849 1323.63 569.486C1314 564.039 1301.71 570.447 1300.94 581.71C1290.38 583.004 1282.19 592 1282.19 602.915C1282.19 614.718 1291.76 624.287 1303.56 624.287H1370.55C1382.35 624.287 1391.92 614.718 1391.92 602.915C1391.92 593.373 1385.66 585.295 1377.03 582.547Z" fill="#FFCB77"/>
<path d="M101.963 443.692C99.7718 416.089 63.4257 406.994 48.5686 430.631C38.933 425.183 26.6443 431.591 25.8732 442.855C15.3096 444.149 7.12549 453.145 7.12549 464.059C7.12549 475.863 16.6952 485.431 28.4976 485.431H95.4807C107.283 485.431 116.854 475.863 116.854 464.059C116.853 454.518 110.598 446.44 101.963 443.692Z" fill="#FFCB77"/>
<path d="M261.347 443.692C259.155 416.089 222.809 406.994 207.952 430.631C198.316 425.183 186.028 431.591 185.256 442.855C174.693 444.149 166.509 453.145 166.509 464.059C166.509 475.863 176.079 485.431 187.881 485.431H254.864C266.666 485.431 276.237 475.863 276.237 464.059C276.236 454.518 269.981 446.44 261.347 443.692Z" fill="#FFCB77"/>
<path d="M420.73 443.692C418.538 416.089 382.192 406.994 367.335 430.631C357.7 425.183 345.411 431.591 344.64 442.855C334.076 444.149 325.892 453.145 325.892 464.059C325.892 475.863 335.462 485.431 347.264 485.431H414.247C426.05 485.431 435.621 475.863 435.621 464.059C435.619 454.518 429.364 446.44 420.73 443.692Z" fill="#FFCB77"/>
<path d="M580.113 443.692C577.922 416.089 541.576 406.994 526.719 430.631C517.083 425.183 504.794 431.591 504.023 442.855C493.46 444.149 485.275 453.145 485.275 464.059C485.275 475.863 494.845 485.431 506.647 485.431H573.631C585.433 485.431 595.004 475.863 595.004 464.059C595.003 454.518 588.748 446.44 580.113 443.692Z" fill="#FFCB77"/>
<path d="M739.497 443.692C737.305 416.089 700.959 406.994 686.102 430.631C676.466 425.183 664.178 431.591 663.406 442.855C652.843 444.149 644.659 453.145 644.659 464.059C644.659 475.863 654.228 485.431 666.031 485.431H733.014C744.816 485.431 754.387 475.863 754.387 464.059C754.386 454.518 748.131 446.44 739.497 443.692Z" fill="#FFCB77"/>
<path d="M898.88 443.692C896.688 416.089 860.342 406.994 845.485 430.631C835.849 425.183 823.561 431.591 822.79 442.855C812.226 444.149 804.042 453.145 804.042 464.059C804.042 475.863 813.612 485.431 825.414 485.431H892.397C904.2 485.431 913.771 475.863 913.771 464.059C913.769 454.518 907.514 446.44 898.88 443.692Z" fill="#FFCB77"/>
<path d="M1058.26 443.692C1056.07 416.089 1019.73 406.994 1004.87 430.631C995.233 425.183 982.945 431.591 982.173 442.855C971.61 444.149 963.426 453.145 963.426 464.059C963.426 475.863 972.996 485.431 984.798 485.431H1051.78C1063.58 485.431 1073.15 475.863 1073.15 464.059C1073.15 454.518 1066.9 446.44 1058.26 443.692Z" fill="#FFCB77"/>
<path d="M1217.65 443.692C1215.45 416.089 1179.11 406.994 1164.25 430.631C1154.62 425.183 1142.33 431.591 1141.56 442.855C1130.99 444.149 1122.81 453.145 1122.81 464.059C1122.81 475.863 1132.38 485.431 1144.18 485.431H1211.16C1222.97 485.431 1232.54 475.863 1232.54 464.059C1232.54 454.518 1226.28 446.44 1217.65 443.692Z" fill="#FFCB77"/>
<path d="M1377.03 443.692C1374.84 416.089 1338.49 406.994 1323.63 430.631C1314 425.183 1301.71 431.591 1300.94 442.855C1290.38 444.149 1282.19 453.145 1282.19 464.059C1282.19 475.863 1291.76 485.431 1303.56 485.431H1370.55C1382.35 485.431 1391.92 475.863 1391.92 464.059C1391.92 454.518 1385.66 446.44 1377.03 443.692Z" fill="#FFCB77"/>
</svg>
