<svg width="81" height="50" viewBox="0 0 81 50" fill="none" xmlns="http://www.w3.org/2000/svg">
<path d="M69.2412 19.903C67.6572 0.0574433 41.3858 -6.48113 30.647 10.5128C23.6822 6.59605 14.7998 11.2031 14.2424 19.3012C6.60699 20.2312 0.691406 26.6991 0.691406 34.546C0.691406 43.0322 7.60851 49.9115 16.1394 49.9115H64.5555C73.0864 49.9115 80.0044 43.0322 80.0044 34.546C80.0035 27.6864 75.4823 21.8784 69.2412 19.903Z" fill="white"/>
<g clip-path="url(#clip0_840_3)">
<path d="M52.2629 40.6794L48.4935 33.7213C48.485 33.7254 46.3803 34.7146 46.2839 34.7566C43.8859 35.8687 39.0053 26.749 41.3498 25.5468L43.5798 24.4962L39.8404 17.5156L37.5858 18.5796C29.8758 22.4247 42.1174 45.185 50.0041 41.7372C50.1336 41.6809 52.2543 40.6835 52.2629 40.6794Z" fill="#0E483E"/>
</g>
<defs>
<clipPath id="clip0_840_3">
<rect width="25.6929" height="24.5758" fill="white" transform="translate(30.8516 17.5156)"/>
</clipPath>
</defs>
</svg>
