<svg width="46" height="113" viewBox="0 0 46 113" fill="none" xmlns="http://www.w3.org/2000/svg">
<path d="M2.9707 42.3584H8.51449C12.1405 47.2857 18.0374 60.3459 12.6169 73.1672C9.70176 80.0623 9.4933 88.7586 10.335 96.5561C10.0339 89.8075 10.8195 81.6223 14.1445 73.1672C20.2007 57.7668 14.7461 46.211 11.2617 42.3584H16.3989C19.5275 47.1379 24.1969 59.9907 17.8465 73.1672C15.6005 77.8274 14.4701 82.7398 13.9557 87.4727C14.5923 83.2692 16.8379 79.0788 19.8176 73.1672C25.0665 59.3258 22.4543 46.8608 20.2672 42.3584H25.1457C27.5316 48.2486 29.4699 61.1024 23.6428 73.1672C20.7583 79.1395 18.6659 84.2245 17.4321 88.0623C18.7444 84.644 21.1091 79.7976 25.1457 73.1672C33.9468 58.7116 30.5458 46.6049 27.7452 42.3584H33.1781C34.9828 47.2294 36.7149 60.2104 29.205 73.1672C20.5262 88.1408 19.5973 87.1384 18.7034 96.8831C19.3878 90.2899 19.8176 89.9786 31.3486 73.1672C40.5734 59.7181 38.576 47.0241 36.4242 42.3584H42.2944C43.1958 48.9269 43.1704 64.2847 35.8575 73.1672C26.7165 84.2705 27.6405 83.3613 18.4171 100.238C17.537 109.756 14.9785 112.689 13.781 112.958C13.5959 112.65 13.3584 112.142 13.0944 111.455C9.3863 102.995 4.15101 85.6417 8.51449 73.1672C13.1557 59.8986 6.75248 47.0993 2.9707 42.3584Z" fill="white"/>
<path d="M15.8323 6.05206L17.6272 8.91791C19.3081 8.38917 35.6668 9.94527 35.6188 23.7998C35.5804 34.8833 26.4299 36.6369 21.8594 36.1282C14.5776 36.0982 8.84422 24.9536 14.1574 19.5641C18.4079 15.2525 22.8161 16.7222 24.4889 17.996C32.0865 24.7442 26.69 29.6636 23.0421 31.2797L24.0687 31.7784C31.8848 29.9159 33.4156 21.3545 26.626 15.4006C19.8364 9.44661 7.67394 16.0554 8.9346 26.3171C10.1953 36.5788 20.3707 41.3552 28.9493 38.7177C37.5278 36.0801 43.0207 22.8805 34.7063 12.9613C28.0548 5.0259 19.3521 5.04873 15.8323 6.05206Z" fill="#FFCB77"/>
</svg>
