<svg width="190" height="119" viewBox="0 0 190 119" fill="none" xmlns="http://www.w3.org/2000/svg">
<path d="M159.928 110.373L159.928 110.433L159.943 110.491C160.666 113.377 162.911 114.757 163.989 115.097L163.996 115.099L164.003 115.101C166.542 115.816 168.942 116.157 171.201 116.116L171.214 116.116L171.226 116.115C173.426 115.963 175.325 115.662 176.918 115.206C181.048 114.022 184.024 111.829 185.768 108.597L185.768 108.598L185.773 108.587C187.396 105.413 187.74 101.989 186.827 98.3439C185.89 94.5999 184.06 91.8485 181.314 90.152C178.442 88.3786 175.273 87.9896 171.842 88.9731C169.588 89.6191 167.537 90.8229 165.693 92.5725C163.829 94.3402 162.425 96.7053 161.463 99.6414C160.394 102.619 159.888 106.201 159.928 110.373Z" fill="white" stroke="white"/>
<path d="M2.71057 9.67329L2.70576 9.68081L2.70122 9.6885C1.43244 11.8375 0.810547 14.419 0.810547 17.4108V18.6779L1.6758 17.7523C3.06044 16.2711 4.4811 15.1747 5.93518 14.4488L5.93527 14.449L5.94767 14.4424C7.52114 13.6008 8.90619 13.2027 10.1132 13.2027C11.2036 13.2027 12.06 13.4431 12.7163 13.8878C13.3698 14.3305 13.8678 15.0045 14.1935 15.9501L14.1934 15.9502L14.1975 15.9612L32.8651 66.2898L51.5327 116.618L51.6537 116.945H52.0015H56.5546H56.9193L57.0307 116.597L67.9699 82.4729L68.0243 82.3034L67.9592 82.1376L41.8481 15.6174C41.2283 13.7429 40.3528 11.9264 39.2239 10.1683C38.1825 8.38853 36.8306 6.83217 35.1721 5.50011C33.5107 4.05763 31.5936 2.89537 29.4248 2.01156C27.2259 1.1155 24.6293 0.675781 21.6476 0.675781C19.376 0.675781 17.0087 1.00671 14.5472 1.66415C12.0676 2.21795 9.79016 3.15929 7.71832 4.48905L7.71825 4.48894L7.70848 4.49553C5.72666 5.83448 4.06068 7.56248 2.71057 9.67329ZM69.5893 15.9501L69.5892 15.9502L69.5927 15.9597L79.6095 43.2346L79.6102 43.2366L106.929 116.619L107.05 116.945H107.397H111.95H112.316L112.427 116.596L123.302 82.4721L123.356 82.3031L123.291 82.138L97.2439 15.6176C96.6241 13.743 95.7486 11.9264 94.6197 10.1683C93.5783 8.38852 92.2264 6.83215 90.5679 5.50009C88.9065 4.05761 86.9894 2.89537 84.8206 2.01156C82.6217 1.1155 80.025 0.675781 77.0434 0.675781C74.7718 0.675781 72.4045 1.0067 69.943 1.66414C67.4634 2.21794 65.186 3.15928 63.1141 4.48905L63.114 4.48894L63.1043 4.49553C61.1225 5.83448 59.4565 7.56248 58.1064 9.67329L58.1016 9.68081L58.097 9.6885C56.8282 11.8375 56.2063 14.419 56.2063 17.4108V18.6779L57.0716 17.7523C58.4562 16.2711 59.8769 15.1747 61.331 14.4488L61.3311 14.449L61.3435 14.4424C62.9169 13.6008 64.302 13.2027 65.509 13.2027C66.5994 13.2027 67.4558 13.4431 68.1121 13.8878C68.7656 14.3305 69.2636 15.0045 69.5893 15.9501Z" fill="white" stroke="white"/>
<path d="M145.644 13.4625C147.645 10.4197 149.78 8.31716 152.035 7.11C154.446 5.87674 156.612 5.27936 158.54 5.27936C159.878 5.27936 161.087 5.48574 162.174 5.89176C161.007 8.15694 160.167 10.3796 159.658 12.5591L159.655 12.57L159.653 12.581C159.222 14.8894 159.003 16.9234 159.003 18.6789C159.003 23.2286 160.204 26.8536 162.667 29.4879L162.667 29.4879L162.675 29.4963C165.123 31.9966 168.141 33.25 171.694 33.25C175.343 33.25 178.316 32.0619 180.562 29.6595C182.904 27.1537 184.065 23.9953 184.065 20.2233C184.065 17.744 183.513 15.3268 182.414 12.976C181.305 10.6026 179.536 8.53935 177.129 6.78233C174.714 4.9052 171.606 3.45303 167.825 2.41209C164.128 1.25013 159.639 0.675781 154.37 0.675781C139.946 0.675781 128.938 4.70842 121.437 12.8489L121.225 13.079L121.339 13.3702L135.28 48.9235L136.245 48.741C136.245 41.7464 138.401 33.93 139.899 28.501C140.147 27.6015 140.377 26.7675 140.576 26.0137L140.577 26.0112C141.959 20.6637 143.653 16.4885 145.644 13.4625Z" fill="white" stroke="white"/>
</svg>
