<svg width="140" height="118" viewBox="0 0 140 118" fill="none" xmlns="http://www.w3.org/2000/svg">
<path d="M98.8853 98.4394L98.6077 98.9945L95.5543 98.9945L54.3338 0.176266L58.0811 0.176267L74.0419 38.7598L96.9422 93.7205L119.843 38.7598L135.942 0.176271L139.689 0.176271L98.8853 98.4394Z" fill="white"/>
<path d="M44.6588 98.4394L44.3812 98.9945L41.3279 98.9945L0.10733 0.176263L3.85468 0.176264L19.8155 38.7598L42.7158 93.7205L65.616 38.7598L81.7157 0.176268L85.463 0.176268L44.6588 98.4394Z" fill="white"/>
<path d="M114.822 71.1312C114.822 61.6881 111.584 52.9195 105.649 45.3651L105.109 44.6906L109.291 44.6906C114.957 52.5148 117.925 61.6881 117.925 71.2661C117.925 96.8973 96.3404 117.807 69.8998 117.807C43.4592 117.807 21.875 96.8973 21.875 71.2661C21.875 61.6881 24.9777 52.3799 30.5087 44.5557L34.6906 44.5557C28.62 52.1101 25.2475 61.4183 25.2475 71.1312C25.2475 95.0087 45.3478 114.434 70.0347 114.434C94.7216 114.434 114.822 95.0087 114.822 71.1312Z" fill="white"/>
<path d="M54.4124 0.17627H3.21094L42.4514 95.1341L69.3112 33.0702L54.4124 0.17627Z" fill="white"/>
<path d="M84.7966 0.17627H135.998L96.7576 95.1341L69.8978 33.0702L84.7966 0.17627Z" fill="white"/>
</svg>
